<svg width="192" height="128" viewBox="0 0 192 128" fill="none" xmlns="http://www.w3.org/2000/svg">
<path opacity="0.5" fill-rule="evenodd" clip-rule="evenodd" d="M113.784 86.5526C105.201 92.8787 92.7612 96.2539 82.0505 96.2539C67.0324 96.2539 53.5124 90.6992 43.2838 81.4609C42.4804 80.7343 43.2004 79.7443 44.1647 80.3101C55.2032 86.7326 68.8519 90.5964 82.9506 90.5964C92.459 90.5964 102.919 88.6292 112.537 84.5468C113.989 83.9296 115.205 85.4982 113.784 86.5526Z" fill="black"/>
<path opacity="0.5" fill-rule="evenodd" clip-rule="evenodd" d="M117.347 82.469C116.254 81.0674 110.095 81.8067 107.33 82.1346C106.488 82.2375 106.36 81.5045 107.118 80.9774C112.023 77.5251 120.073 78.5216 121.011 79.6788C121.95 80.8424 120.767 88.9107 116.157 92.7616C115.45 93.3531 114.775 93.0381 115.09 92.2537C116.125 89.6694 118.446 83.8769 117.347 82.469Z" fill="black"/>
<path opacity="0.5" fill-rule="evenodd" clip-rule="evenodd" d="M107.526 56.6064V53.2505C107.526 52.7426 107.912 52.4018 108.375 52.4018H123.399C123.882 52.4018 124.267 52.7489 124.267 53.2505V56.1241C124.261 56.6064 123.856 57.2364 123.136 58.2329L115.35 69.3485C118.243 69.2779 121.297 69.7086 123.92 71.1873C124.512 71.5215 124.672 72.0102 124.717 72.4923V76.0732C124.717 76.5618 124.177 77.134 123.612 76.8383C118.989 74.4146 112.85 74.151 107.738 76.864C107.218 77.147 106.671 76.5811 106.671 76.0926V72.6917C106.671 72.1452 106.678 71.213 107.224 70.3837L116.244 57.4486H108.394C107.912 57.4486 107.526 57.1079 107.526 56.6064ZM52.7195 77.5454H48.1485C47.7113 77.5134 47.3642 77.1855 47.332 76.7675V53.3084C47.332 52.839 47.7242 52.4661 48.2127 52.4661H52.4751C52.9188 52.4853 53.2724 52.8262 53.3046 53.2503V56.3172H53.3882C54.5003 53.3534 56.5897 51.9713 59.4056 51.9713C62.2664 51.9713 64.0537 53.3534 65.3396 56.3172C66.4453 53.3534 68.9591 51.9713 71.6528 51.9713C73.5685 51.9713 75.6644 52.7621 76.9437 54.5364C78.3902 56.5101 78.0946 59.3774 78.0946 61.8911L78.0881 76.6969C78.0881 77.1663 77.6959 77.5456 77.2074 77.5456H72.6428C72.1864 77.5135 71.8199 77.1471 71.8199 76.6969V64.2633C71.8199 63.2732 71.91 60.8044 71.6914 59.8659C71.3506 58.2908 70.3285 57.8471 69.004 57.8471C67.8982 57.8471 66.741 58.5865 66.2716 59.7695C65.8024 60.9525 65.8475 62.9325 65.8475 64.2633V76.6968C65.8475 77.1662 65.4552 77.5454 64.9666 77.5454H60.4021C59.9392 77.5134 59.5791 77.147 59.5791 76.6968L59.5728 64.2633C59.5728 61.6466 60.0034 57.7959 56.7569 57.7959C53.4717 57.7959 53.6002 61.5502 53.6002 64.2633V76.6968C53.6002 77.1662 53.2081 77.5454 52.7195 77.5454ZM137.202 51.9712C143.985 51.9712 147.656 57.7957 147.656 65.2019C147.656 72.3573 143.599 78.0341 137.202 78.0341C130.542 78.0341 126.916 72.2095 126.916 64.9511C126.916 57.6479 130.587 51.9712 137.202 51.9712ZM137.241 56.7607C133.872 56.7607 133.66 61.351 133.66 64.2118C133.66 67.0792 133.615 73.1994 137.202 73.1994C140.745 73.1994 140.912 68.2621 140.912 65.2533C140.912 63.2732 140.828 60.9073 140.23 59.0301C139.716 57.3971 138.694 56.7607 137.241 56.7607M156.451 77.5454H151.899C151.443 77.5134 151.076 77.147 151.076 76.6968L151.07 53.2311C151.108 52.8005 151.488 52.4661 151.95 52.4661H156.187C156.586 52.4853 156.914 52.7556 157.003 53.1218V56.7093H157.087C158.367 53.5013 160.16 51.9712 163.317 51.9712C165.368 51.9712 167.367 52.7104 168.653 54.7355C169.849 56.6127 169.849 59.7695 169.849 62.0389V76.8061C169.797 77.2176 169.418 77.5454 168.968 77.5454H164.384C163.966 77.5134 163.619 77.2047 163.574 76.8061V64.0639C163.574 61.4988 163.87 57.7442 160.713 57.7442C159.601 57.7442 158.579 58.49 158.071 59.6215C157.428 61.0553 157.344 62.4824 157.344 64.0641V76.6968C157.338 77.1662 156.939 77.5454 156.451 77.5454ZM95.5491 66.3399C95.5491 68.1206 95.5942 69.6058 94.694 71.1871C93.9676 72.4731 92.8105 73.2637 91.531 73.2637C89.776 73.2637 88.7473 71.9266 88.7473 69.9529C88.7473 66.0569 92.2383 65.3497 95.5491 65.3497V66.3399ZM100.159 77.4812C99.8566 77.7512 99.4194 77.7705 99.0787 77.5905C97.5614 76.3304 97.285 75.7454 96.4557 74.5431C93.9483 77.1019 92.1676 77.867 88.9209 77.867C85.0699 77.867 82.0805 75.4946 82.0805 70.7438C82.0805 67.0342 84.0863 64.5076 86.9536 63.2732C89.4353 62.1803 92.9004 61.9874 95.5493 61.6852V61.0938C95.5493 60.0073 95.6327 58.7215 94.9898 57.7829C94.437 56.9407 93.3696 56.5935 92.4247 56.5935C90.6824 56.5935 89.1331 57.487 88.7538 59.3387C88.6766 59.7501 88.3744 60.1551 87.9566 60.1745L83.527 59.6987C83.1542 59.6151 82.7362 59.313 82.8455 58.7408C83.8614 53.3663 88.7216 51.7461 93.0678 51.7461C95.2922 51.7461 98.198 52.3376 99.9532 54.022C102.177 56.0986 101.965 58.8693 101.965 61.8846V69.0078C101.965 71.1487 102.853 72.0872 103.688 73.2445C103.978 73.656 104.042 74.151 103.669 74.4595C102.737 75.2374 101.078 76.6839 100.165 77.494L100.159 77.4812M35.6249 66.3399C35.6249 68.1206 35.6699 69.6058 34.7698 71.1871C34.0434 72.4731 32.8926 73.2637 31.6068 73.2637C29.8518 73.2637 28.8294 71.9266 28.8294 69.9529C28.8294 66.0569 32.3204 65.3497 35.6249 65.3497V66.3399ZM40.2344 77.4812C39.9323 77.7512 39.4952 77.7705 39.1545 77.5905C37.6372 76.3304 37.3671 75.7454 36.5314 74.5431C34.0241 77.1019 32.2498 77.867 28.9966 77.867C25.1522 77.867 22.1562 75.4946 22.1562 70.7438C22.1562 67.0342 24.1686 64.5076 27.0294 63.2732C29.511 62.1803 32.9762 61.9874 35.6249 61.6852V61.0938C35.6249 60.0073 35.7085 58.7215 35.0719 57.7829C34.5126 56.9407 33.4456 56.5935 32.5068 56.5935C30.7646 56.5935 29.2089 57.487 28.8294 59.3387C28.7523 59.7501 28.4502 60.1551 28.0387 60.1745L23.6027 59.6987C23.2298 59.6151 22.8185 59.313 22.9213 58.7408C23.9435 53.3663 28.7974 51.7461 33.1434 51.7461C35.3676 51.7461 38.2736 52.3376 40.0288 54.022C42.253 56.0986 42.041 58.8693 42.041 61.8846V69.0078C42.041 71.1487 42.9281 72.0872 43.7639 73.2445C44.0598 73.656 44.124 74.151 43.7511 74.4595C42.8188 75.2374 41.1603 76.6839 40.2474 77.494L40.2345 77.4812" fill="black"/>
</svg>
