<svg width="110" height="110" viewBox="0 0 110 110" fill="none" xmlns="http://www.w3.org/2000/svg">
<circle cx="55" cy="55" r="55" fill="url(#paint0_linear_119_2213)"/>
<path d="M26.0991 77.6844C26.853 78.6165 27.1699 79.6496 27.05 80.784C26.9301 81.9183 26.4098 82.8577 25.4893 83.6022C24.563 84.3514 23.517 84.6644 22.3515 84.5411C21.1755 84.4168 20.22 83.9001 19.4848 82.9911C18.7402 82.0705 18.4296 81.0275 18.5528 79.8619C18.676 78.6964 19.1951 77.7437 20.1099 77.0038C21.0247 76.264 22.062 75.958 23.2217 76.0859C24.3815 76.2137 25.3407 76.7466 26.0991 77.6844ZM25.7507 80.6071C25.8354 79.8058 25.6195 79.0859 25.103 78.4472C24.5865 77.8086 23.9328 77.4475 23.1419 77.3638C22.3406 77.2791 21.612 77.502 20.9561 78.0325C20.2887 78.5722 19.9126 79.2428 19.8279 80.0441C19.7432 80.8454 19.9567 81.5625 20.4686 82.1954C20.9851 82.834 21.6446 83.1905 22.447 83.2648C23.2379 83.3484 23.967 83.1203 24.6344 82.5806C25.2903 82.0501 25.6624 81.3923 25.7507 80.6071Z" fill="white"/>
<path d="M17.7491 68.361L12.6187 70.6187L12.109 69.4605L19.6167 66.1567L19.9207 66.8476L16.722 73.3847L21.8118 71.145L22.3215 72.3031L14.8137 75.6069L14.5455 74.9973L17.7491 68.361Z" fill="white"/>
<path d="M18.0491 57.9915L19.0482 63.507L10.9771 64.9691L10.7496 63.7131L17.6084 62.4706L16.8368 58.2111L18.0491 57.9915Z" fill="white"/>
<path d="M10.0417 50.5707L10.1053 49.1292L15.2593 52.1785L18.1756 52.3071L18.1194 53.5823L15.2031 53.4537L9.80213 56.0042L9.8657 54.5627L13.923 52.7529L10.0417 50.5707Z" fill="white"/>
<path d="M20.6702 41.376L14.2125 38.7817L13.3187 41.0063L12.1652 40.5429L14.4368 34.8886L15.5903 35.352L14.6966 37.5766L21.1543 40.171L20.6702 41.376Z" fill="white"/>
<path d="M26.5921 31.0751L25.7219 32.3491L21.9371 32.1834L21.3236 33.0816L23.9816 34.8971L23.2616 35.9511L16.4883 31.3248L18.1223 28.9326C18.6022 28.2299 19.1732 27.8269 19.8353 27.7235C20.5034 27.6243 21.1186 27.7666 21.6807 28.1506C22.139 28.4636 22.4566 28.8777 22.6334 29.3928C22.8084 29.8976 22.7972 30.4321 22.6 30.9963L26.5921 31.0751ZM19.1213 29.615L18.2073 30.9531L20.3429 32.4118L21.1442 31.2386C21.4238 30.8292 21.5389 30.4508 21.4894 30.1034C21.438 29.7457 21.2504 29.4562 20.9266 29.235C20.6211 29.0264 20.3038 28.953 19.9747 29.015C19.6395 29.0728 19.355 29.2728 19.1213 29.615Z" fill="white"/>
<path d="M30.6741 27.3439C30.0106 27.9451 29.2913 28.2424 28.5164 28.2357C27.7518 28.2295 27.0515 27.8754 26.4155 27.1736L22.8157 23.2009L23.7616 22.3438L27.2496 26.1931C27.662 26.6482 28.0899 26.8945 28.5334 26.9321C28.9823 26.9647 29.4151 26.7921 29.8319 26.4145C30.2376 26.0468 30.4439 25.6353 30.4506 25.1798C30.4573 24.7244 30.2594 24.2746 29.8569 23.8305L26.3689 19.9812L27.323 19.1166L30.9228 23.0893C31.5638 23.7966 31.8498 24.531 31.7809 25.2925C31.712 26.0539 31.343 26.7377 30.6741 27.3439Z" fill="white"/>
<path d="M37.3032 22.6659C36.7745 22.9637 36.2155 23.1171 35.6262 23.1263C35.0333 23.1291 34.484 22.9756 33.9783 22.6659L34.3242 21.5157C34.7173 21.7614 35.1213 21.8905 35.5361 21.9032C35.9573 21.9123 36.3484 21.8151 36.7095 21.6118C37.0705 21.4084 37.3112 21.1497 37.4316 20.8356C37.5519 20.5216 37.534 20.2259 37.3779 19.9487C37.1745 19.5876 36.7667 19.4139 36.1545 19.4275C36.0057 19.4349 35.704 19.4647 35.2494 19.5169C34.7609 19.5543 34.4106 19.5732 34.1986 19.5737C33.2332 19.5484 32.5471 19.1747 32.1404 18.4526C31.8209 17.8853 31.7621 17.2984 31.9641 16.6921C32.169 16.0756 32.6034 15.5804 33.2675 15.2064C34.1701 14.698 35.0879 14.6312 36.0209 15.006L35.7645 16.1567C35.0953 15.8882 34.464 15.921 33.8709 16.2551C33.555 16.433 33.3425 16.6589 33.2334 16.9326C33.1271 17.1963 33.1484 17.4603 33.2973 17.7246C33.4897 18.0664 33.8494 18.2375 34.3762 18.238C34.6543 18.2342 34.9963 18.2157 35.4022 18.1824C35.867 18.133 36.2402 18.1096 36.522 18.1123C37.4757 18.1017 38.1595 18.4639 38.5734 19.1989C38.9148 19.8049 38.9691 20.4367 38.7365 21.0943C38.4966 21.739 38.0188 22.2628 37.3032 22.6659Z" fill="white"/>
<path d="M43.3174 19.8604L42.0919 20.2176L39.7966 12.3428L41.0221 11.9856L41.9756 15.257L45.7265 14.1637L44.773 10.8923L45.9984 10.5351L48.2937 18.4099L47.0683 18.7671L46.0713 15.3465L42.3204 16.4398L43.3174 19.8604Z" fill="white"/>
<path d="M52.8017 18.0469L52.4239 11.0978L50.03 11.2279L49.9625 9.98659L56.0471 9.65581L56.1146 10.8971L53.7207 11.0273L54.0984 17.9764L52.8017 18.0469Z" fill="white"/>
<path d="M64.0048 18.9362L58.8193 18.1159L60.1009 10.0141L65.2755 10.8327L65.0865 12.0277L61.1727 11.4086L60.8241 13.6121L64.4529 14.1862L64.2638 15.3812L60.635 14.8071L60.2691 17.1203L64.1939 17.7412L64.0048 18.9362Z" fill="white"/>
<path d="M69.4236 20.8915L66.6543 19.7459L69.7898 12.1663L72.6514 13.3501C73.7522 13.8055 74.4724 14.5038 74.8117 15.445C75.1648 16.3918 75.0994 17.4498 74.6158 18.6191C74.1377 19.7746 73.4325 20.5599 72.5001 20.975C71.5704 21.3832 70.545 21.3554 69.4236 20.8915ZM70.5026 13.7825L68.3005 19.1056L69.9416 19.7845C70.68 20.09 71.3576 20.078 71.9744 19.7486C72.598 19.422 73.0724 18.8655 73.3977 18.0792C73.7145 17.3133 73.7676 16.5946 73.557 15.9229C73.3532 15.254 72.8855 14.7683 72.1539 14.4656L70.5026 13.7825Z" fill="white"/>
<path d="M81.2964 29.079C80.4381 28.2528 79.9904 27.2774 79.9533 26.153C79.9161 25.018 80.3208 24.0108 81.1676 23.1312C82.0297 22.2356 83.0364 21.7873 84.1877 21.7864C85.3442 21.7801 86.3462 22.1849 87.1938 23.0009C87.7216 23.5089 88.1018 24.1009 88.3344 24.7768C88.5669 25.4422 88.6263 26.09 88.5127 26.7202L87.2874 26.6807C87.4232 25.5687 87.1126 24.6483 86.3556 23.9196C85.7586 23.3448 85.052 23.0652 84.2359 23.0807C83.42 23.1067 82.7144 23.4289 82.1191 24.0472C81.5187 24.671 81.2286 25.3777 81.2489 26.1676C81.2744 26.9625 81.5884 27.65 82.1908 28.2299C82.9745 28.9843 83.9168 29.2751 85.0177 29.1024L85.1191 30.3094C84.462 30.4265 83.7938 30.3791 83.1147 30.1669C82.4356 29.9548 81.8295 29.5922 81.2964 29.079Z" fill="white"/>
<path d="M86.9046 36.4712C86.2894 35.4423 86.1209 34.3748 86.3993 33.2686C86.6776 32.1625 87.3248 31.3056 88.341 30.698C89.3635 30.0866 90.443 29.9239 91.5797 30.2099C92.7264 30.4984 93.5998 31.1444 94.1998 32.1479C94.8074 33.164 94.9682 34.2404 94.6822 35.377C94.3962 36.5136 93.7483 37.3838 92.7385 37.9876C91.7287 38.5914 90.6587 38.7484 89.5284 38.4586C88.3982 38.1689 87.5235 37.5064 86.9046 36.4712ZM87.6608 33.6265C87.4642 34.4079 87.5766 35.1511 87.9981 35.8561C88.4196 36.561 89.016 37.0105 89.7873 37.2046C90.5687 37.4012 91.3215 37.2831 92.0455 36.8502C92.7822 36.4097 93.2488 35.7987 93.4454 35.0173C93.6421 34.2359 93.5315 33.4958 93.1138 32.7972C92.6923 32.0923 92.0895 31.6466 91.3056 31.4601C90.5343 31.266 89.7803 31.3893 89.0436 31.8298C88.3196 32.2627 87.8586 32.8616 87.6608 33.6265Z" fill="white"/>
<path d="M90.2541 43.516L89.9346 42.2917L97.8713 40.2204L98.0478 40.897L94.0516 45.496L99.78 47.5342L99.9621 48.2323L92.0255 50.3035L91.7003 49.0577L96.7803 47.732L92.3244 46.1303L92.2291 45.7652L95.334 42.1903L90.2541 43.516Z" fill="white"/>
<path d="M100.194 52.8223L100.199 55.6527C100.2 56.548 99.9464 57.2256 99.4366 57.6853C98.9343 58.1524 98.3243 58.3866 97.6065 58.3879C96.8961 58.3892 96.2889 58.1498 95.7849 57.6698C95.2882 57.1971 95.0391 56.4909 95.0373 55.5511L95.0347 54.1082L91.9934 54.1138L91.9911 52.8373L100.194 52.8223ZM96.2112 54.106L96.2139 55.5823C96.2148 56.0558 96.3487 56.4256 96.6155 56.6915C96.8898 56.9574 97.2267 57.0899 97.6263 57.0892C98.0259 57.0885 98.355 56.9658 98.6135 56.7211C98.872 56.4765 99.0009 56.1395 99.0001 55.7104L98.9972 54.1009L96.2112 54.106Z" fill="white"/>
<path d="M90.1743 67.1233L90.4766 65.7805L92.618 65.4663L93.2811 62.5209L91.481 61.3192L91.7833 59.9765L99.0688 64.9617L98.8859 65.7738L90.1743 67.1233ZM93.8512 65.3457L96.997 64.9162L94.3387 63.18L93.8512 65.3457Z" fill="white"/>
<path d="M89.2124 75.0274L94.228 77.53L93.663 78.6623L86.3235 75L86.6605 74.3247L93.7325 72.6063L88.7567 70.1235L89.3216 68.9913L96.6612 72.6536L96.3639 73.2495L89.2124 75.0274Z" fill="white"/>
<path d="M87.921 85.9689L86.9868 87.0686L84.7855 81.4994L82.5607 79.6094L83.3871 78.6366L85.6119 80.5266L91.4422 81.8239L90.508 82.9236L86.1933 81.8651L87.921 85.9689Z" fill="white"/>
<rect x="50.25" y="87.25" width="9.5" height="14.5" rx="4.75" stroke="white" stroke-width="0.5"/>
<rect x="54.4443" y="90.334" width="1.11111" height="2.77778" rx="0.555556" fill="white"/>
<path d="M55.002 35.002L56.135 41.8808C57.1484 48.0333 61.9706 52.8555 68.1231 53.8689L75.002 55.002L68.1231 56.135C61.9706 57.1484 57.1484 61.9706 56.135 68.1231L55.002 75.002L53.8689 68.1231C52.8555 61.9706 48.0333 57.1484 41.8808 56.135L35.002 55.002L41.8808 53.8689C48.0333 52.8555 52.8555 48.0333 53.8689 41.8808L55.002 35.002Z" fill="white"/>
<defs>
<linearGradient id="paint0_linear_119_2213" x1="20.5" y1="15.5" x2="92.5" y2="91" gradientUnits="userSpaceOnUse">
<stop stop-color="#FF3E3E"/>
<stop offset="1" stop-color="#FFA572"/>
</linearGradient>
</defs>
</svg>
