<svg width="37" height="31" viewBox="0 0 37 31" fill="none" xmlns="http://www.w3.org/2000/svg">
<path opacity="0.4" d="M20.726 5.89988V6.17804C19.8264 6.1634 18.9269 6.1634 18.0273 6.1634V5.91452C18.0273 4.90437 17.0018 4.08453 15.7784 4.08453H13.9972C11.9642 4.08453 10.3089 2.73766 10.3089 1.09799C10.3089 0.497757 10.9207 0 11.6583 0C12.4139 0 13.0077 0.497757 13.0077 1.09799C13.0077 1.53719 13.4575 1.88855 13.9972 1.88855H15.7784C18.4951 1.90319 20.708 3.7039 20.726 5.89988" fill="#D5FF40"/>
<path fill-rule="evenodd" clip-rule="evenodd" d="M24.134 6.20417C24.7117 6.21074 25.2907 6.21732 25.8718 6.22225C32.1148 6.22225 36.6667 9.9115 36.6667 15.0062V21.5502C36.6667 26.6449 32.1148 30.3342 25.8718 30.3342C23.371 30.3781 20.8701 30.3927 18.3513 30.3927C15.8325 30.3927 13.2957 30.3781 10.7949 30.3342C4.55185 30.3342 0 26.6449 0 21.5502V15.0062C0 9.9115 4.55185 6.22225 10.8129 6.22225C13.1698 6.19297 15.5806 6.16369 18.0275 6.16369C18.9271 6.16369 19.8266 6.16369 20.7262 6.17833C21.8604 6.17833 22.9946 6.19122 24.134 6.20417ZM16.2283 19.3689H14.3392V20.9207C14.3392 21.5209 13.7275 22.0187 12.9899 22.0187C12.2342 22.0187 11.6405 21.5209 11.6405 20.9207V19.3689H9.7334C8.99575 19.3689 8.38404 18.8858 8.38404 18.2709C8.38404 17.6707 8.99575 17.1729 9.7334 17.1729H11.6405V15.6357C11.6405 15.0355 12.2342 14.5377 12.9899 14.5377C13.7275 14.5377 14.3392 15.0355 14.3392 15.6357V17.1729H16.2283C16.966 17.1729 17.5777 17.6707 17.5777 18.2709C17.5777 18.8858 16.966 19.3689 16.2283 19.3689ZM23.8747 16.8947H24.0546C24.7923 16.8947 25.404 16.4116 25.404 15.7967C25.404 15.1965 24.7923 14.6988 24.0546 14.6988H23.8747C23.1191 14.6988 22.5254 15.1965 22.5254 15.7967C22.5254 16.4116 23.1191 16.8947 23.8747 16.8947ZM26.9513 21.9309H27.1312C27.8688 21.9309 28.4805 21.4477 28.4805 20.8329C28.4805 20.2326 27.8688 19.7349 27.1312 19.7349H26.9513C26.1956 19.7349 25.6019 20.2326 25.6019 20.8329C25.6019 21.4477 26.1956 21.9309 26.9513 21.9309Z" fill="#D5FF40"/>
</svg>
