<svg width="32" height="32" viewBox="0 0 32 32" fill="none" xmlns="http://www.w3.org/2000/svg">
<path d="M8.02056 23.1301H10.9852V15.9303L6.75 12.7539V21.8596C6.75 22.5626 7.31963 23.1301 8.02056 23.1301Z" fill="white"/>
<path d="M21.1484 23.1301H24.1131C24.8161 23.1301 25.3836 22.5605 25.3836 21.8596V12.7539L21.1484 15.9303" fill="white"/>
<path d="M21.1484 10.4246V15.9303L25.3836 12.7539V11.0598C25.3836 9.48857 23.59 8.59283 22.3343 9.53516" fill="white"/>
<path d="M10.9844 15.9296V10.4238L16.0666 14.2355L21.1488 10.4238V15.9296L16.0666 19.7412" fill="white"/>
<path d="M6.75 11.0598V12.7539L10.9852 15.9303V10.4246L9.79933 9.53516C8.54148 8.59283 6.75 9.48857 6.75 11.0598Z" fill="white"/>
</svg>
