<svg width="183" height="183" viewBox="0 0 183 183" fill="none" xmlns="http://www.w3.org/2000/svg">
<path fill-rule="evenodd" clip-rule="evenodd" d="M88.4455 25.6884C88.4085 25.6919 88.3733 25.6919 88.3364 25.6919C87.4143 25.6919 86.6384 24.9722 86.5821 24.0378L85.8782 12.4244C85.8201 11.4531 86.5592 10.619 87.5287 10.561C88.5053 10.5117 89.3341 11.2402 89.3922 12.2115L90.096 23.8249C90.1541 24.7962 89.415 25.6303 88.4455 25.6884ZM97.2354 38.0787C97.4343 38.1527 97.6384 38.1861 97.839 38.1861C98.5569 38.1861 99.2326 37.7427 99.4913 37.0283L107.058 16.2648C107.39 15.3516 106.92 14.3415 106.007 14.009C105.09 13.6764 104.082 14.148 103.751 15.0595L96.1849 35.8229C95.8524 36.7362 96.3222 37.7462 97.2354 38.0787ZM79.3622 35.0186C78.7656 35.0186 78.1832 34.7142 77.8524 34.1652L70.462 21.8461C69.9623 21.0121 70.2315 19.9317 71.0656 19.4319C71.8996 18.934 72.98 19.2014 73.4798 20.0355L80.8701 32.3528C81.3699 33.1868 81.1007 34.2673 80.2666 34.767C79.9833 34.9377 79.6701 35.0186 79.3622 35.0186ZM132.597 117.859L155.648 155.691C156.155 156.522 155.893 157.604 155.062 158.109C154.232 158.617 153.148 158.353 152.645 157.523L130.518 121.206L102.355 138.707L116.414 162.031C116.916 162.865 116.648 163.945 115.816 164.447C115.531 164.619 115.218 164.7 114.908 164.7C114.313 164.7 113.731 164.399 113.4 163.85L98.4433 139.04C97.9471 138.215 98.204 137.145 99.0205 136.636L103.119 134.09L92.0084 113.647C91.2747 115.443 90.6042 116.914 90.0394 117.895L79.6366 135.909L82.4924 137.928C82.8813 138.202 83.1417 138.623 83.2156 139.096C83.2878 139.568 83.1664 140.048 82.8778 140.43L58.947 171.925C58.6021 172.379 58.076 172.62 57.5446 172.62C57.2015 172.62 56.8583 172.52 56.5486 172.318L29.0987 153.666C28.3051 153.126 28.0904 152.05 28.6148 151.246L50.61 117.638C50.8721 117.238 51.2839 116.962 51.7537 116.872C52.2218 116.786 52.7074 116.89 53.098 117.164L55.7938 119.07C57.5164 110.594 58.1147 102.968 57.5446 96.4078C57.0783 89.2673 54.4565 82.8641 49.2867 76.2198C49.1477 76.0526 48.8451 75.7148 48.4755 75.303C45.6742 72.1744 44.2701 70.4289 44.0255 69.162C43.7263 67.8546 44.036 65.9964 45.4349 64.9283C46.4749 64.1383 48.3752 63.5629 51.5373 65.333C52.9362 66.146 54.2348 67.0434 55.4348 67.9654L50.2387 58.3051C48.7289 56.169 49.2075 53.3676 51.3807 51.7365C53.5661 50.0948 56.6982 50.4397 58.5124 52.5142C58.5634 52.5723 58.6127 52.6339 58.6549 52.699L62.4099 58.3597L58.9171 47.8794C58.2361 46.6301 58.0936 45.1274 58.5317 43.725C58.9875 42.2645 60.0292 41.0732 61.3893 40.4556C62.7988 39.7465 64.5391 39.6444 66.1104 40.1987C67.5674 40.7143 68.7481 41.7683 69.3481 43.088L74.5847 57.4306L74.085 50.6315C73.6134 47.8477 75.6299 45.1045 78.6934 44.5485C81.8238 44.2616 84.5494 46.4383 84.8081 49.2871L87.5513 84.6378L90.5215 79.688C91.6459 77.9178 94.9962 72.6495 100.15 75.7412L101.03 76.269C102.691 77.2667 103.441 79.2006 102.848 80.9743C101.632 85.1797 97.2908 99.496 93.6537 109.374C93.6662 109.393 93.6819 109.409 93.6976 109.425L93.6978 109.425L93.6978 109.426C93.7173 109.445 93.7368 109.465 93.7504 109.491L106.11 132.23L123.249 121.579L115.908 103.061C114.007 98.4138 115.339 93.0804 119.226 89.8058L133.664 77.8316C134.287 77.2949 134.266 76.5136 134.03 75.9664C133.912 75.6989 133.446 74.8191 132.332 74.9529C129.86 75.2437 125.542 77.4131 124.095 78.1406L124.076 78.1501L117.451 81.4634C116.72 81.8312 115.832 81.6429 115.311 81.0147C114.788 80.3865 114.767 79.4821 115.26 78.8293L132.154 56.4822C132.71 55.8276 132.71 54.8616 132.221 54.2897C131.804 53.7688 131.32 53.6685 130.98 53.6685C130.416 53.6685 129.852 53.9483 129.478 54.4181L116.281 70.9568C115.677 71.7169 114.57 71.8436 113.808 71.2348C113.261 70.7966 113.059 70.1016 113.207 69.4611C113.148 69.1408 113.147 68.81 113.279 68.488L123.484 43.5015C123.676 43.0739 123.683 42.729 123.53 42.4123C123.319 41.9759 122.832 41.6257 122.225 41.4744C121.475 41.3037 120.344 41.8017 120 42.4897L109.128 67.2211C108.739 68.1097 107.704 68.5162 106.81 68.1238C106.096 67.8106 105.718 67.0803 105.79 66.3448C105.79 66.3103 105.785 66.2768 105.781 66.2432C105.774 66.1963 105.768 66.1495 105.774 66.1002L108.589 45.3368C108.605 45.2277 108.628 45.1203 108.663 45.0165C108.779 44.6664 108.649 44.3584 108.561 44.2071C108.382 43.8956 108.067 43.6757 107.701 43.6018C106.904 43.4258 106.096 43.8569 105.851 44.3602L100.43 66.7495C100.384 66.9343 100.307 67.1015 100.212 67.2545C100.209 67.2604 100.207 67.2665 100.205 67.2726L100.205 67.2727C100.202 67.2812 100.199 67.2896 100.194 67.2968C100.078 67.4745 99.9285 67.6241 99.7595 67.7472C99.7274 67.7708 99.6907 67.7885 99.6537 67.8063L99.6537 67.8063C99.63 67.8177 99.6062 67.8292 99.5836 67.8422C99.4534 67.9162 99.3214 67.9795 99.1771 68.0182C99.1624 68.0223 99.1492 68.0294 99.1359 68.0366C99.1206 68.0448 99.1052 68.0532 99.0873 68.0569C99.06 68.0626 99.0332 68.0607 99.0064 68.0587C98.9831 68.0571 98.9597 68.0554 98.936 68.0587C98.9089 68.0626 98.8822 68.0689 98.8556 68.0751C98.8115 68.0854 98.7675 68.0956 98.7214 68.0956C98.6577 68.0956 98.593 68.0851 98.5289 68.0746C98.5061 68.0709 98.4835 68.0672 98.4609 68.064C98.4459 68.0617 98.4312 68.0604 98.4166 68.0591L98.4165 68.0591C98.3968 68.0574 98.3773 68.0557 98.3571 68.0516C98.3483 68.0499 98.34 68.0494 98.3316 68.049L98.3224 68.0485C98.3171 68.0481 98.3117 68.0475 98.3061 68.0464C98.2561 68.0347 98.2132 68.0108 98.17 67.9867C98.1417 67.9709 98.1133 67.9551 98.0826 67.9425L98.0271 67.921L98.0266 67.9208L98.0261 67.9206C97.9203 67.8798 97.8163 67.8396 97.7236 67.7754C97.6557 67.7284 97.6004 67.6688 97.5448 67.6088L97.5224 67.5847C97.5104 67.5719 97.4984 67.5592 97.4861 67.5466L97.4682 67.5289L97.434 67.4957L97.434 67.4956C97.3695 67.4332 97.3055 67.3712 97.2556 67.295C97.1983 67.2062 97.1632 67.1082 97.1274 67.0083L97.1274 67.0082L97.1272 67.0077L97.1128 66.9677L97.1025 66.9396C97.0904 66.9068 97.0743 66.8764 97.0582 66.846C97.0345 66.8013 97.0109 66.7569 97.0005 66.7055L94.1833 53.5084C94.1587 53.3888 94.1446 53.2656 94.1446 53.1424C94.1446 52.8591 93.849 52.4386 93.4425 52.4386C93.073 52.4386 92.7439 52.6814 92.568 52.9665L92.9164 71.9386C92.934 72.9099 92.1597 73.7123 91.1884 73.7299H91.155C90.1978 73.7299 89.413 72.9627 89.3954 72.002L89.0435 52.6462C89.04 52.4474 89.0699 52.2485 89.1332 52.0585C89.7491 50.2091 91.521 48.9193 93.4425 48.9193C95.6596 48.9193 97.5442 50.7353 97.6585 52.9313L98.8287 58.4178L102.464 43.403C102.48 43.3343 102.501 43.2657 102.526 43.1988C103.354 40.9888 106.004 39.6198 108.427 40.1635C109.747 40.4274 110.919 41.2615 111.605 42.444C112.232 43.5191 112.392 44.7895 112.057 45.9544L110.908 54.4375L116.817 40.9976C117.924 38.7804 120.629 37.517 123.032 38.052C124.711 38.469 126.031 39.4984 126.699 40.8832C127.312 42.1483 127.317 43.5736 126.715 44.8951L120.57 59.9398L126.729 52.2204C127.783 50.9024 129.332 50.1476 130.98 50.1476H130.982C132.529 50.1476 133.968 50.8373 134.932 52.0427C136.5 53.8709 136.502 56.8095 134.896 58.6852L122.601 74.9529C125.531 73.4818 129.212 71.7767 131.945 71.4547C134.257 71.2172 136.344 72.4348 137.264 74.5745C138.182 76.7072 137.66 79.0404 135.934 80.5203L121.485 92.505C118.779 94.782 117.848 98.4983 119.175 101.747L126.289 119.689L130.166 117.28C130.565 117.034 131.047 116.953 131.503 117.064C131.96 117.171 132.353 117.458 132.597 117.859ZM76.749 133.87L86.99 116.137C90.0957 110.745 97.2415 87.7083 99.4938 79.9308C99.6047 79.6 99.3636 79.3712 99.2246 79.2885L98.3448 78.7607L98.3432 78.7597C97.3563 78.1686 96.1333 77.4361 93.5199 81.5409L87.7378 91.18C87.3437 91.8364 86.573 92.1619 85.8251 91.9859C85.0791 91.81 84.5336 91.173 84.4737 90.4093L81.3064 49.5862C81.2554 49.032 80.8595 48.6501 80.629 48.4724C80.2067 48.1486 79.6735 47.9885 79.1738 48.036C78.3432 48.1944 77.3948 49.0865 77.5831 50.2162L79.0101 69.5561C79.0132 69.5975 79.0052 69.6354 78.9972 69.6735L78.9972 69.6735C78.9912 69.7018 78.9852 69.7302 78.9837 69.7602C79.0277 70.5151 78.6054 71.2418 77.8576 71.5146C76.9444 71.8471 75.9343 71.3773 75.6018 70.4641L66.0998 44.4218C65.945 44.0927 65.5033 43.7179 64.942 43.5191C64.2698 43.2815 63.5308 43.322 62.9097 43.6317C62.2357 43.9379 61.9894 44.4763 61.8979 44.7719C61.736 45.2875 61.7905 45.8295 62.0457 46.2553C62.1108 46.3661 62.1653 46.4823 62.2058 46.6037L69.8725 69.6036L70.0977 69.9432C70.6344 70.7527 70.4127 71.8454 69.6032 72.3821C69.3094 72.5756 68.9821 72.639 68.6548 72.6425C68.6286 72.6459 68.6025 72.6518 68.5763 72.6577C68.5356 72.6668 68.4949 72.6759 68.4542 72.6759C67.7169 72.6759 67.0307 72.2096 66.7843 71.4723L66.6805 71.1591L55.8026 54.7577C55.1937 54.1366 54.1837 54.0381 53.4975 54.5501C52.9802 54.9372 52.6159 55.6024 53.1456 56.3097C53.1983 56.3819 53.2459 56.4558 53.2828 56.5314L64.5443 77.4709C64.5711 77.52 64.5828 77.5718 64.5947 77.6238C64.6023 77.6574 64.61 77.6911 64.6218 77.7242C64.6298 77.7472 64.6381 77.7699 64.6464 77.7925L64.647 77.7942L64.6471 77.7945C64.6786 77.8805 64.7096 77.965 64.7221 78.0551C64.7352 78.15 64.7302 78.2412 64.7251 78.3339L64.7243 78.3477L64.7221 78.3911L64.7202 78.4318C64.716 78.5287 64.7118 78.6245 64.6886 78.7202C64.6653 78.8119 64.6264 78.8952 64.5867 78.98C64.5785 78.9977 64.5701 79.0155 64.5619 79.0334C64.5533 79.0517 64.5448 79.07 64.5364 79.0881C64.4988 79.1694 64.4621 79.2489 64.4089 79.3237C64.352 79.4039 64.2794 79.4696 64.2052 79.5368L64.2051 79.5369L64.2043 79.5377C64.1892 79.5513 64.1741 79.565 64.159 79.5789C64.1339 79.6019 64.1121 79.6274 64.0903 79.6529C64.0572 79.6917 64.0241 79.7304 63.9795 79.7601C63.9664 79.7695 63.9518 79.7739 63.9371 79.7783C63.9241 79.7822 63.9109 79.7861 63.8986 79.7936C63.8865 79.8016 63.8766 79.8115 63.8668 79.8214L63.8667 79.8214C63.8551 79.8331 63.8434 79.8448 63.8282 79.8534C63.6786 79.9343 63.5202 79.9854 63.3619 80.0188L63.3549 80.0199L63.3455 80.0212C63.3362 80.0224 63.3271 80.0232 63.3179 80.0241L63.301 80.0257C63.2921 80.0266 63.2831 80.0277 63.2739 80.0293C63.2549 80.0323 63.2359 80.0354 63.2168 80.0386C63.1438 80.0506 63.0702 80.0628 62.9976 80.0628C62.9396 80.0628 62.8825 80.0524 62.825 80.0419L62.8246 80.0419C62.8003 80.0374 62.7759 80.033 62.7513 80.0293C62.7337 80.0265 62.7161 80.0248 62.6985 80.0231C62.6721 80.0206 62.6457 80.0181 62.6193 80.0117C62.424 79.9695 62.2375 79.8974 62.0668 79.79C62.0477 79.7788 62.0307 79.7647 62.0136 79.7504C62.0039 79.7424 61.9943 79.7343 61.9841 79.7267C61.8416 79.6246 61.7149 79.4997 61.6058 79.3537C61.597 79.3405 61.5851 79.3308 61.5732 79.3211L61.5731 79.321C61.5681 79.3169 61.5632 79.3129 61.5584 79.3086C61.5555 79.306 61.5527 79.3032 61.5501 79.3004C61.5467 79.2967 61.5435 79.2928 61.5407 79.2885C61.4949 79.2217 56.9041 72.5193 49.797 68.386C48.3365 67.5677 47.6608 67.6592 47.5764 67.7226C47.4849 67.793 47.4074 68.1555 47.462 68.3754C47.4778 68.4352 47.4884 68.4933 47.4972 68.5531C47.7659 69.2259 50.2685 72.022 51.0982 72.949L51.0985 72.9493L51.0986 72.9494L51.1026 72.9539C51.5091 73.4079 51.8399 73.7792 52.0335 74.0115C57.6924 81.2857 60.5483 88.3013 61.0603 96.1386C61.6903 103.395 60.9776 111.87 58.9417 121.289L76.749 133.87ZM35.5466 100.125C39.6219 100.125 42.937 96.8094 42.937 92.7341C42.937 88.6589 39.6219 85.3438 35.5466 85.3438C31.4714 85.3438 28.1562 88.6589 28.1562 92.7341C28.1562 96.8112 31.4714 100.125 35.5466 100.125ZM35.5466 88.863C37.681 88.863 39.4178 90.5997 39.4178 92.7341C39.4178 94.8686 37.681 96.6053 35.5466 96.6053C33.4122 96.6053 31.6755 94.8686 31.6755 92.7341C31.6755 90.5997 33.4122 88.863 35.5466 88.863ZM139.393 90.1327C139.479 89.6594 139.756 89.2406 140.159 88.9749C140.56 88.7109 141.052 88.623 141.527 88.7303L149.569 90.599L151.007 82.3992C151.175 81.442 152.09 80.8015 153.044 80.9704C154 81.1393 154.64 82.0508 154.473 83.008L152.713 93.0378C152.629 93.5129 152.353 93.9335 151.95 94.2009C151.547 94.4684 151.054 94.5564 150.581 94.4473L142.53 92.5786L141.274 99.5554C141.121 100.407 140.38 101.004 139.544 101.004C139.441 101.004 139.337 100.995 139.231 100.975C138.274 100.803 137.637 99.888 137.809 98.9325L139.393 90.1327ZM34.3168 52.6141C36.6501 52.6141 38.5399 50.7243 38.5399 48.391C38.5399 46.0578 36.6501 44.168 34.3168 44.168C31.9836 44.168 30.0938 46.0578 30.0938 48.391C30.0938 50.7243 31.9853 52.6141 34.3168 52.6141ZM143.765 37.6579C143.765 39.6015 142.189 41.1771 140.246 41.1771C138.302 41.1771 136.727 39.6015 136.727 37.6579C136.727 35.7143 138.302 34.1387 140.246 34.1387C142.189 34.1387 143.765 35.7143 143.765 37.6579Z" fill="url(#paint0_linear_119_3087)"/>
<defs>
<linearGradient id="paint0_linear_119_3087" x1="92.0314" y1="10.5586" x2="92.0314" y2="214.723" gradientUnits="userSpaceOnUse">
<stop stop-color="#D5FF40"/>
<stop offset="1" stop-color="#D5FF40" stop-opacity="0"/>
</linearGradient>
</defs>
</svg>
