<svg width="53" height="26" viewBox="0 0 53 26" fill="none" xmlns="http://www.w3.org/2000/svg">
<rect opacity="0.5" x="0.5" y="0.5" width="52" height="25" rx="12.5" stroke="white"/>
<path d="M12.9998 6.33398H12.6931C12.5515 6.34447 12.4169 6.39993 12.309 6.49226C12.201 6.5846 12.1254 6.709 12.0931 6.84732C12.0603 6.98531 12.0723 7.13018 12.1275 7.26087C12.1826 7.39155 12.278 7.50124 12.3998 7.57398C12.9936 7.92615 13.4847 8.42793 13.8239 9.02923C14.1632 9.63052 14.3387 10.3103 14.3331 11.0007C14.332 11.7777 14.1046 12.5376 13.6787 13.1875C13.2527 13.8374 12.6467 14.3492 11.9347 14.6604C11.2226 14.9715 10.4354 15.0685 9.66912 14.9395C8.90285 14.8105 8.19074 14.4611 7.6198 13.934C7.51375 13.8333 7.37756 13.7703 7.23218 13.7547C7.08681 13.739 6.94032 13.7716 6.81527 13.8474C6.69023 13.9231 6.59357 14.0379 6.54018 14.174C6.48679 14.3102 6.47962 14.4601 6.5198 14.6006C6.81967 15.8136 7.45437 16.9179 8.35153 17.7875C9.24868 18.6571 10.3722 19.2572 11.5939 19.5191C12.8156 19.7811 14.0863 19.6945 15.2611 19.2691C16.4359 18.8438 17.4676 18.0968 18.2384 17.1135C19.0093 16.1301 19.4882 14.9499 19.6207 13.7075C19.7532 12.4651 19.5338 11.2104 18.9877 10.0867C18.4416 8.96287 17.5906 8.01518 16.5319 7.35166C15.4731 6.68815 14.2493 6.33552 12.9998 6.33398Z" fill="white"/>
<circle cx="40" cy="13" r="10" fill="#D5FF40"/>
</svg>
