<svg width="32" height="32" viewBox="0 0 32 32" fill="none" xmlns="http://www.w3.org/2000/svg">
<path d="M12.3172 22.4849V13.8408H9.44655V22.4849H12.3175H12.3172ZM10.8825 12.6608C11.8833 12.6608 12.5064 11.997 12.5064 11.1675C12.4876 10.3191 11.8833 9.67383 10.9015 9.67383C9.91901 9.67383 9.27734 10.3191 9.27734 11.1674C9.27734 11.9969 9.90021 12.6607 10.8636 12.6607H10.8822L10.8825 12.6608ZM13.9061 22.4849H16.7765V17.6582C16.7765 17.4002 16.7952 17.1415 16.8711 16.9572C17.0785 16.4408 17.5508 15.9063 18.344 15.9063C19.3824 15.9063 19.7981 16.6989 19.7981 17.861V22.4849H22.6684V17.5286C22.6684 14.8736 21.2525 13.6381 19.3639 13.6381C17.8155 13.6381 17.1354 14.5043 16.7576 15.0943H16.7767V13.8411H13.9062C13.9437 14.652 13.906 22.4852 13.906 22.4852L13.9061 22.4849Z" fill="white"/>
</svg>
