<svg width="74" height="60" viewBox="0 0 74 60" fill="none" xmlns="http://www.w3.org/2000/svg">
<path d="M24.5456 20.6217C24.5456 20.4693 24.5456 18.252 24.5456 18.252H23.228C23.228 18.252 23.228 20.4349 23.228 20.5038C23.228 20.9069 22.8544 21.1773 22.2251 21.1773C21.5663 21.1773 21.2074 20.9167 21.2074 20.4988C21.2074 20.43 21.2074 18.252 21.2074 18.252H19.875C19.875 18.252 19.875 20.3218 19.875 20.4988C19.875 21.6689 20.8337 22.1655 22.171 22.1655C23.6017 22.1655 24.5456 21.664 24.5456 20.6217Z" fill="#717171"/>
<path d="M28.9793 22.1114V21.0839H26.6293V18.252H25.2969V22.1114H28.9793Z" fill="#717171"/>
<path d="M32.9426 19.2206V18.252H28.3359V19.2206H29.9632V22.1114H31.3103V19.2206H32.9426Z" fill="#717171"/>
<path d="M34.7114 22.1114V18.252H33.3594V22.1114H34.7114Z" fill="#717171"/>
<path d="M40.9191 22.1114V18.252H39.2524L38.2003 20.5677L37.1974 18.252H35.4766V22.1114H36.7303V20.0269L37.6349 22.1114H38.7559L39.6703 20.0269V22.1114H40.9191Z" fill="#717171"/>
<path d="M43.0002 21.3985H45.0848L45.4241 22.1114H46.8449L44.898 18.252H43.31L41.25 22.1114H42.6413L43.0002 21.3985ZM44.6669 20.5332H43.4329L43.9196 19.604L44.0671 19.2501L44.2048 19.5991L44.6669 20.5332Z" fill="#717171"/>
<path d="M51.0284 19.2206V18.252H46.4219V19.2206H48.0492V22.1114H49.3964V19.2206H51.0284Z" fill="#717171"/>
<path d="M55.5103 22.1114V21.1527H52.7433V20.6512H55.3973V19.7122H52.7433V19.2156H55.4763V18.252H51.4453V22.1114H55.5103Z" fill="#717171"/>
<path d="M29.926 24.1621H28.6526C28.6526 24.1621 27.8217 26.5908 27.8217 26.6498C27.8217 26.5908 27.0449 24.1621 27.0449 24.1621H25.6634C25.6634 24.1621 24.8915 26.5908 24.8915 26.6498C24.8915 26.5908 24.0557 24.1621 24.0557 24.1621H22.625L24.0705 28.0215H25.511C25.511 28.0215 26.2878 25.7157 26.2927 25.6518C26.2976 25.7157 27.0695 28.0215 27.0695 28.0215H28.5149L29.926 24.1621Z" fill="#717171"/>
<path d="M31.6645 28.0215V24.1621H30.3125V28.0215H31.6645Z" fill="#717171"/>
<path d="M36.9283 28.0215V24.1621H35.6697V26.2614L33.8162 24.1621H32.4297V28.0215H33.6982V25.873L35.6107 28.0215H36.9283Z" fill="#717171"/>
<path d="M42.186 28.0215V24.1621H40.9274V26.2614L39.0739 24.1621H37.6875V28.0215H38.9559V25.873L40.8684 28.0215H42.186Z" fill="#717171"/>
<path d="M47.0268 28.0215V27.0628H44.2589V26.5613H46.9137V25.6223H44.2589V25.1257H46.9924V24.1621H42.9609V28.0215H47.0268Z" fill="#717171"/>
<path d="M52.2286 25.3371C52.2286 24.9881 52.1447 24.7373 51.9677 24.5554C51.7367 24.3096 51.3386 24.1621 50.7286 24.1621H47.6562V28.0215H48.9689V26.6597H50.1637L51.1227 28.0215H52.5877L51.4226 26.4482C51.6826 26.4089 51.8947 26.2516 52.0317 26.0648C52.1547 25.8927 52.2286 25.637 52.2286 25.3371ZM50.9506 25.46C50.9506 25.524 50.9407 25.6026 50.9057 25.6616C50.8567 25.7599 50.7287 25.7993 50.5177 25.7993H48.9739V25.0962H50.4926C50.6996 25.0962 50.8377 25.1306 50.9057 25.2585C50.9407 25.3076 50.9506 25.3863 50.9506 25.46Z" fill="#717171"/>
<path d="M25.1023 31.8195C25.1023 31.7564 25.1023 29.9336 25.1023 29.9336H24.642C24.642 29.9336 24.642 31.7489 24.642 31.7898C24.642 32.2278 24.2299 32.4766 23.6359 32.4766C22.9343 32.4766 22.589 32.2093 22.589 31.7861C22.589 31.7452 22.589 29.9336 22.589 29.9336H22.125C22.125 29.9336 22.125 31.7007 22.125 31.7712C22.125 32.5434 22.7264 32.8849 23.6174 32.8849C24.538 32.8849 25.1023 32.5211 25.1023 31.8195Z" fill="#717171"/>
<path d="M28.4021 32.8478V32.4209H26.3937V29.9336H25.9297V32.8478H28.4021Z" fill="#717171"/>
<path d="M31.0415 30.3568V29.9336H27.9453V30.3568H29.2595V32.8478H29.7273V30.3568H31.0415Z" fill="#717171"/>
<path d="M34.3396 30.7577C34.3396 30.5498 34.295 30.3976 34.2171 30.2751C34.0797 30.0709 33.8161 29.9336 33.3781 29.9336H31.4922V32.8478H31.9488V31.619H33.2778L34.0908 32.8478H34.6254L33.7456 31.541C33.9683 31.5151 34.1428 31.3888 34.2356 31.2255C34.3025 31.1141 34.3396 30.9508 34.3396 30.7577ZM33.8792 30.7948C33.8792 30.8765 33.8607 30.9768 33.8273 31.0436C33.7679 31.1512 33.6305 31.2069 33.4078 31.2106H31.9525C31.9525 31.2032 31.9525 30.3494 31.9525 30.3494H33.3224C33.6008 30.3494 33.7493 30.4162 33.8273 30.5424C33.8607 30.6018 33.8792 30.702 33.8792 30.7948Z" fill="#717171"/>
<path d="M35.6619 32.1276H37.4773L37.8485 32.8478H38.346L36.8684 29.9336H36.3227L34.7969 32.8478H35.2832L35.6619 32.1276ZM37.2842 31.7155H35.8624L36.4526 30.5981L36.5826 30.3271L36.7125 30.5981L37.2842 31.7155Z" fill="#717171"/>
<path d="M43.0586 32.5694C43.1737 32.4357 43.2257 32.2464 43.2257 32.0422C43.2257 31.8492 43.17 31.6561 43.0549 31.5373C42.9398 31.426 42.7542 31.3332 42.55 31.3146C42.6688 31.296 42.7616 31.2218 42.8247 31.1438C42.925 31.0287 42.9843 30.8431 42.9843 30.6575C42.9843 30.4607 42.925 30.2825 42.7987 30.16C42.6614 30.0227 42.4275 29.9336 42.1008 29.9336H40.1406V32.8478H42.2456C42.6391 32.8478 42.9138 32.7476 43.0586 32.5694ZM42.5054 30.7503C42.5054 30.8802 42.4646 30.9953 42.3941 31.0621C42.3235 31.1401 42.2047 31.1735 42.0785 31.1735H40.5935V30.3345H41.9931C42.1639 30.3345 42.2938 30.3679 42.3829 30.4496C42.4609 30.5238 42.5054 30.6315 42.5054 30.7503ZM42.6539 32.2872C42.5611 32.3912 42.4015 32.4432 42.1676 32.4432H40.5935V31.5782H42.1788C42.3941 31.5782 42.5426 31.6227 42.6317 31.7081C42.7133 31.7861 42.7468 31.8863 42.7468 32.0014C42.7468 32.1202 42.7208 32.2204 42.6539 32.2872Z" fill="#717171"/>
<path d="M46.5925 32.8478V32.4209H44.328V31.5893H46.5034V31.1661H44.328V30.3568H46.5665V29.9336H43.875V32.8478H46.5925Z" fill="#717171"/>
<path d="M50.2159 31.9864C50.2159 31.5112 49.9009 31.2662 49.1249 31.1771C48.9946 31.1586 48.7124 31.1289 48.5602 31.1103C47.84 31.0249 47.621 30.9284 47.621 30.6797C47.621 30.4384 47.8623 30.301 48.5899 30.301C49.1539 30.301 49.4439 30.4124 49.5889 30.6128C49.6299 30.6685 49.6519 30.7354 49.6629 30.7873H50.1599C50.1459 30.7019 50.1119 30.5831 50.0599 30.4866C49.8599 30.1414 49.4479 29.8926 48.5899 29.8926C47.5653 29.8889 47.1421 30.2602 47.1421 30.7205C47.1421 31.1808 47.4725 31.4147 48.3301 31.515C48.4786 31.5335 48.7421 31.5632 48.8721 31.5781C49.5369 31.6597 49.7449 31.76 49.7449 32.0384C49.7449 32.2946 49.5069 32.4802 48.7458 32.4802C48.1222 32.4802 47.788 32.3688 47.6544 32.1535C47.6136 32.0941 47.5876 32.0013 47.5839 31.9382H47.0938C47.1049 32.0718 47.1421 32.2166 47.2089 32.3317C47.402 32.6844 47.8549 32.8886 48.731 32.8886C49.7779 32.8886 50.2159 32.5507 50.2159 31.9864Z" fill="#717171"/>
<path d="M53.5491 30.3568V29.9336H50.4531V30.3568H51.7671V32.8478H52.2351V30.3568H53.5491Z" fill="#717171"/>
<path d="M20.8098 35.3803C20.8098 35.0833 20.7504 34.8828 20.6501 34.7306C20.5091 34.5115 20.2343 34.3965 19.7554 34.3965H17.9141V37.3107H18.3744V36.3603C18.3744 36.3603 19.6738 36.3603 19.7369 36.3603C20.1861 36.3566 20.4942 36.2527 20.6576 36.0151C20.7615 35.8703 20.8098 35.6624 20.8098 35.3803ZM20.342 35.3803C20.342 35.5287 20.3271 35.6401 20.2789 35.7144C20.1935 35.8517 20.019 35.9371 19.6589 35.9371C19.6255 35.9371 18.3744 35.9371 18.3744 35.9371V34.8123H19.6738C20.0116 34.8123 20.1861 34.8902 20.2789 35.0424C20.3234 35.1092 20.342 35.2318 20.342 35.3803Z" fill="#717171"/>
<path d="M24.1706 37.3107V36.8838H21.906V36.0522H24.0815V35.629H21.906V34.8197H24.1446V34.3965H21.4531V37.3107H24.1706Z" fill="#717171"/>
<path d="M27.7068 35.2206C27.7068 35.0127 27.6623 34.8605 27.5843 34.738C27.4469 34.5338 27.1834 34.3965 26.7453 34.3965H24.8594V37.3107H25.316V36.0819H26.6451L27.4581 37.3107H27.9927L27.1128 36.0039C27.3356 35.978 27.5101 35.8517 27.6029 35.6884C27.6697 35.577 27.7068 35.4137 27.7068 35.2206ZM27.2465 35.2577C27.2465 35.3394 27.2279 35.4397 27.1945 35.5065C27.1351 35.6141 26.9977 35.6698 26.775 35.6735H25.3197C25.3197 35.6661 25.3197 34.8123 25.3197 34.8123H26.6896C26.968 34.8123 27.1165 34.8791 27.1945 35.0053C27.2279 35.0647 27.2465 35.1649 27.2465 35.2577Z" fill="#717171"/>
<path d="M31.1538 34.8197V34.3965H28.5625V37.3107H29.0228V36.0708H31.0573V35.6364H29.0228V34.8197H31.1538Z" fill="#717171"/>
<path d="M33.2658 34.3438C32.6458 34.3438 32.2189 34.496 31.9144 34.8153C31.6583 35.064 31.5469 35.4093 31.5469 35.8436C31.5469 36.3188 31.6917 36.6752 31.959 36.9165C32.2449 37.2024 32.6829 37.3507 33.2658 37.3507C33.8672 37.3507 34.3349 37.2024 34.6134 36.9016C34.8547 36.6566 34.9809 36.3077 34.9809 35.8399C34.9809 35.387 34.8732 35.0416 34.6171 34.7966C34.3238 34.4922 33.8857 34.3438 33.2658 34.3438ZM33.2658 36.9351C32.8574 36.9351 32.5678 36.846 32.3488 36.6678C32.1261 36.4859 32.0184 36.2073 32.0184 35.8509C32.0184 35.5168 32.1112 35.2385 32.2894 35.0714C32.4936 34.8784 32.8054 34.7632 33.2621 34.7632C33.7335 34.7632 34.0268 34.8746 34.2458 35.0676C34.4315 35.231 34.5131 35.5205 34.5131 35.8472C34.5131 36.1776 34.4278 36.4599 34.2384 36.6306C34.0194 36.8348 33.7113 36.9351 33.2658 36.9351Z" fill="#717171"/>
<path d="M38.4646 35.2206C38.4646 35.0127 38.42 34.8605 38.3421 34.738C38.2047 34.5338 37.9411 34.3965 37.5031 34.3965H35.6172V37.3107H36.0738V36.0819H37.4028L38.2159 37.3107H38.7504L37.8706 36.0039C38.0933 35.978 38.2678 35.8517 38.3606 35.6884C38.4275 35.577 38.4646 35.4137 38.4646 35.2206ZM38.0042 35.2577C38.0042 35.3394 37.9857 35.4397 37.9523 35.5065C37.8929 35.6141 37.7555 35.6698 37.5328 35.6735H36.0775C36.0775 35.6661 36.0775 34.8123 36.0775 34.8123H37.4474C37.7258 34.8123 37.8743 34.8791 37.9523 35.0053C37.9857 35.0647 38.0042 35.1649 38.0042 35.2577Z" fill="#717171"/>
<path d="M42.9024 37.3107V34.3965H42.301L41.1019 36.7947L39.925 34.3965H39.3125V37.3107H39.7543V35.0684L40.8531 37.3107H41.3357L42.4606 35.0684V37.3107H42.9024Z" fill="#717171"/>
<path d="M44.2088 36.5905H46.0242L46.3954 37.3107H46.8929L45.4153 34.3965H44.8696L43.3438 37.3107H43.8301L44.2088 36.5905ZM45.8311 36.1784H44.4093L44.9995 35.061L45.1295 34.79L45.2593 35.061L45.8311 36.1784Z" fill="#717171"/>
<path d="M50.2393 37.3107V34.3965H49.7972V36.661L47.8672 34.3965H47.3438V37.3107H47.7929V35.0313L49.7383 37.3107H50.2393Z" fill="#717171"/>
<path d="M54.2384 36.2222H53.7554C53.7404 36.3558 53.6884 36.4895 53.5954 36.5897C53.3954 36.8236 53.0764 36.9239 52.5864 36.9239C52.1744 36.9239 51.7324 36.8087 51.5204 36.508C51.4094 36.367 51.3384 36.1591 51.3384 35.8472C51.3384 35.5688 51.3874 35.3609 51.4944 35.2198C51.6724 34.934 52.0474 34.7855 52.5754 34.7855C53.0874 34.7855 53.4104 34.9265 53.5814 35.1233C53.6774 35.2272 53.7334 35.3498 53.7514 35.4945H54.2344C54.2194 35.3312 54.1674 35.1381 54.0564 34.9748C53.8184 34.6221 53.3804 34.3438 52.5784 34.3438C51.8144 34.3438 51.3574 34.5887 51.1044 34.9562C50.9414 35.1678 50.8594 35.4649 50.8594 35.8436C50.8594 36.2668 50.9604 36.5786 51.1344 36.7976C51.3874 37.1429 51.8734 37.3507 52.6084 37.3507C53.3624 37.3507 53.8114 37.1244 54.0344 36.7643C54.1604 36.5898 54.2234 36.3818 54.2384 36.2222Z" fill="#717171"/>
<path d="M57.5617 37.3107V36.8838H55.2967V36.0522H57.4727V35.629H55.2967V34.8197H57.5357V34.3965H54.8438V37.3107H57.5617Z" fill="#717171"/>
<path d="M23.6175 40.2051L24.1727 41.9139H25.9694L24.5159 42.97L25.0711 44.6787L23.6175 43.6227L22.1639 44.6787L22.7192 42.97L21.2656 41.9139H23.0623L23.6175 40.2051Z" fill="#717171"/>
<path d="M30.0249 40.2051L30.5914 41.9138H32.4248L30.9416 42.9699L31.5081 44.6787L30.0249 43.6226L28.5417 44.6787L29.1082 42.9699L27.625 41.9138H29.4584L30.0249 40.2051Z" fill="#717171"/>
<path d="M36.3843 40.2051L36.9509 41.9138H38.7842L37.301 42.9699L37.8676 44.6787L36.3843 43.6226L34.9011 44.6787L35.4676 42.9699L33.9844 41.9138H35.8178L36.3843 40.2051Z" fill="#717171"/>
<path d="M42.7436 40.2051L43.3102 41.9138H45.1436L43.6604 42.9699L44.2268 44.6787L42.7436 43.6226L41.2604 44.6787L41.827 42.9699L40.3438 41.9138H42.1772L42.7436 40.2051Z" fill="#717171"/>
<path d="M49.1489 40.2051L49.7039 41.9138H51.5009L50.0469 42.9699L50.6019 44.6787L49.1489 43.6226L47.6952 44.6787L48.2505 42.9699L46.7969 41.9138H48.5936L49.1489 40.2051Z" fill="#717171"/>
<path d="M26.7313 11.377L27.1511 12.669H28.5096L27.4106 13.4675L27.8304 14.7594L26.7313 13.961L25.6323 14.7594L26.0521 13.4675L24.9531 12.669H26.3116L26.7313 11.377Z" fill="#717171"/>
<path d="M31.5724 11.375L32.0008 12.667H33.3869L32.2655 13.4655L32.6938 14.7574L31.5724 13.9589L30.4509 14.7574L30.8793 13.4655L29.7578 12.667H31.144L31.5724 11.375Z" fill="#717171"/>
<path d="M36.3771 11.375L36.8054 12.667H38.1916L37.0702 13.4655L37.4985 14.7574L36.3771 13.9589L35.2556 14.7574L35.684 13.4655L34.5625 12.667H35.9487L36.3771 11.375Z" fill="#717171"/>
<path d="M41.1896 11.375L41.6179 12.667H43.0041L41.8827 13.4655L42.311 14.7574L41.1896 13.9589L40.0681 14.7574L40.4965 13.4655L39.375 12.667H40.7612L41.1896 11.375Z" fill="#717171"/>
<path d="M46.036 11.375L46.4558 12.667H47.8143L46.7153 13.4655L47.1351 14.7574L46.036 13.9589L44.937 14.7574L45.3568 13.4655L44.2578 12.667H45.6162L46.036 11.375Z" fill="#717171"/>
<path fill-rule="evenodd" clip-rule="evenodd" d="M7.37414 34.6298C5.52154 23.0389 10.9283 11.5711 21.7524 6.64648L21.8523 6.86608C11.1371 11.7411 5.77504 23.0967 7.61234 34.5917C9.64504 47.309 19.9044 54.936 32.4679 55.3037L32.4608 55.5449C19.7994 55.1743 9.42774 47.4783 7.37414 34.6298Z" fill="#717171"/>
<path d="M19.4103 9.60455C17.41 9.65015 15.0689 10.7782 13.6875 12.4166C14.7953 13.4453 16.5777 13.065 17.8604 12.8546C19.6911 12.5544 21.6379 11.9728 23.3654 11.1495C22.6551 9.63745 20.7417 9.57425 19.4103 9.60455Z" fill="#717171"/>
<path d="M17.8347 7.1376C16.6499 8.9832 15.2379 10.8175 13.7013 12.4328C12.4157 11.226 13.1917 9.2177 13.7164 7.9688C14.6669 5.7058 16.9458 3.7543 19.3283 2.7558C19.9822 4.2435 18.5619 6.0048 17.8347 7.1376Z" fill="#717171"/>
<path d="M13.6187 14.7816C11.7457 15.4474 10.1362 17.3216 9.32812 19.2032C10.6749 19.8294 12.206 18.9251 13.3261 18.323C14.8641 17.4962 16.4332 16.3554 17.6678 15.0352C16.5523 13.8582 14.8585 14.341 13.6187 14.7816Z" fill="#717171"/>
<path d="M11.3501 12.9366C10.9401 15.0416 10.2527 17.2234 9.34987 19.212C7.77407 18.4688 7.83407 16.3402 7.90157 14.9856C8.01677 12.6735 9.31027 10.0369 11.1112 8.36133C12.2137 9.54333 11.6113 11.5957 11.3501 12.9366Z" fill="#717171"/>
<path d="M10.0149 21.4629C8.45416 22.6941 7.50816 24.9758 7.28906 27.0133C8.76546 27.1828 9.94556 25.8392 10.8237 24.9174C12.0192 23.6623 13.1509 22.0881 13.8696 20.4412C12.4622 19.6734 11.0315 20.6609 10.0149 21.4629Z" fill="#717171"/>
<path d="M7.31151 20.4235C7.58981 22.5492 7.59041 24.8489 7.31201 27.0161C5.59501 26.8052 5.02551 24.7436 4.68911 23.4503C4.10831 21.2179 4.49771 18.3343 5.62911 16.1641C7.04301 16.9468 7.13371 19.0648 7.31151 20.4235Z" fill="#717171"/>
<path d="M8.78951 28.7562C7.55451 30.5653 7.12021 33.4004 7.67561 35.6792C9.30761 35.2928 10.1166 33.4451 10.7662 32.1402C11.6295 30.4059 12.3592 28.3826 12.6204 26.3975C10.8503 26.0291 9.60301 27.5644 8.78951 28.7562Z" fill="#717171"/>
<path d="M5.55254 28.5731C6.51474 30.8008 7.26564 33.2527 7.70504 35.6735C5.83334 36.0756 4.48624 34.1102 3.70364 32.807C2.31034 30.4872 1.90444 27.2713 2.41484 24.4961C4.12794 24.8396 4.96624 27.2161 5.55254 28.5731Z" fill="#717171"/>
<path d="M9.65931 36.6264C8.99621 38.821 9.45711 41.8045 10.7997 43.8677C12.2751 42.9071 12.4793 40.7929 12.6884 39.277C12.9641 37.2766 13.0939 35.0606 12.7514 32.9863C10.8643 33.2272 10.1022 35.1603 9.65931 36.6264Z" fill="#717171"/>
<path d="M6.3752 37.566C8.0308 39.4657 9.558 41.6317 10.8175 43.8536C9.1093 44.92 7.1048 43.4631 5.8891 42.4321C3.7324 40.6032 2.332 37.4947 2 34.5641C3.7948 34.3229 5.3765 36.4199 6.3752 37.566Z" fill="#717171"/>
<path d="M13.1358 44.0963C13.2781 46.6508 14.9412 49.3313 17.1556 50.857C18.225 49.3929 17.5547 47.1496 17.1899 45.5837C16.6988 43.4754 16.0191 41.28 15.009 39.332C13.2476 40.2628 13.0421 42.414 13.1358 44.0963Z" fill="#717171"/>
<path d="M10.1568 46.2553C12.5559 47.5884 14.9481 49.1615 17.1723 50.8354C15.8403 52.5894 13.1779 51.89 11.5275 51.3262C8.61907 50.3327 6.02618 47.7137 4.67188 44.804C6.38898 43.9195 8.73957 45.4678 10.1568 46.2553Z" fill="#717171"/>
<path d="M19.9668 50.3371C21.4067 52.9649 24.688 54.6792 27.778 55.0919C28.1106 53.1815 26.0435 51.29 24.9171 50.0526C23.3134 48.2909 21.6423 46.4627 19.7687 44.9395C18.365 46.5693 19.1071 48.7682 19.9668 50.3371Z" fill="#717171"/>
<path d="M17.9052 53.6682C21.1783 54.0085 24.5069 54.4984 27.7781 55.0633C27.4658 57.4737 23.6407 57.8627 21.9042 58.005C18.3437 58.2968 14.3829 56.8656 11.625 54.4562C12.9948 52.8444 16.1617 53.487 17.9052 53.6682Z" fill="#717171"/>
<path d="M24.2123 4.62459C22.0148 5.25149 19.4426 6.44079 18.1719 8.63619C20.4784 8.38479 22.7453 7.56409 24.9622 6.93879C27.4454 6.23829 30.0601 5.71439 32.4643 4.74749C29.8313 3.69409 26.7275 3.90699 24.2123 4.62459Z" fill="#717171"/>
<path fill-rule="evenodd" clip-rule="evenodd" d="M66.7304 34.5917C68.5674 23.0967 63.2054 11.7413 52.4904 6.86608L52.5904 6.64648C63.4144 11.5712 68.8214 23.0389 66.9684 34.6298C64.9154 47.4783 54.5434 55.1743 41.882 55.5449L41.875 55.3037C54.4384 54.936 64.6974 47.309 66.7304 34.5917Z" fill="#717171"/>
<path d="M54.9394 9.60455C56.9394 9.65015 59.2804 10.7782 60.6624 12.4166C59.5544 13.4453 57.7714 13.065 56.4894 12.8546C54.6584 12.5544 52.7114 11.9728 50.9844 11.1495C51.6944 9.63745 53.6074 9.57425 54.9394 9.60455Z" fill="#717171"/>
<path d="M56.5054 7.13766C57.6904 8.98326 59.1024 10.8176 60.6384 12.4329C61.9244 11.2261 61.1484 9.21776 60.6234 7.96886C59.6734 5.70586 57.3944 3.75436 55.0114 2.75586C54.3574 4.24356 55.7784 6.00486 56.5054 7.13766Z" fill="#717171"/>
<path d="M60.7209 14.7816C62.5939 15.4474 64.2029 17.3216 65.0109 19.2032C63.6639 19.8294 62.1329 18.9251 61.0129 18.323C59.4749 17.4962 57.9059 16.3554 56.6719 15.0352C57.7869 13.8582 59.4809 14.341 60.7209 14.7816Z" fill="#717171"/>
<path d="M62.9943 12.9366C63.4043 15.0416 64.0913 17.2234 64.9943 19.212C66.5703 18.4688 66.5103 16.3402 66.4423 14.9856C66.3273 12.6735 65.0343 10.0369 63.2333 8.36133C62.1303 9.54333 62.7333 11.5957 62.9943 12.9366Z" fill="#717171"/>
<path d="M64.3228 21.4629C65.8838 22.6941 66.8298 24.9758 67.0488 27.0133C65.5728 27.1828 64.3928 25.8392 63.5148 24.9174C62.3188 23.6623 61.1867 22.0881 60.4688 20.4412C61.8757 19.6734 63.3068 20.6609 64.3228 21.4629Z" fill="#717171"/>
<path d="M67.0375 20.4235C66.7585 22.549 66.7585 24.8489 67.0365 27.0161C68.7535 26.8052 69.3235 24.7436 69.6595 23.4503C70.2405 21.2179 69.8505 18.3343 68.7195 16.1641C67.3055 16.9468 67.2145 19.0648 67.0375 20.4235Z" fill="#717171"/>
<path d="M65.5498 28.7562C66.7848 30.5653 67.2187 33.4004 66.6637 35.6792C65.0317 35.2928 64.2228 33.4452 63.5728 32.1402C62.7098 30.4059 61.9798 28.3826 61.7188 26.3975C63.4887 26.0291 64.7368 27.5644 65.5498 28.7562Z" fill="#717171"/>
<path d="M68.7926 28.5731C67.8306 30.8008 67.0796 33.2527 66.6406 35.6735C68.5116 36.0756 69.8586 34.1102 70.6416 32.807C72.0346 30.4872 72.4406 27.2713 71.9306 24.4961C70.2176 24.8396 69.3786 27.2161 68.7926 28.5731Z" fill="#717171"/>
<path d="M64.688 36.6264C65.351 38.821 64.891 41.8045 63.548 43.8677C62.073 42.9071 61.868 40.7929 61.659 39.277C61.384 37.2766 61.254 35.0606 61.596 32.9863C63.483 33.2272 64.245 35.1603 64.688 36.6264Z" fill="#717171"/>
<path d="M67.9654 37.566C66.3104 39.4658 64.7834 41.6317 63.5234 43.8536C65.2314 44.92 67.2364 43.4631 68.4524 42.4321C70.6084 40.6032 72.0094 37.4947 72.3414 34.5641C70.5464 34.3229 68.9644 36.4199 67.9654 37.566Z" fill="#717171"/>
<path d="M61.2078 44.0963C61.0658 46.6508 59.4028 49.3313 57.1888 50.857C56.1188 49.3929 56.7898 47.1497 57.1538 45.5837C57.6448 43.4754 58.3248 41.28 59.3348 39.332C61.0968 40.2628 61.3018 42.414 61.2078 44.0963Z" fill="#717171"/>
<path d="M64.1869 46.2553C61.7879 47.5884 59.3959 49.1615 57.1719 50.8354C58.5039 52.5894 61.1659 51.89 62.8159 51.3262C65.7249 50.3327 68.3179 47.7137 69.6719 44.804C67.9549 43.9195 65.6039 45.4678 64.1869 46.2553Z" fill="#717171"/>
<path d="M54.3784 50.3371C52.9384 52.9649 49.6574 54.6792 46.567 55.0919C46.2344 53.1815 48.3014 51.29 49.4284 50.0526C51.0314 48.2909 52.7024 46.4627 54.5764 44.9395C55.9804 46.5693 55.2374 48.7682 54.3784 50.3371Z" fill="#717171"/>
<path d="M56.4353 53.6682C53.1623 54.0085 49.8343 54.4984 46.5625 55.0633C46.8749 57.4737 50.7003 57.8627 52.4363 58.005C55.9973 58.2968 59.9583 56.8656 62.7153 54.4562C61.3463 52.8444 58.1793 53.487 56.4353 53.6682Z" fill="#717171"/>
<path d="M50.1271 4.62459C52.3241 5.25149 54.8971 6.44079 56.1671 8.63619C53.8611 8.38479 51.5941 7.56409 49.3771 6.93879C46.8939 6.23829 44.2792 5.71439 41.875 4.74749C44.5081 3.69409 47.6118 3.90699 50.1271 4.62459Z" fill="#717171"/>
<path d="M38.6036 3.4879L37.4761 1L36.3698 3.4416L33.7969 1.8464L35.4502 5.3207H39.5618L41.1554 1.8464L38.6036 3.4879Z" fill="#717171"/>
<path d="M39.5322 5.86133H35.4141V6.46903H39.5322V5.86133Z" fill="#717171"/>
<path d="M37.7639 52.8711L38.4275 54.9133H40.5748L38.8376 56.1754L39.5011 58.2176L37.7639 56.9555L36.0267 58.2176L36.6903 56.1754L34.9531 54.9133H37.1004L37.7639 52.8711Z" fill="#717171"/>
</svg>
