<svg width="116" height="59" viewBox="0 0 116 59" fill="none" xmlns="http://www.w3.org/2000/svg">
<path d="M9.04123 12.5885C8.32575 10.7701 8.63636 8.67925 9.29542 6.92078C9.98883 5.07042 11.1962 3.22511 13.0009 2.25195C13.0904 4.20188 12.4947 6.12838 11.8439 7.86556C11.2586 9.42807 10.5404 11.0927 9.35454 12.3849C9.17232 13.3641 9.03267 14.3405 8.93446 15.3124C9.32751 14.2857 9.96484 13.3498 10.7601 12.5972C11.7839 11.6282 13.3069 10.8806 14.7365 11.3227C14.3177 12.903 13.3633 14.4179 12.2329 15.4806C11.3432 16.317 10.1687 17.3888 8.78524 17.4309C8.72825 18.8612 8.76046 20.2785 8.87815 21.6764C9.07333 20.6534 9.49149 19.69 10.0957 18.9726C10.9257 17.9868 12.1564 16.7825 13.7282 16.984C13.6424 18.5834 13.0044 20.2222 12.1159 21.4536C11.4099 22.4321 10.4778 23.6793 9.15486 24.0015C9.3667 25.3751 9.66177 26.726 10.0361 28.0479C10.0397 27.0357 10.2633 26.0423 10.7068 25.2455C11.3318 24.1219 12.3053 22.7207 13.8789 22.6111C14.1095 24.1802 13.797 25.8956 13.1665 27.2599C12.6627 28.3504 11.9909 29.741 10.7664 30.3164C11.2806 31.7386 11.8891 33.121 12.5868 34.4554C12.3418 33.3053 12.3516 32.0933 12.6415 31.0029C13.041 29.4997 14.0326 27.9206 15.6246 27.4624C16.1874 29.1219 16.1098 30.9741 15.7828 32.661C15.5138 34.0498 14.9851 35.681 13.8001 36.5832C14.5749 37.8334 15.4319 39.0333 16.3665 40.1749C15.8644 39.0553 15.6148 37.8307 15.7487 36.7096C15.9438 35.0763 16.4027 33.3291 18.071 32.4584C19.0174 34.0914 19.2367 35.9234 19.3171 37.7329C19.3821 39.1957 19.1714 41 18.1554 42.1901C19.273 43.352 20.4788 44.4395 21.7667 45.4422C20.9353 44.3756 20.353 43.1239 20.2297 41.8861C20.0556 40.1372 20.1407 38.212 21.6928 36.9285C23.0201 38.3149 23.8122 40.3566 24.2004 42.1299C24.5436 43.6979 24.902 45.5536 24.0847 47.0966C25.7238 48.1666 27.4736 49.1092 29.3236 49.9075C28.0218 48.9798 26.9562 47.7071 26.4485 46.393C25.7833 44.6704 25.3718 42.6179 26.6677 40.8928C28.404 42.0049 29.6801 43.9024 30.6855 45.6329C31.5481 47.1178 32.4411 49.1673 31.9981 50.9358C33.0223 51.2834 34.0731 51.5886 35.149 51.8489L35.085 52.113C34.0051 51.8516 32.9503 51.5454 31.9218 51.1969C31.2013 53.3262 28.8408 54.0296 26.9319 54.3402C24.212 54.7827 20.9733 53.9253 18.6513 52.1982C19.8768 50.4662 22.3774 50.2905 24.2629 50.1579L24.2874 50.1562C26.353 50.0111 28.5871 50.205 30.6643 50.7447C28.2647 49.8312 26.0193 48.6827 23.9489 47.3325L23.9184 47.3807C22.7838 49.2204 20.5059 49.2921 18.718 49.1758C16.2918 49.0179 13.4907 47.5426 11.8695 45.5034C13.3944 44.1655 15.6467 44.5399 17.3919 44.83L17.4003 44.8314C19.3481 45.1552 21.4765 45.8615 23.2631 46.9491C23.093 46.8151 22.9264 46.6733 22.7646 46.5246C21.0275 45.2861 19.4251 43.9008 17.9711 42.3903C17.9542 42.4072 17.9371 42.424 17.9198 42.4407C16.506 43.863 14.4468 43.4905 12.8398 43.0276C10.6893 42.4082 8.45909 40.5395 7.39031 38.3942C9.04652 37.4662 11.0266 38.2309 12.5668 38.8358C14.2573 39.4997 16.0458 40.5617 17.421 41.9155C17.2792 41.7367 17.144 41.5498 17.0162 41.3565C15.7379 39.9138 14.588 38.3689 13.5771 36.7392L13.5265 36.771C11.927 37.8031 10.1148 37.0557 8.67859 36.3206C6.73125 35.324 5.16638 33.1337 4.4902 30.9797C6.2177 30.4264 7.92448 31.5124 9.25127 32.3725C10.7024 33.3131 12.1723 34.6547 13.1813 36.1932C13.1072 36.0416 13.0381 35.8867 12.9745 35.7288C12.0051 34.0374 11.1815 32.2618 10.5148 30.4199L10.4804 30.4316L10.4776 30.4326C9.02332 30.9855 7.40383 30.126 6.348 29.1833C4.88055 27.8733 3.84623 25.8593 3.60376 23.8917C5.11998 23.6953 6.54847 24.8683 7.52512 25.8689C8.64931 27.0204 9.65828 28.3815 10.2786 29.8932C10.2333 29.729 10.1945 29.5622 10.1618 29.3937C9.59735 27.6628 9.16973 25.8778 8.88784 24.0529L8.86588 24.0556L8.85844 24.0568C7.32094 24.3135 5.89943 23.1446 5.05015 22.0101C3.85862 20.4182 3.24438 18.215 3.39834 16.2181C4.92987 16.3252 6.09607 17.7822 6.85232 18.9608C7.72761 20.3252 8.45346 21.8694 8.77139 23.4848C8.7617 23.3563 8.75596 23.227 8.75393 23.0974C8.52047 21.24 8.43724 19.3446 8.51337 17.4258L8.50898 17.4255C6.9458 17.3692 5.79053 15.9179 5.19408 14.6305C4.34064 12.7882 4.20324 10.4596 4.77288 8.49703C6.26275 8.9152 7.09333 10.6242 7.58357 11.9398C8.14882 13.4565 8.54333 15.1108 8.54648 16.7556C8.6278 15.3757 8.79155 13.985 9.04123 12.5885Z" fill="#717171"/>
<path d="M39.8285 9.18555V15.7737C39.8285 18.6713 37.2042 20.0654 33.2268 20.0654C29.509 20.0654 26.8438 18.685 26.8438 15.432V9.18555H30.5479V15.432C30.5479 16.5938 31.5456 17.3182 33.3771 17.3182C35.1267 17.3182 36.1655 16.5664 36.1655 15.4456V9.18555H39.8285Z" fill="#717171"/>
<path d="M52.175 17.0585V19.9151H41.9375V9.18555H45.6416V17.0585H52.175Z" fill="#717171"/>
<path d="M63.1822 11.8782V9.18555H50.375V11.8782H54.8992V19.9151H58.6443V11.8782H63.1822Z" fill="#717171"/>
<path fill-rule="evenodd" clip-rule="evenodd" d="M76.3148 10.2791C76.8069 10.7848 77.04 11.4819 77.04 12.4522C77.04 13.2861 76.8351 13.9968 76.4927 14.4751C76.1098 14.9946 75.5219 15.432 74.7977 15.5413L78.0379 19.9151H73.9643L71.2986 16.129H67.9776V19.9151H64.3281V9.18555H72.8708C74.5657 9.18555 75.6728 9.5956 76.3148 10.2791ZM73.3629 13.3545C73.4587 13.1904 73.4857 12.9717 73.4857 12.794C73.4857 12.589 73.4587 12.3703 73.3629 12.2336C73.1715 11.8782 72.7886 11.7826 72.2142 11.7826H67.9912V13.7371H72.2829C72.8708 13.7371 73.2267 13.6278 73.3629 13.3545Z" fill="#717171"/>
<path fill-rule="evenodd" clip-rule="evenodd" d="M82.9746 17.9333H88.7701L89.7128 19.9151H93.6635L88.2509 9.18555H83.8362L78.1094 19.9151H81.9768L82.9746 17.9333ZM87.6079 15.5276H84.1774L85.5311 12.9444L85.9411 11.9602L86.324 12.9307L87.6079 15.5276Z" fill="#717171"/>
<path fill-rule="evenodd" clip-rule="evenodd" d="M75.921 21.9355C73.6281 21.9355 72.4219 23.0223 72.4219 24.6193C72.4219 26.4218 73.6877 27.3362 75.921 27.3362C78.3795 27.3362 79.4134 26.276 79.4134 24.6193C79.4134 22.9362 78.2467 21.9355 75.921 21.9355ZM75.921 26.0043C74.6157 26.0043 74.2373 25.4676 74.2373 24.6392C74.2373 23.8242 74.6484 23.2875 75.9143 23.2875C77.2995 23.2875 77.6103 23.8904 77.6103 24.6392C77.6103 25.4345 77.2331 26.0043 75.921 26.0043Z" fill="#717171"/>
<path d="M69.0266 27.2555V24.1742H65.5676V25.2941H67.4163C67.4032 25.3802 67.3368 25.5459 67.2507 25.6452C67.0586 25.8706 66.5483 26.0694 65.8856 26.0694C65.1965 26.0694 64.7525 25.8904 64.514 25.6121C64.355 25.4067 64.2622 25.1151 64.2622 24.6778C64.2622 24.2206 64.355 23.9092 64.5338 23.7038C64.7923 23.4122 65.2296 23.2863 65.8724 23.2863C66.4489 23.2863 66.8465 23.4187 67.0321 23.5844C67.1514 23.6838 67.244 23.823 67.264 23.9157H68.9802C68.9737 23.75 68.9206 23.485 68.8278 23.2929C68.417 22.4579 67.4628 21.9609 65.8393 21.9609C64.4278 21.9609 63.4802 22.3916 62.9568 23.0411C62.6121 23.485 62.4531 24.0416 62.4531 24.6645C62.4531 25.3538 62.6386 25.9435 62.9435 26.3345C63.4603 27.0038 64.3814 27.335 65.488 27.335C66.4622 27.335 67.1314 27.1031 67.5555 26.752L67.6019 27.2555H69.0266Z" fill="#717171"/>
<path d="M50.9702 24.1083C52.3153 24.2541 52.8918 24.7312 52.8918 25.6391C52.8918 26.7391 51.8183 27.3354 49.7044 27.3354C47.7364 27.3354 46.8882 26.7788 46.5634 26.0499C46.4905 25.8776 46.4574 25.6656 46.4375 25.533H48.346C48.3593 25.6125 48.4057 25.7318 48.4719 25.8113C48.6309 26.0035 49.0749 26.1161 49.8303 26.1161C50.8045 26.1161 51.0364 25.9769 51.0364 25.7186C51.0364 25.4402 50.7979 25.3806 49.9165 25.2878C49.5653 25.2547 49.0086 25.2017 48.7768 25.1818C47.0936 25.0294 46.4707 24.5059 46.4707 23.6113C46.4707 22.6836 47.5707 21.9746 49.5785 21.9746C51.3611 21.9746 52.1894 22.5047 52.534 23.1674C52.64 23.3662 52.7062 23.5914 52.7262 23.7504H50.8177C50.811 23.6776 50.7846 23.6047 50.7117 23.5119C50.5659 23.3198 50.1948 23.1938 49.5321 23.1938C48.5978 23.1938 48.3526 23.3065 48.3526 23.545C48.3526 23.8101 48.6641 23.8698 49.7044 23.9824C50.1086 24.0155 50.7515 24.0818 50.9702 24.1083Z" fill="#717171"/>
<path fill-rule="evenodd" clip-rule="evenodd" d="M31.953 22.4986C32.3041 22.7769 32.5029 23.2475 32.5029 23.9299C32.5029 24.4866 32.3638 24.904 32.0987 25.1956C31.7409 25.6064 31.1511 25.792 30.3825 25.7987C30.1438 25.8053 28.1029 25.7987 28.1029 25.7987V27.2564H26.3203V22.0547H30.3559C31.0716 22.0547 31.615 22.2004 31.953 22.4986ZM30.6343 24.3341C30.6872 24.2415 30.7138 24.1221 30.7138 23.9564C30.7138 23.7842 30.6806 23.6384 30.621 23.5589C30.5084 23.3932 30.2963 23.3137 29.9517 23.3137H28.0896V24.586H29.9384C30.3095 24.586 30.5282 24.4998 30.6343 24.3341Z" fill="#717171"/>
<path fill-rule="evenodd" clip-rule="evenodd" d="M39.0224 22.5848C39.2611 22.83 39.3737 23.168 39.3737 23.6384C39.3737 24.0426 39.2742 24.3872 39.1086 24.6191C38.9231 24.8709 38.6382 25.083 38.2869 25.136L39.8574 27.2564H37.8827L36.5905 25.4209H34.9802V27.2564H33.2109V22.0547H37.3526C38.1743 22.0547 38.711 22.2535 39.0224 22.5848ZM37.5911 24.0758C37.6375 23.9963 37.6507 23.8902 37.6507 23.804C37.6507 23.7047 37.6375 23.5986 37.5911 23.5324C37.4983 23.3601 37.3128 23.3137 37.0345 23.3137H34.9869V24.2613H37.0677C37.3526 24.2613 37.5249 24.2082 37.5911 24.0758Z" fill="#717171"/>
<path d="M45.902 27.2564V25.9643H42.1713V25.2884H45.7497V24.0227H42.1713V23.3534H45.8556V22.0547H40.4219V27.2564H45.902Z" fill="#717171"/>
<path d="M59.3419 23.3601V22.0547H53.1328V23.3601H55.3261V27.2564H57.1418V23.3601H59.3419Z" fill="#717171"/>
<path d="M61.7286 22.0547V27.2564H59.9062V22.0547H61.7286Z" fill="#717171"/>
<path d="M71.7055 22.0547V27.2564H69.8828V22.0547H71.7055Z" fill="#717171"/>
<path d="M86.4518 22.0547V25.2486C86.4518 26.6535 85.1792 27.3294 83.2511 27.3294C81.4491 27.3294 80.1562 26.6601 80.1562 25.083V22.0547H81.9526V25.083C81.9526 25.6462 82.4357 25.9974 83.3243 25.9974C84.1723 25.9974 84.6757 25.633 84.6757 25.0896V22.0547H86.4518Z" fill="#717171"/>
<path d="M93.6028 25.6391C93.6028 24.7312 93.0261 24.2541 91.6814 24.1083C91.4618 24.0818 90.8199 24.0155 90.4156 23.9824C89.375 23.8698 89.063 23.8101 89.063 23.545C89.063 23.3065 89.3085 23.1938 90.2433 23.1938C90.9055 23.1938 91.2771 23.3198 91.4224 23.5119C91.4956 23.6047 91.5215 23.6776 91.5283 23.7504H93.4372C93.4169 23.5914 93.3505 23.3662 93.2446 23.1674C92.9 22.5047 92.0722 21.9746 90.2894 21.9746C88.2814 21.9746 87.1811 22.6836 87.1811 23.6113C87.1811 24.5059 87.805 25.0294 89.4876 25.1818L89.5957 25.1914L89.7759 25.2079L90.6273 25.2878C91.5091 25.3806 91.7468 25.4402 91.7468 25.7186C91.7468 25.9769 91.5159 26.1161 90.5417 26.1161C89.786 26.1161 89.3423 26.0035 89.1824 25.8113C89.1171 25.7318 89.0698 25.6125 89.0574 25.533H87.1484C87.1687 25.6656 87.2014 25.8776 87.2746 26.0499C87.5989 26.7788 88.447 27.3354 90.4156 27.3354C92.5295 27.3354 93.6028 26.7391 93.6028 25.6391Z" fill="#717171"/>
<path fill-rule="evenodd" clip-rule="evenodd" d="M47.2583 29.248C45.7682 29.248 44.9844 29.9544 44.9844 30.9923C44.9844 32.1637 45.807 32.758 47.2583 32.758C48.8562 32.758 49.528 32.069 49.528 30.9923C49.528 29.8984 48.77 29.248 47.2583 29.248ZM47.2583 31.8924C46.4099 31.8924 46.1644 31.5435 46.1644 31.0052C46.1644 30.4755 46.4314 30.1266 47.254 30.1266C48.1541 30.1266 48.3566 30.5185 48.3566 31.0052C48.3566 31.522 48.1111 31.8924 47.2583 31.8924Z" fill="#717171"/>
<path d="M38.9761 31.655C38.9761 31.065 38.6014 30.7549 37.7271 30.6601C37.585 30.6429 37.1672 30.5999 36.9045 30.5784C36.2283 30.5051 36.0259 30.4663 36.0259 30.2941C36.0259 30.139 36.1853 30.0658 36.7926 30.0658C37.2232 30.0658 37.4643 30.1476 37.5592 30.2725C37.6065 30.3329 37.6237 30.3802 37.6281 30.4276H38.8684C38.8554 30.3242 38.8124 30.1778 38.7435 30.0486C38.5195 29.6179 37.9812 29.2734 36.8226 29.2734C35.5178 29.2734 34.8029 29.7342 34.8029 30.3371C34.8029 30.9186 35.2076 31.2588 36.3015 31.3578C36.4523 31.3708 36.8141 31.4052 37.0423 31.4268C37.6151 31.487 37.7701 31.5259 37.7701 31.7067C37.7701 31.8747 37.6194 31.9651 36.9864 31.9651C36.4953 31.9651 36.2068 31.8919 36.1034 31.767C36.0604 31.7153 36.0302 31.6378 36.0217 31.5861H34.7812C34.7942 31.6723 34.8157 31.81 34.8631 31.9221C35.0742 32.3958 35.6255 32.7575 36.9045 32.7575C38.2784 32.7575 38.9761 32.37 38.9761 31.655Z" fill="#717171"/>
<path fill-rule="evenodd" clip-rule="evenodd" d="M30.3827 31.7509C30.3827 31.9835 30.3181 32.2118 30.1889 32.3624C29.9908 32.6037 29.6204 32.707 29.1424 32.707H26.1406V29.3262H29.0606C29.5257 29.3262 29.8229 29.4382 29.9865 29.6061C30.1329 29.7526 30.1976 29.9464 30.1976 30.166C30.1976 30.3857 30.1459 30.5666 30.0339 30.7C29.9434 30.8121 29.7884 30.8981 29.6248 30.9198C29.8659 30.9498 30.0942 31.0705 30.2234 31.2384C30.331 31.3633 30.3827 31.5528 30.3827 31.7509ZM28.9314 30.5666C28.9744 30.5192 29.0003 30.4502 29.0003 30.3685C29.0003 30.2866 28.9744 30.2177 28.9184 30.1704C28.8582 30.1143 28.7461 30.0928 28.5825 30.0928H27.269V30.6441H28.6127C28.7591 30.6441 28.8711 30.6226 28.9314 30.5666ZM28.7376 31.9405C28.9399 31.9405 29.0606 31.9145 29.1295 31.85C29.1725 31.8069 29.1897 31.7424 29.1897 31.6605C29.1897 31.5743 29.1682 31.5098 29.1165 31.4581C29.052 31.4021 28.9399 31.3762 28.7505 31.3762H27.269V31.9405H28.7376Z" fill="#717171"/>
<path d="M34.4367 31.8672V32.707H30.875V29.3262H34.4065V30.1704H32.0119V30.6053H34.3375V31.4279H32.0119V31.8672H34.4367Z" fill="#717171"/>
<path d="M43.1681 29.3262V30.1747H41.7383V32.707H40.5584V30.1747H39.1328V29.3262H43.1681Z" fill="#717171"/>
<path d="M53.4696 29.3262V30.1832H51.1742V30.6613H53.3619V31.5098H51.1742V32.707H50.0156V29.3262H53.4696Z" fill="#717171"/>
<path d="M59.3088 30.1747V29.3262H55.2734V30.1747H56.699V32.707H57.879V30.1747H59.3088Z" fill="#717171"/>
<path d="M63.7116 29.3262V32.707H62.5573V31.4796H60.826V32.707H59.6719V29.3262H60.826V30.5579H62.5573V29.3262H63.7116Z" fill="#717171"/>
<path d="M67.9523 32.707V31.8672H65.5275V31.4279H67.8532V30.6053H65.5275V30.1704H67.9221V29.3262H64.3906V32.707H67.9523Z" fill="#717171"/>
<path d="M75.0925 29.3262H76.2075L74.972 32.707H73.7062C73.7062 32.707 73.0293 30.6872 73.0248 30.6311C73.0214 30.6872 72.3401 32.707 72.3401 32.707H71.0787L69.8125 29.3262H71.0652C71.0652 29.3262 71.7984 31.4537 71.7984 31.5054C71.7984 31.4537 72.4741 29.3262 72.4741 29.3262H73.6848C73.6848 29.3262 74.365 31.4537 74.365 31.5054C74.365 31.4537 75.0925 29.3262 75.0925 29.3262Z" fill="#717171"/>
<path fill-rule="evenodd" clip-rule="evenodd" d="M78.4223 29.248C76.9323 29.248 76.1484 29.9544 76.1484 30.9923C76.1484 32.1637 76.9706 32.758 78.4223 32.758C80.0204 32.758 80.6916 32.069 80.6916 30.9923C80.6916 29.8984 79.9336 29.248 78.4223 29.248ZM78.4223 31.8924C77.5742 31.8924 77.3287 31.5435 77.3287 31.0052C77.3287 30.4755 77.5956 30.1266 78.4178 30.1266C79.3187 30.1266 79.5203 30.5185 79.5203 31.0052C79.5203 31.522 79.2748 31.8924 78.4223 31.8924Z" fill="#717171"/>
<path fill-rule="evenodd" clip-rule="evenodd" d="M84.957 29.6708C85.1113 29.8302 85.1845 30.0498 85.1845 30.3555C85.1845 30.6183 85.1203 30.8422 85.0122 30.993C84.8917 31.1566 84.707 31.2945 84.4784 31.3288L85.4987 32.707H84.216L83.3758 31.5141H82.3295V32.707H81.1797V29.3262H83.8713C84.4052 29.3262 84.7543 29.4555 84.957 29.6708ZM84.0268 30.6398C84.056 30.5881 84.065 30.5192 84.065 30.4632C84.065 30.3986 84.056 30.3297 84.0268 30.2866C83.9659 30.1747 83.8454 30.1445 83.6641 30.1445H82.3341V30.7604H83.6855C83.8713 30.7604 83.9828 30.7259 84.0268 30.6398Z" fill="#717171"/>
<path d="M89.1005 32.707V31.8069H87.0418V29.3262H85.875V32.707H89.1005Z" fill="#717171"/>
<path fill-rule="evenodd" clip-rule="evenodd" d="M93.6631 30.9541C93.6631 31.4796 93.6113 31.7639 93.457 32.0309C93.2239 32.4572 92.7633 32.707 91.949 32.707H89.5547V29.3262H91.9231C92.7329 29.3262 93.2115 29.5545 93.448 29.9464C93.6158 30.2091 93.6631 30.489 93.6631 30.9541ZM91.7294 31.8758C92.0954 31.8758 92.3027 31.7897 92.4277 31.6002C92.5054 31.4839 92.5268 31.2126 92.5268 30.9757C92.5223 30.7604 92.4964 30.5321 92.4277 30.4287C92.2936 30.2264 92.0921 30.1531 91.7384 30.1531H90.7091V31.8758H91.7294Z" fill="#717171"/>
<path d="M47.4669 49.1484H45.6823C45.6823 49.1484 44.5178 52.5524 44.5178 52.6351C44.5178 52.5524 43.4291 49.1484 43.4291 49.1484H41.4928C41.4928 49.1484 40.411 52.5524 40.411 52.6351C40.411 52.5524 39.2396 49.1484 39.2396 49.1484H37.2344L39.2602 54.5575H41.2792C41.2792 54.5575 42.3679 51.3259 42.3748 51.2363C42.3817 51.3259 43.4635 54.5575 43.4635 54.5575H45.4893L47.4669 49.1484Z" fill="#717171"/>
<path d="M49.9106 54.5575V49.1484H48.0156V54.5575H49.9106Z" fill="#717171"/>
<path d="M57.2736 49.1484V54.5575H55.4269L52.7465 51.5464V54.5575H50.9688V49.1484H52.9118L55.5095 52.0908V49.1484H57.2736Z" fill="#717171"/>
<path d="M64.6643 54.5575V49.1484H62.9003V52.0908L60.3025 49.1484H58.3594V54.5575H60.1371V51.5464L62.8176 54.5575H64.6643Z" fill="#717171"/>
<path d="M71.4335 53.2138V54.5575H65.7344V49.1484H71.385V50.499H67.5535V51.195H71.2747V52.5111H67.5535V53.2138H71.4335Z" fill="#717171"/>
<path fill-rule="evenodd" clip-rule="evenodd" d="M78.7207 50.7953C78.7207 50.3061 78.6035 49.9547 78.3558 49.6997C78.0314 49.3552 77.4739 49.1484 76.6191 49.1484H72.3125V54.5575H74.1527V52.6488H75.8274L77.171 54.5575H79.2241L77.5911 52.3526C77.956 52.2974 78.2521 52.0769 78.4459 51.8151C78.617 51.574 78.7207 51.2156 78.7207 50.7953ZM76.9288 50.9676C76.9288 51.0571 76.9153 51.1674 76.8669 51.2501C76.7982 51.3879 76.6191 51.443 76.3229 51.443H74.1595V50.4577H76.288C76.5775 50.4577 76.7712 50.5059 76.8669 50.685C76.9153 50.754 76.9288 50.8642 76.9288 50.9676Z" fill="#717171"/>
<path d="M41.9598 39.6046L41.2126 37.3047L40.4652 39.6046H38.0469L40.0033 41.026L39.2561 43.326L41.2126 41.9046L43.1689 43.326L42.4217 41.026L44.3781 39.6046H41.9598Z" fill="#717171"/>
<path d="M49.8396 37.3047L50.6021 39.6046H53.0698L51.0735 41.0261L51.836 43.326L49.8396 41.9046L47.8433 43.326L48.6058 41.0261L46.6094 39.6046H49.077L49.8396 37.3047Z" fill="#717171"/>
<path d="M59.1646 39.6046L58.4022 37.3047L57.6396 39.6046H55.1719L57.1683 41.0261L56.4058 43.326L58.4022 41.9046L60.3985 43.326L59.636 41.0261L61.6324 39.6046H59.1646Z" fill="#717171"/>
<path d="M66.9646 37.3047L67.7271 39.6046H70.1948L68.1985 41.0261L68.961 43.326L66.9646 41.9046L64.9683 43.326L65.7308 41.0261L63.7344 39.6046H66.2021L66.9646 37.3047Z" fill="#717171"/>
<path d="M76.3355 39.6046L75.5877 37.3047L74.8399 39.6046H72.4219L74.3781 41.0261L73.6314 43.326L75.5877 41.9046L77.5439 43.326L76.7972 41.0261L78.7534 39.6046H76.3355Z" fill="#717171"/>
<path d="M107.709 12.6395C108.425 10.8212 108.114 8.73015 107.455 6.97168C106.761 5.12142 105.554 3.2759 103.75 2.30273C103.66 4.25277 104.255 6.17916 104.906 7.91635C105.492 9.47874 106.209 11.1433 107.395 12.4354C107.578 13.4143 107.717 14.3905 107.815 15.3622C107.422 14.3359 106.786 13.4004 105.991 12.6481C104.967 11.679 103.443 10.9314 102.014 11.3736C102.433 12.9538 103.387 14.4688 104.518 15.5315C105.407 16.3679 106.582 17.4396 107.965 17.4818C108.023 18.9122 107.99 20.3296 107.872 21.7277C107.677 20.7046 107.259 19.7413 106.654 19.0239C105.824 18.038 104.593 16.8337 103.022 17.0352C103.108 18.6346 103.746 20.2734 104.635 21.5048C105.34 22.4834 106.272 23.7306 107.596 24.0528C107.384 25.4263 107.089 26.7769 106.714 28.0987C106.71 27.0866 106.487 26.0932 106.044 25.2964C105.419 24.1729 104.445 22.7716 102.871 22.662C102.64 24.2311 102.953 25.9465 103.584 27.3108C104.088 28.4013 104.76 29.7919 105.984 30.3673C105.469 31.7897 104.861 33.1725 104.163 34.5069C104.409 33.3566 104.398 32.1445 104.109 31.0537C103.709 29.5505 102.718 27.9713 101.126 27.5131C100.562 29.173 100.64 31.0249 100.968 32.7117C101.237 34.1007 101.765 35.7319 102.95 36.6341C102.175 37.885 101.318 39.0854 100.382 40.2276C100.886 39.1075 101.135 37.8823 101.001 36.7607C100.806 35.1272 100.347 33.3801 98.6795 32.5096C97.7323 34.1426 97.5127 35.9746 97.4327 37.7841C97.3674 39.247 97.578 41.0515 98.595 42.2416C97.4767 43.4032 96.2716 44.4904 94.9844 45.4929C95.8155 44.4263 96.3978 43.1747 96.5205 41.937C96.6951 40.1881 96.6106 38.263 95.0576 36.9794C93.7309 38.3658 92.938 40.4075 92.5506 42.1808C92.2071 43.7486 91.849 45.6045 92.6655 47.1475C91.0268 48.2177 89.2767 49.1604 87.4263 49.9589C88.7282 49.0311 89.7936 47.7582 90.3016 46.4439C90.9672 44.7215 91.3782 42.6688 90.0831 40.9437C88.3465 42.0558 87.0705 43.9531 86.0647 45.6838C85.2021 47.1688 84.309 49.2184 84.7527 50.9869C83.7278 51.3345 82.6771 51.6397 81.6016 51.9001L81.6658 52.1642C82.7447 51.9028 83.7999 51.5965 84.8282 51.248C85.5489 53.3772 87.9095 54.0809 89.8184 54.3913C92.5382 54.8338 95.7772 53.9766 98.0995 52.2493C96.873 50.5173 94.3728 50.3416 92.4875 50.209L92.4628 50.2074C90.3973 50.0622 88.1629 50.2561 86.0861 50.7959C88.485 49.8824 90.7306 48.7337 92.8018 47.3834L92.8299 47.4284C93.964 49.2711 96.2435 49.3432 98.0319 49.2268C100.459 49.0689 103.26 47.5936 104.88 45.5544C103.356 44.2167 101.104 44.5909 99.3586 44.8809L99.3496 44.8825C97.4023 45.2062 95.2749 45.9122 93.4887 46.9994C93.6588 46.8655 93.8244 46.724 93.9865 46.5754C95.7232 45.3372 97.3246 43.952 98.7786 42.4418C98.7988 42.4619 98.8191 42.4818 98.8394 42.5015C100.254 43.9127 102.307 43.5404 103.911 43.0785C106.062 42.4591 108.292 40.5904 109.36 38.4451C107.704 37.5171 105.724 38.2817 104.184 38.8867C102.492 39.5511 100.702 40.6144 99.3259 41.97C99.4678 41.7909 99.6041 41.6038 99.7325 41.41C101.011 39.9666 102.162 38.4209 103.173 36.7901L103.217 36.8172L103.228 36.8243C104.826 37.8528 106.637 37.106 108.072 36.3715C110.019 35.3749 111.585 33.1846 112.26 31.0306C110.533 30.4773 108.827 31.5633 107.5 32.4234C106.047 33.3646 104.576 34.7071 103.567 36.2467C103.642 36.0948 103.711 35.9394 103.776 35.7811C104.745 34.0892 105.569 32.3132 106.235 30.4708L106.27 30.4825L106.276 30.4848C107.73 31.0351 109.348 30.1762 110.403 29.2342C111.87 27.9242 112.905 25.9102 113.147 23.9426C111.631 23.7462 110.202 24.9192 109.225 25.9197C108.101 27.072 107.091 28.4339 106.471 29.9469C106.517 29.7818 106.556 29.6141 106.589 29.4446C107.153 27.7138 107.581 25.9289 107.863 24.1042L107.905 24.1098C109.437 24.3578 110.854 23.1923 111.701 22.061C112.892 20.4691 113.506 18.2659 113.352 16.2689C111.821 16.3761 110.654 17.833 109.899 19.0117C109.023 20.3768 108.296 21.9218 107.979 23.5383C107.989 23.409 107.994 23.279 107.997 23.1486C108.23 21.2911 108.313 19.3956 108.237 17.4768C109.801 17.4219 110.96 15.9696 111.557 14.6816C112.409 12.8395 112.547 10.5107 111.978 8.54826C110.488 8.96643 109.657 10.6752 109.167 11.9908C108.601 13.5075 108.207 15.1621 108.204 16.8068C108.123 15.427 107.958 14.0361 107.709 12.6395Z" fill="#717171"/>
</svg>
