<svg width="130" height="26" viewBox="0 0 130 26" fill="none" xmlns="http://www.w3.org/2000/svg">
<path fill-rule="evenodd" clip-rule="evenodd" d="M59.8966 11.7875C61.6305 11.7859 63.3806 11.7852 65.145 11.7852C66.4852 11.7852 67.817 11.7856 69.1398 11.7865C69.5641 8.51756 72.0458 6.60285 76.8251 6.60285C81.1218 6.60285 84.3092 8.34159 84.8257 11.8191C87.9938 11.8302 91.0781 11.844 94.0636 11.8603C93.6389 2.64733 87.1517 0 76.6098 0C65.5754 0 60.149 3.79565 59.8966 11.7875ZM94.0731 13.6422C93.7743 22.8094 88.2009 25.6937 76.8251 25.6937C65.4453 25.6937 60.406 21.8442 59.9256 13.7151C61.65 13.7166 63.3904 13.7174 65.145 13.7174C66.4795 13.7174 67.8058 13.717 69.1231 13.7161C69.4951 16.9095 71.9869 19.0908 76.9328 19.0908C81.4875 19.0908 84.4795 17.4342 84.8584 13.6834C88.0184 13.6722 91.0949 13.6585 94.0731 13.6422ZM97.6561 13.6213C100.706 13.6022 103.64 13.5804 106.442 13.5563C106.838 16.1549 108.381 18.6961 113.852 18.6961C119.438 18.6961 120.785 16.0462 121.089 13.3912C124.4 13.3428 127.342 13.29 129.856 13.2336C129.654 16.6594 129.198 18.8136 128.242 20.6339C126.196 24.5813 120.634 25.586 113.852 25.586C107.069 25.586 101.292 24.5813 99.2465 20.6339C98.3263 18.8832 97.8693 16.8237 97.6561 13.6213ZM129.905 12.27C129.976 10.6321 130 8.72315 130 6.45931V0.394737H121.172V11.6626C121.172 11.8108 121.171 11.961 121.168 12.1126C124.469 12.161 127.4 12.2137 129.905 12.27ZM106.318 11.9452C106.317 11.8503 106.316 11.7561 106.316 11.6626V0.394737H97.4882V6.45931C97.4882 8.5461 97.5088 10.3314 97.5673 11.8807C100.604 11.8997 103.527 11.9213 106.318 11.9452ZM53.7856 11.7963C47.8376 11.808 42.1204 11.8288 36.7213 11.8576L28.9099 0.394737H38.7783L45.2376 9.1148L51.7328 0.394737H61.6012L53.7856 11.7963ZM29.1641 11.9045C29.2873 11.2162 29.354 10.4675 29.354 9.65308C29.354 0.717701 20.8851 0.394737 18.4808 0.394737H0V12.2788C2.3974 12.2236 5.20203 12.1717 8.36121 12.1239V7.75117H17.5837C18.6602 7.75117 20.8133 7.82294 20.8133 9.94016C20.8133 11.0984 20.2243 11.6899 19.4916 11.9867C22.5373 11.9562 25.7702 11.9287 29.1641 11.9045ZM0 13.2238V25.586H8.36121V19.6291H15.933L20.2033 25.5501L29.8564 25.586L24.7248 18.1578C26.3617 17.2672 27.8855 15.8437 28.7114 13.5948C16.7019 13.5078 6.74108 13.3791 0 13.2238ZM37.9436 13.6513L41.039 18.1937V25.586H49.4002V18.1937L52.4782 13.7036C47.4434 13.6925 42.5806 13.6748 37.9436 13.6513Z" fill="white"/>
</svg>
