<svg width="32" height="32" viewBox="0 0 32 32" fill="none" xmlns="http://www.w3.org/2000/svg">
<path d="M17.1507 16.4273C17.1507 19.167 14.8924 21.3917 12.0949 21.3917C9.29732 21.3917 7.03906 19.167 7.03906 16.4273C7.03906 13.6876 9.29732 11.4629 12.0949 11.4629C14.8924 11.4629 17.1507 13.6876 17.1507 16.4273ZM22.6896 16.4273C22.6896 19.0027 21.5548 21.0958 20.1617 21.0958C18.7685 21.0958 17.6338 19.0027 17.6338 16.4273C17.6338 13.8519 18.7685 11.7588 20.1617 11.7588C21.5548 11.7588 22.6896 13.841 22.6896 16.4273ZM24.9591 16.4273C24.9591 18.7396 24.5658 20.6136 24.0715 20.6136C23.5771 20.6136 23.1839 18.7396 23.1839 16.4273C23.1839 14.115 23.5771 12.241 24.0715 12.241C24.5658 12.241 24.9591 14.115 24.9591 16.4273Z" fill="white"/>
</svg>
