<svg width="192" height="128" viewBox="0 0 192 128" fill="none" xmlns="http://www.w3.org/2000/svg">
<path opacity="0.5" d="M26.9952 68.7449C26.9952 70.4555 27.3707 71.7688 27.8614 72.5634C28.5048 73.6041 29.4645 74.045 30.4429 74.045C31.7048 74.045 32.8593 73.7318 35.084 70.6549C36.8663 68.1887 38.9664 64.7269 40.3794 62.5567L42.7724 58.88C44.4347 56.3265 46.3588 53.488 48.5648 51.5639C50.3658 49.9935 52.3085 49.1211 54.2637 49.1211C57.5463 49.1211 60.6731 51.0233 63.0661 54.591C65.685 58.4983 66.9562 63.4198 66.9562 68.4987C66.9562 71.518 66.3611 73.7365 65.3485 75.4892C64.3701 77.1842 62.4632 78.8777 59.2554 78.8777V74.045C62.002 74.045 62.6875 71.5211 62.6875 68.6327C62.6875 64.5166 61.7278 59.9487 59.6137 56.6849C58.1134 54.3698 56.1691 52.9552 54.0301 52.9552C51.7165 52.9552 49.8548 54.7001 47.7625 57.8113C46.6501 59.4642 45.5082 61.4786 44.226 63.7517L42.8145 66.2522C39.979 71.2796 39.2608 72.4247 37.8431 74.3145C35.3582 77.6235 33.2363 78.8777 30.4429 78.8777C27.1292 78.8777 25.0338 77.4428 23.736 75.2804C22.6766 73.5184 22.1562 71.2064 22.1562 68.5719L26.9952 68.7449Z" fill="black"/>
<path opacity="0.5" d="M25.9688 54.9322C28.1873 51.5125 31.3888 49.1211 35.0609 49.1211C37.1874 49.1211 39.3016 49.7505 41.5092 51.553C43.924 53.5238 46.4977 56.769 49.7086 62.1174L50.8599 64.0368C53.6392 68.667 55.2205 71.049 56.146 72.1723C57.3362 73.615 58.1697 74.045 59.2525 74.045C61.9991 74.045 62.6846 71.5211 62.6846 68.6327L66.9534 68.4987C66.9534 71.518 66.3582 73.7365 65.3456 75.4892C64.3672 77.1842 62.4603 78.8777 59.2525 78.8777C57.2583 78.8777 55.4916 78.4446 53.538 76.6015C52.0361 75.1869 50.2803 72.674 48.9296 70.415L44.9117 63.7034C42.8957 60.3351 41.0465 57.8237 39.9761 56.6864C38.8248 55.4635 37.3448 53.9865 34.983 53.9865C33.0714 53.9865 31.448 55.3279 30.0895 57.3797L25.9688 54.9322Z" fill="black"/>
<path opacity="0.5" d="M34.9859 53.9865C33.0743 53.9865 31.4509 55.3279 30.0924 57.3797C28.1714 60.279 26.9952 64.5976 26.9952 68.7449C26.9952 70.4555 27.3707 71.7688 27.8614 72.5634L23.736 75.2804C22.6766 73.5184 22.1562 71.2064 22.1562 68.5719C22.1562 63.7813 23.4711 58.7881 25.9716 54.9322C28.1901 51.5125 31.3917 49.1211 35.0637 49.1211L34.9859 53.9865Z" fill="black"/>
<path opacity="0.5" d="M76.3594 50.0625H81.957L91.4745 67.2808L100.993 50.0625H106.47V78.3546H101.903V56.6713L93.5559 71.6866H89.2715L80.9257 56.6713V78.3546H76.3594V50.0625ZM120.778 60.6113C117.503 60.6113 115.531 63.0759 115.059 66.1279H126.173C125.944 62.984 124.13 60.6113 120.778 60.6113ZM110.531 67.8666C110.531 61.4448 114.681 56.771 120.857 56.771C126.932 56.771 130.558 61.3856 130.558 68.2093V69.4635H115.059C115.608 72.7834 117.811 75.0206 121.363 75.0206C124.197 75.0206 125.969 74.156 127.648 72.5747L130.074 75.5457C127.788 77.6473 124.881 78.8594 121.201 78.8594C114.516 78.8594 110.531 73.9846 110.531 67.8666ZM136.095 61.0163H131.892V57.2773H136.095V51.0939H140.501V57.2773H146.887V61.0163H140.501V70.4933C140.501 73.7291 141.536 74.8789 144.078 74.8789C145.239 74.8789 145.904 74.7791 146.887 74.6156V78.3141C145.663 78.66 144.494 78.8189 143.229 78.8189C138.473 78.8189 136.095 76.2202 136.095 71.0183V61.0163ZM165.439 64.6526C164.554 62.4185 162.58 60.7733 159.679 60.7733C155.909 60.7733 153.496 63.4483 153.496 67.8058C153.496 72.0543 155.718 74.8586 159.499 74.8586C162.471 74.8586 164.593 73.1293 165.439 70.9778V64.6526ZM169.845 78.3546H165.52V75.4039C164.311 77.141 162.111 78.8594 158.548 78.8594C152.818 78.8594 148.989 74.0625 148.989 67.8058C148.989 61.49 152.91 56.771 158.791 56.771C161.698 56.771 163.979 57.9332 165.52 59.985V57.2773H169.845V78.3546Z" fill="black"/>
</svg>
