<svg width="613" height="753" viewBox="0 0 613 753" fill="none" xmlns="http://www.w3.org/2000/svg">
<g filter="url(#filter0_d_119_2547)">
<g clip-path="url(#clip0_119_2547)">
<rect x="650.81" y="759.54" width="584.065" height="357.226" rx="17.8613" transform="rotate(-148.41 650.81 759.54)" fill="#D5FF40"/>
<path d="M246.725 464.13C249.955 453.289 253.439 443.89 257.176 435.933C260.799 427.943 265.091 420.835 270.052 414.609C275.013 408.384 280.496 403.743 286.5 400.686C292.425 397.481 299.299 395.678 307.123 395.275C314.832 394.838 323.422 396.031 332.894 398.853C342.252 401.641 350.014 405.196 356.181 409.518C362.383 413.726 367.251 418.655 370.786 424.306C374.241 429.808 376.432 436.425 377.359 444.156C378.206 451.739 377.982 459.997 376.688 468.93C375.393 477.862 373.046 488.035 369.646 499.447C361.214 527.748 349.942 546.817 335.83 556.652C321.637 566.34 303.699 567.953 282.017 561.494C261.932 555.51 249.051 544.528 243.375 528.549C237.585 512.535 238.702 491.062 246.725 464.13ZM338.251 489.721C341.855 477.624 342.189 467.535 339.254 459.455C336.319 451.374 329.83 445.837 319.788 442.846C310.088 439.956 301.69 441.243 294.595 446.709C287.386 452.14 282.03 460.733 278.528 472.487C276.692 478.649 275.762 484.274 275.737 489.361C275.599 494.414 276.383 498.872 278.09 502.735C279.83 506.484 282.306 509.644 285.516 512.216C288.725 514.787 292.67 516.77 297.349 518.164C306.364 520.85 314.545 519.87 321.893 515.226C329.127 510.547 334.579 502.045 338.251 489.721ZM277.732 366.937L304.047 278.609C304.727 276.326 305.43 274.175 306.156 272.155C306.882 270.135 308.131 267.401 309.904 263.953C311.596 260.357 313.455 257.246 315.48 254.619C317.425 251.843 320.049 249.084 323.351 246.34C326.54 243.563 330.014 241.492 333.776 240.127C337.457 238.615 341.858 237.814 346.978 237.724C352.133 237.52 357.678 238.303 363.612 240.07C382.556 245.714 393.886 257.104 397.602 274.239L440.38 260.146L426.49 306.142L392.126 318.268L381.366 354.387L409.781 362.853L397.899 402.737L277.732 366.937ZM359.585 299.255C362.542 289.327 360.255 283.241 352.724 280.997C345.877 278.957 340.906 283.129 337.812 293.514L324.706 337.507L346.274 343.932L359.585 299.255ZM444.422 246.579L324.255 210.778L336.137 170.894L456.304 206.694L444.422 246.579Z" fill="black"/>
<path d="M438.727 582.624L467.898 484.71L538.252 505.671L528.716 537.681L516.22 533.958C519.14 540.419 520.614 547.568 520.64 555.403C520.587 563.09 518.537 573.724 514.491 587.304C510.853 599.515 506.67 610.01 501.942 618.79C497.214 627.57 492.261 634.605 487.081 639.896C481.822 645.038 476.087 648.858 469.875 651.357C463.584 653.707 457.273 654.871 450.943 654.848C444.613 654.826 437.797 653.727 430.493 651.551C422.162 649.069 414.998 645.382 409.001 640.489C402.89 635.562 398.169 629.931 394.838 623.596C391.541 617.147 389.24 610.063 387.937 602.344C386.667 594.511 386.464 586.436 387.326 578.12C388.108 569.656 389.825 560.973 392.477 552.072C396.115 539.861 399.985 529.583 404.086 521.238C408.222 512.779 412.697 506.098 417.512 501.196C422.361 496.18 427.327 492.441 432.409 489.979C437.411 487.369 443.247 485.505 449.917 484.385L451.295 525.425C441.231 528.763 433.003 541.16 426.611 562.614C424.163 570.83 422.808 577.882 422.545 583.767C422.283 589.653 423.096 594.43 424.985 598.099C426.76 601.734 429.075 604.598 431.93 606.691C434.785 608.784 438.438 610.494 442.889 611.82C446.997 613.044 450.688 613.584 453.961 613.441C457.12 613.264 460.363 612.18 463.689 610.189C467.05 608.084 470.248 604.44 473.283 599.256C476.204 594.038 478.906 587.264 481.388 578.933C483.122 573.113 484.373 568.081 485.14 563.837C485.793 559.558 485.923 555.994 485.53 553.143C485.137 550.293 484.694 548.235 484.201 546.97C483.742 545.591 482.912 543.79 481.71 541.568L466.972 591.039L438.727 582.624ZM543.443 488.247L423.276 452.446L435.159 412.562L555.326 448.362L543.443 488.247ZM606.456 276.74L590.239 331.175L500.287 368.488L572.695 390.06L560.813 429.944L440.646 394.144L457.22 338.511L545.668 301.868L474.458 280.653L486.289 240.94L606.456 276.74Z" fill="black"/>
<path d="M667.052 653.644L650.835 708.079L560.883 745.392L633.291 766.964L621.409 806.849L501.242 771.048L517.816 715.415L606.263 678.772L535.053 657.557L546.885 617.844L667.052 653.644ZM585.615 489.094L721.504 470.872L707.735 517.09L684.833 520.144L667.136 579.543L684.633 594.633L670.965 640.509L567.154 551.061L585.615 489.094ZM636.791 555.034L646.022 524.051L609.884 530.244L636.791 555.034ZM697.191 406.721L723.149 319.591L763.034 331.474L725.193 458.488L605.026 422.688L616.909 382.803L697.191 406.721Z" fill="black"/>
<rect x="374.904" y="413.731" width="73.2314" height="53.584" rx="5.3584" transform="rotate(-148.41 374.904 413.731)" fill="white" stroke="#95A1AB" stroke-width="0.893066"/>
<rect x="366.663" y="389.006" width="34.9514" height="20.094" rx="10.047" transform="rotate(-148.41 366.663 389.006)" stroke="#95A1AB" stroke-width="0.893066"/>
<line x1="340.866" y1="369.734" x2="323.197" y2="358.868" stroke="#95A1AB" stroke-width="0.893066" stroke-linecap="round"/>
<line x1="330.682" y1="346.696" x2="348.352" y2="357.562" stroke="#95A1AB" stroke-width="0.893066" stroke-linecap="round"/>
<line x1="384.816" y1="396.761" x2="366.169" y2="385.295" stroke="#95A1AB" stroke-width="0.893066" stroke-linecap="round"/>
<line x1="373.655" y1="373.123" x2="392.301" y2="384.59" stroke="#95A1AB" stroke-width="0.893066" stroke-linecap="round"/>
<line x1="357.194" y1="359.069" x2="365.498" y2="345.566" stroke="#95A1AB" stroke-width="0.893066" stroke-linecap="round"/>
<line x1="377.601" y1="353.009" x2="369.297" y2="366.512" stroke="#95A1AB" stroke-width="0.893066" stroke-linecap="round"/>
<line x1="337.897" y1="390.449" x2="346.162" y2="377.01" stroke="#95A1AB" stroke-width="0.893066" stroke-linecap="round"/>
<line x1="358.264" y1="384.452" x2="349.999" y2="397.892" stroke="#95A1AB" stroke-width="0.893066" stroke-linecap="round"/>
<path d="M299.874 341.385C300.014 338.994 301.389 333.729 305.769 331.799M291.384 340.911C291.685 337.175 294.135 328.649 301.516 324.436M283.525 341.033C284.007 336.031 287.536 324.385 297.802 317.817M275.693 340.138C276.073 334.111 280.161 319.891 293.47 311.231" stroke="white" stroke-width="3.57227" stroke-linecap="round" stroke-linejoin="round"/>
<path fill-rule="evenodd" clip-rule="evenodd" d="M231.634 410.48C231.947 409.426 232.263 408.361 232.583 407.288C232.826 406.473 233.067 405.663 233.308 404.859C231.394 404.009 230.678 402.152 231.544 399.243C232.323 396.629 233.96 395.005 236.17 395.323C236.751 393.398 237.318 391.525 237.869 389.712C232.186 388.299 229.4 391.765 227.489 398.178C225.489 404.891 226.816 408.879 231.634 410.48ZM238.955 390.029C244.473 391.873 245.217 395.785 243.156 402.703C241.095 409.623 237.841 411.991 232.811 410.812C233.125 409.764 233.44 408.705 233.758 407.639C234 406.826 234.24 406.019 234.479 405.218C236.487 405.568 238.264 404.447 239.16 401.441C239.985 398.672 239.52 396.552 237.31 395.642C237.876 393.717 238.425 391.844 238.955 390.029ZM239.591 387.846C240.132 385.987 240.651 384.198 241.144 382.49C242.795 382.719 244.619 382.239 245.609 378.914C246.621 375.518 245.256 374.219 243.697 373.552C244.268 371.529 244.769 369.73 245.19 368.191C247.235 368.934 248.462 369.601 249.396 370.513C251.426 372.472 251.029 376.037 249.8 380.163C248.571 384.288 246.913 387.62 244.142 388.149C242.911 388.391 241.576 388.296 239.591 387.846ZM244.613 367.986C243.629 367.646 242.471 367.285 241.093 366.875L237.404 365.776L235.805 371.145L242.658 373.187C242.749 373.214 242.841 373.242 242.934 373.272C243.562 371.273 244.125 369.5 244.613 367.986ZM240.141 382.274C240.082 382.257 240.024 382.24 239.966 382.223L233.112 380.181L231.513 385.551L235.201 386.649C236.472 387.028 237.563 387.339 238.516 387.585C239.078 385.741 239.621 383.967 240.141 382.274ZM230.531 414.201C229.461 417.819 228.438 421.299 227.477 424.587L219.086 427.262L220.874 421.26L227.348 418.911L223.222 413.38L225.01 407.378L230.531 414.201ZM226.136 429.195C225.739 428.994 225.294 428.818 224.798 428.67C219.363 427.05 217.632 432.143 217.196 433.605L213.847 444.846L221.079 447C221.48 445.532 221.956 443.817 222.5 441.887L219.837 441.093L221.508 435.484C221.703 434.829 222.137 433.533 223.425 433.916C224.133 434.127 224.385 434.597 224.431 435.1C224.965 433.24 225.535 431.266 226.136 429.195ZM221.654 447.172L229.169 449.411L230.685 444.325L227.061 443.246L228.433 438.64L232.809 437.116L234.58 431.251L229.132 433.026C228.887 431.87 228.298 430.686 227.082 429.777C224.853 437.065 222.969 443.1 221.654 447.172ZM228.79 424.168L232.11 423.11L236.606 424.45L238.121 419.364L233.625 418.024L231.454 415.342C230.535 418.401 229.644 421.354 228.79 424.168Z" fill="black"/>
</g>
</g>
<defs>
<filter id="filter0_d_119_2547" x="-6.70721" y="-6.70718" width="1004.65" height="930.247" filterUnits="userSpaceOnUse" color-interpolation-filters="sRGB">
<feFlood flood-opacity="0" result="BackgroundImageFix"/>
<feColorMatrix in="SourceAlpha" type="matrix" values="0 0 0 0 0 0 0 0 0 0 0 0 0 0 0 0 0 0 127 0" result="hardAlpha"/>
<feOffset dy="4"/>
<feGaussianBlur stdDeviation="80"/>
<feComposite in2="hardAlpha" operator="out"/>
<feColorMatrix type="matrix" values="0 0 0 0 0 0 0 0 0 0 0 0 0 0 0 0 0 0 0.75 0"/>
<feBlend mode="normal" in2="BackgroundImageFix" result="effect1_dropShadow_119_2547"/>
<feBlend mode="normal" in="SourceGraphic" in2="effect1_dropShadow_119_2547" result="shape"/>
</filter>
<clipPath id="clip0_119_2547">
<rect x="650.81" y="759.54" width="584.065" height="357.226" rx="17.8613" transform="rotate(-148.41 650.81 759.54)" fill="white"/>
</clipPath>
</defs>
</svg>
