<svg width="192" height="128" viewBox="0 0 192 128" fill="none" xmlns="http://www.w3.org/2000/svg">
<path opacity="0.5" d="M89.5558 71.7478C88.6331 71.9284 87.6318 71.8101 86.8298 71.2978C85.8935 70.7295 85.2692 69.7112 85.1503 68.6249C85.1355 68.4037 85.1347 68.1817 85.1481 67.9603C85.2849 66.7113 86.2217 65.5678 87.458 65.2805C88.9772 66.9508 90.4961 68.6192 92.0239 70.2807C91.4002 71.0342 90.5123 71.5563 89.5558 71.7478ZM96.4148 69.6305C96.4668 68.9452 96.5158 68.2516 96.7368 67.594C96.9963 66.7661 97.455 65.9094 98.2725 65.5228C98.4398 65.4727 98.6129 65.4363 98.787 65.4207C98.7888 65.2632 98.779 65.1035 98.8188 64.9488C98.7715 64.7325 98.8379 64.5121 98.8148 64.2929C98.783 63.964 98.7871 63.6334 98.7963 63.3035C98.8206 62.8921 98.7629 62.4716 98.8188 62.0636C98.7945 61.9603 98.787 61.8559 98.7848 61.7515C97.7695 61.7417 96.7563 62.0244 95.8824 62.5373C94.5653 63.3104 93.5688 64.6286 93.221 66.1218C91.2565 64.0027 89.3296 61.8495 87.3705 59.727C86.9537 59.2579 86.7692 58.6084 86.8494 57.9899C86.9735 57.3213 87.3953 56.7045 88.0118 56.3994C88.4233 56.1732 88.9079 56.1386 89.3659 56.1963C90.0716 56.3123 90.682 56.8141 90.9716 57.4638C92.0619 56.8978 93.1759 56.3746 94.2617 55.796C94.0736 55.4434 93.8774 55.0926 93.6305 54.7775C92.546 53.3445 90.7673 52.4503 88.9644 52.4937C86.8793 52.4583 84.8503 53.6844 83.8685 55.516C83.2465 56.644 83.0157 57.9825 83.2299 59.2523C83.4184 60.4361 83.9868 61.5553 84.8313 62.404C83.8534 62.9832 83.0158 63.8025 82.4297 64.7775C81.7558 65.888 81.4206 67.1959 81.4591 68.4928C81.5002 69.7718 81.8786 71.0428 82.5646 72.1246C83.588 73.7717 85.3062 74.967 87.2071 75.3554C88.1752 75.5573 89.1802 75.5457 90.1546 75.3871C91.8145 75.0807 93.3553 74.2344 94.5306 73.0257C95.0204 73.5899 95.5368 74.1305 96.0368 74.6861C97.6996 74.6832 99.3629 74.693 101.026 74.6815C99.4824 73.0044 97.9495 71.3168 96.4149 69.6305M30.368 64.4036C29.7449 65.0688 28.8657 65.4495 27.9668 65.5505C27.3207 65.5777 26.6739 65.5574 26.0273 65.5633V56.6382C26.7859 56.6573 27.559 56.5724 28.3026 56.7611C29.2009 56.9584 30.0351 57.4505 30.6155 58.1665C32.0555 59.9301 31.9454 62.7611 30.368 64.4036ZM35.217 59.1571C34.8045 57.3582 33.7799 55.6863 32.2921 54.5802C30.8688 53.5074 29.0763 52.9858 27.3052 52.9778C25.5887 52.9783 23.8725 52.9778 22.1567 52.9778C22.1561 60.2147 22.1561 67.4498 22.1567 74.6862H26.0273C26.0273 72.8747 26.0266 71.0625 26.0273 69.2516C26.9532 69.2337 27.8872 69.3047 28.8068 69.1663C30.3144 68.9545 31.7533 68.269 32.8534 67.2162C34.3286 65.8276 35.2233 63.87 35.4074 61.8618C35.4536 60.9566 35.4391 60.041 35.217 59.1573M50.681 52.9782C51.9824 52.9777 53.2841 52.9793 54.5855 52.9777C54.5942 53.0982 54.6018 53.2188 54.6051 53.3399C54.6023 53.5799 54.6033 53.8199 54.6023 54.0611C54.6028 54.3011 54.6045 54.5417 54.6023 54.7822C54.6023 55.1319 54.6045 55.4815 54.6023 55.8311C54.6028 55.9407 54.6028 56.0504 54.6034 56.1601C54.5879 56.6844 54.6109 57.2094 54.6023 57.7344C54.6081 58.4562 54.5879 59.1772 54.6023 59.8984C54.6057 61.0142 54.6028 62.1293 54.6023 63.244C54.6028 63.4401 54.6023 63.6363 54.6045 63.8342C54.5907 64.0747 54.5907 64.3159 54.6045 64.5565C54.6023 64.7313 54.6028 64.9055 54.6028 65.0804C54.577 65.8418 54.6393 66.6046 54.5596 67.3644C54.4471 68.6787 54.0888 69.9824 53.4339 71.1305C52.7641 72.3191 51.7691 73.3211 50.5805 73.9909C49.2543 74.7433 47.7178 75.0842 46.1999 75.0842C44.5112 75.1026 42.7938 74.6987 41.3601 73.7861C39.9808 72.919 38.9162 71.5846 38.3278 70.069C37.8397 68.8413 37.6516 67.5103 37.6614 66.195C37.662 61.7896 37.6614 57.3842 37.6614 52.9782C38.9728 52.9777 40.2842 52.9777 41.5955 52.9777C41.5961 57.4736 41.5955 61.9684 41.5961 66.4633C41.6353 67.7238 41.9065 69.0553 42.7505 70.0345C43.4411 70.8536 44.4951 71.2904 45.548 71.3728C46.6454 71.4807 47.817 71.3325 48.7643 70.7342C49.5253 70.2553 50.0475 69.469 50.3232 68.6249C50.5349 68.0151 50.6129 67.3701 50.6653 66.7303C50.6994 65.1524 50.6705 63.5745 50.6798 61.9955C50.6798 58.991 50.6798 55.9839 50.6809 52.9782M69.4032 52.9822C70.706 52.9737 72.0086 52.98 73.3101 52.9777C73.3113 58.9679 73.3101 64.9562 73.3113 70.9448C75.5394 70.9477 77.7686 70.9385 79.9973 70.9488C79.9955 72.1938 79.9962 73.4382 79.9973 74.6832C76.4654 74.689 72.9347 74.689 69.4038 74.6832C69.4038 67.4498 69.4038 60.2157 69.4032 52.9822ZM112.531 68.8903C112.433 69.4043 112.154 69.889 111.738 70.2092C111.243 70.6044 110.624 70.8018 110.012 70.9113C108.836 71.1057 107.641 71.0054 106.454 71.0307C106.456 69.1476 106.453 67.264 106.456 65.3815C107.341 65.3873 108.224 65.366 109.108 65.3959C109.966 65.4495 110.861 65.5793 111.587 66.068C112.101 66.3998 112.45 66.9623 112.543 67.5652C112.61 68.0047 112.606 68.4521 112.531 68.8903ZM106.454 56.5171C107.324 56.5292 108.201 56.4697 109.064 56.6197C109.683 56.7341 110.314 56.9781 110.732 57.4696C111.127 57.9414 111.258 58.5773 111.243 59.1795C111.258 59.8632 111.031 60.5821 110.512 61.0464C109.964 61.5305 109.221 61.718 108.509 61.77C107.823 61.7849 107.14 61.7722 106.454 61.7763V56.5171ZM115.971 65.5016C115.439 64.395 114.49 63.5151 113.392 62.982C113.396 62.9604 113.4 62.9387 113.403 62.9169C114.204 62.2194 114.784 61.2669 115.008 60.2261C115.176 59.4697 115.138 58.685 115.018 57.9242C114.863 57.1823 114.585 56.4617 114.164 55.8295C113.556 54.9126 112.687 54.1794 111.7 53.6983C110.907 53.3283 110.036 53.1738 109.174 53.0694C108.648 53.0325 108.125 52.9897 107.599 52.9804C105.922 52.9741 104.244 52.98 102.565 52.9777V74.6861C105.031 74.6739 107.497 74.7116 109.962 74.6671C111.712 74.5228 113.456 73.849 114.721 72.6074C115.703 71.6729 116.367 70.4024 116.53 69.0536C116.652 67.8507 116.506 66.596 115.971 65.5015M118.633 52.9777C123.08 52.9777 127.527 52.9777 131.972 52.9782C131.971 54.1984 131.978 55.4185 131.969 56.6388C128.824 56.6411 125.678 56.6313 122.532 56.644C122.534 58.3532 122.534 60.0624 122.532 61.7716C125.518 61.7833 128.503 61.7734 131.489 61.7763C131.49 62.9781 131.489 64.1803 131.49 65.3804C128.504 65.3844 125.519 65.3775 122.534 65.3844C122.532 67.264 122.535 69.1448 122.532 71.025C125.678 71.0383 128.825 71.0267 131.972 71.0307C131.974 72.2497 131.972 73.4671 131.972 74.6861H118.633V52.9775M140.805 65.3671C141.676 63.1852 142.551 61.0055 143.409 58.8191C144.278 60.9998 145.131 63.1868 146.007 65.3659C144.273 65.3714 142.539 65.3718 140.805 65.367V65.3671ZM144.965 53.0272C144.943 52.9129 144.805 52.9394 144.726 52.9337C143.847 52.936 142.967 52.936 142.089 52.9337C142.005 52.9434 141.881 52.9101 141.84 53.0029C138.892 60.2299 135.94 67.4565 132.993 74.6842C134.394 74.6889 135.794 74.686 137.195 74.686C137.927 72.8047 138.656 70.921 139.387 69.039C142.066 69.0408 144.744 69.039 147.422 69.0408C148.152 70.9227 148.876 72.808 149.612 74.6871C151.104 74.6831 152.597 74.69 154.09 74.6831C151.05 67.4641 148.006 60.2457 144.965 53.0272ZM164.525 61.0811C164.325 61.7878 163.852 62.4132 163.218 62.7853C162.298 63.3391 161.192 63.4747 160.136 63.4736C159.726 63.4718 159.318 63.4718 158.91 63.4718V56.6382C160.022 56.6433 161.153 56.5753 162.24 56.8684C162.707 57.0062 163.171 57.1857 163.566 57.4777C164.072 57.8325 164.427 58.3811 164.577 58.9782C164.746 59.6677 164.715 60.3998 164.525 61.0811H164.525ZM167.789 71.1409C166.873 69.4125 165.998 67.6603 165.199 65.8747C165.824 65.5228 166.405 65.0861 166.902 64.564C167.535 63.9219 167.985 63.1217 168.282 62.2736C168.897 60.3623 168.83 58.1648 167.828 56.3954C167.371 55.5957 166.714 54.9149 165.944 54.4101C164.785 53.6353 163.412 53.251 162.043 53.0676C161.56 53.0295 161.079 52.9724 160.596 52.9777C158.731 52.98 156.868 52.9747 155.002 52.9804C155.004 60.2152 155.004 67.4498 155.002 74.6843C156.307 74.6872 157.607 74.689 158.91 74.6843V67.3939C159.034 67.3922 159.16 67.3911 159.286 67.3852C159.606 67.3386 159.932 67.3604 160.254 67.3172C160.586 67.2895 160.912 67.2237 161.245 67.2064C161.384 67.5699 161.562 67.916 161.722 68.2691C162.734 70.4463 163.826 72.5853 164.995 74.6816C166.614 74.692 168.23 74.6873 169.849 74.6833C169.116 73.5295 168.435 72.3433 167.789 71.1409ZM57.2336 52.9777H61.1324C61.1324 58.9667 61.1313 64.9562 61.1324 70.9448H67.8109C67.8109 72.192 67.8115 73.44 67.8109 74.6861H57.2336C57.233 67.4509 57.2336 60.2145 57.2336 52.9775" fill="black"/>
</svg>
