<svg width="192" height="128" viewBox="0 0 192 128" fill="none" xmlns="http://www.w3.org/2000/svg">
<path opacity="0.5" d="M44.3045 41.8516C32.0726 41.8516 22.1562 51.7677 22.1562 63.9996C22.1562 76.232 32.0726 86.1473 44.3045 86.1473C56.5377 86.1473 66.4531 76.232 66.4531 63.9996C66.4531 51.7685 56.5377 41.8526 44.3043 41.8526L44.3045 41.8516ZM54.4616 73.7954C54.3671 73.9502 54.2429 74.0849 54.0963 74.1918C53.9497 74.2986 53.7834 74.3755 53.607 74.418C53.4306 74.4605 53.2476 74.4678 53.0684 74.4394C52.8892 74.4111 52.7173 74.3477 52.5626 74.2529C47.3624 71.0765 40.816 70.3571 33.1065 72.1186C32.7495 72.1997 32.3749 72.1359 32.065 71.941C31.7551 71.746 31.5352 71.4361 31.4538 71.0792C31.4132 70.9024 31.4079 70.7194 31.4381 70.5406C31.4684 70.3619 31.5336 70.1908 31.63 70.0373C31.7265 69.8837 31.8523 69.7507 32.0002 69.6458C32.1481 69.541 32.3153 69.4663 32.4921 69.4262C40.929 67.4986 48.1659 68.3286 54.004 71.8964C54.6547 72.2958 54.861 73.1447 54.4616 73.7954ZM57.1725 67.7647C56.6726 68.5772 55.6094 68.8337 54.7975 68.3339C48.844 64.6745 39.769 63.6148 32.7272 65.7523C31.814 66.0281 30.8494 65.5135 30.5722 64.6018C30.44 64.1635 30.4869 63.6906 30.7028 63.2869C30.9187 62.8832 31.2858 62.5816 31.7238 62.4481C39.7674 60.0075 49.7671 61.1897 56.6039 65.391C57.4158 65.8909 57.6724 66.9541 57.1725 67.765V67.7647ZM57.4052 61.4849C50.2669 57.245 38.4897 56.8552 31.6743 58.9237C30.5799 59.2556 29.4226 58.6378 29.0909 57.5434C28.9314 57.0176 28.9873 56.45 29.2462 55.9653C29.5052 55.4807 29.946 55.1188 30.4717 54.9591C38.2953 52.5841 51.3011 53.043 59.5195 57.9218C59.7537 58.0604 59.9583 58.2438 60.1215 58.4616C60.2848 58.6793 60.4035 58.9271 60.4708 59.1908C60.5381 59.4545 60.5527 59.7289 60.5138 59.9982C60.4749 60.2676 60.3833 60.5266 60.2442 60.7605C59.6623 61.7449 58.3875 62.0694 57.4063 61.4849H57.4052ZM82.4144 62.2974C78.59 61.3855 77.9103 60.7454 77.9103 59.4005C77.9103 58.13 79.1058 57.2749 80.8857 57.2749C82.6101 57.2749 84.3186 57.9242 86.1118 59.2609C86.1647 59.3014 86.2335 59.3175 86.2996 59.3069C86.3328 59.3021 86.3648 59.2906 86.3934 59.2731C86.4221 59.2555 86.4468 59.2323 86.4662 59.2048L88.3334 56.5727C88.3703 56.5205 88.3859 56.4563 88.3771 56.393C88.3682 56.3297 88.3356 56.2722 88.2858 56.2321C86.1515 54.5201 83.75 53.6878 80.9412 53.6878C76.8127 53.6878 73.9272 56.1657 73.9272 59.711C73.9272 63.5129 76.416 64.8591 80.7164 65.8983C84.3742 66.7412 84.9931 67.4473 84.9931 68.7094C84.9931 70.1085 83.7447 70.9786 81.7347 70.9786C79.5025 70.9786 77.6802 70.2249 75.6437 68.4635C75.5929 68.4205 75.5276 68.3987 75.4612 68.4026C75.3925 68.4079 75.3316 68.4396 75.2893 68.4899L73.1946 70.9813C73.1074 71.0871 73.1179 71.2405 73.2184 71.3304C75.5882 73.4462 78.5027 74.5623 81.65 74.5623C86.0986 74.5623 88.9735 72.1318 88.9735 68.3682C88.9814 65.1926 87.0798 63.4339 82.4223 62.3008L82.4144 62.2974ZM99.0395 58.5259C97.1115 58.5259 95.5299 59.2855 94.2234 60.842V59.09C94.2237 59.0238 94.1976 58.9602 94.151 58.9131C94.1044 58.866 94.041 58.8394 93.9748 58.8391H90.5498C90.4122 58.8391 90.3012 58.9517 90.3012 59.09V78.556C90.3012 78.6935 90.4122 78.8072 90.5498 78.8072H93.9748C94.1123 78.8072 94.2234 78.6935 94.2234 78.556V72.4121C95.5299 73.8747 97.1115 74.5914 99.0395 74.5914C102.623 74.5914 106.252 71.8329 106.252 66.5595C106.257 61.285 102.629 58.5256 99.0422 58.5256L99.0395 58.5259ZM102.269 66.5595C102.269 69.2437 100.616 71.1188 98.2461 71.1188C95.9055 71.1188 94.1387 69.159 94.1387 66.5595C94.1387 63.9596 95.9055 62.0004 98.2461 62.0004C100.576 62.0001 102.269 63.9171 102.269 66.5592V66.5595ZM115.548 58.5259C110.933 58.5259 107.318 62.0795 107.318 66.6169C107.318 71.1056 110.909 74.6205 115.493 74.6205C120.124 74.6205 123.75 71.0792 123.75 66.5595C123.75 62.0551 120.148 58.5264 115.548 58.5264V58.5259ZM115.548 71.1453C113.094 71.1453 111.243 69.1723 111.243 66.5581C111.243 63.9321 113.031 62.0266 115.493 62.0266C117.963 62.0266 119.825 63.9988 119.825 66.6155C119.825 69.241 118.027 71.1453 115.548 71.1453ZM133.604 58.8391H129.836V54.9867C129.836 54.9539 129.829 54.9214 129.817 54.891C129.804 54.8607 129.786 54.8331 129.763 54.8098C129.74 54.7865 129.713 54.768 129.682 54.7553C129.652 54.7427 129.62 54.7361 129.587 54.7359H126.162C126.024 54.7359 125.911 54.8486 125.911 54.9867V58.8391H124.266C124.128 58.8391 124.017 58.9517 124.017 59.09V62.0329C124.017 62.171 124.128 62.2839 124.266 62.2839H125.911V69.8996C125.911 72.9755 127.442 74.5359 130.465 74.5359C131.692 74.5359 132.71 74.282 133.67 73.7372C133.75 73.6948 133.797 73.6102 133.797 73.5203V70.7168C133.797 70.6322 133.752 70.5502 133.678 70.5052C133.642 70.4822 133.601 70.4691 133.558 70.4672C133.515 70.4654 133.473 70.4748 133.435 70.4947C132.777 70.8253 132.139 70.9786 131.425 70.9786C130.327 70.9786 129.836 70.4788 129.836 69.3627V62.2852H133.604C133.742 62.2852 133.853 62.1726 133.853 62.0342V59.0916C133.854 59.0588 133.848 59.0261 133.837 58.9955C133.825 58.9648 133.807 58.9369 133.784 58.9135C133.761 58.89 133.733 58.8715 133.703 58.8589C133.672 58.8464 133.64 58.8402 133.607 58.8406L133.604 58.8391ZM146.733 58.8541V58.381C146.733 56.989 147.267 56.3683 148.463 56.3683C149.177 56.3683 149.751 56.5101 150.393 56.7243C150.473 56.7491 150.555 56.7367 150.618 56.6894C150.65 56.6661 150.677 56.6355 150.695 56.6001C150.713 56.5647 150.722 56.5254 150.721 56.4857V53.6003C150.722 53.5464 150.705 53.4937 150.673 53.4504C150.641 53.407 150.596 53.3752 150.544 53.3598C149.867 53.158 149 52.951 147.698 52.951C144.538 52.951 142.864 54.732 142.864 58.0996V58.8242H141.219C141.081 58.8242 140.967 58.9369 140.967 59.075V62.0329C140.967 62.171 141.081 62.2839 141.219 62.2839H142.864V74.0281C142.864 74.1683 142.977 74.2794 143.115 74.2794H146.537C146.678 74.2794 146.789 74.1683 146.789 74.0281V62.2847H149.986L154.884 74.0281C154.329 75.2606 153.781 75.5065 153.036 75.5065C152.433 75.5065 151.795 75.3267 151.147 74.9696C151.086 74.9386 151.015 74.932 150.949 74.9511C150.883 74.9749 150.827 75.0225 150.801 75.086L149.64 77.6329C149.584 77.7546 149.632 77.8948 149.748 77.9583C150.959 78.6142 152.052 78.8945 153.403 78.8945C155.932 78.8945 157.331 77.7149 158.561 74.5465L164.501 59.1969C164.516 59.159 164.522 59.1177 164.517 59.077C164.513 59.0363 164.498 58.9974 164.474 58.9639C164.452 58.9303 164.422 58.9028 164.386 58.8838C164.351 58.8648 164.311 58.8549 164.271 58.8549H160.706C160.597 58.8549 160.502 58.9229 160.467 59.0231L156.815 69.4526L152.816 59.0163C152.798 58.969 152.766 58.9282 152.725 58.8994C152.683 58.8706 152.634 58.8551 152.583 58.8549H146.733V58.8541ZM139.121 58.8391H135.696C135.559 58.8391 135.445 58.9517 135.445 59.09V74.0281C135.445 74.1683 135.559 74.2794 135.696 74.2794H139.121C139.259 74.2794 139.373 74.1683 139.373 74.0281V59.0911C139.373 59.0581 139.366 59.0254 139.354 58.9949C139.341 58.9644 139.323 58.9367 139.299 58.9134C139.276 58.8901 139.248 58.8716 139.218 58.859C139.187 58.8464 139.154 58.84 139.121 58.8401V58.8391ZM137.429 52.0369C136.072 52.0369 134.972 53.135 134.972 54.4915C134.972 54.8142 135.035 55.1337 135.159 55.4318C135.282 55.7298 135.463 56.0007 135.691 56.2288C135.92 56.457 136.19 56.6379 136.488 56.7614C136.787 56.8848 137.106 56.9483 137.429 56.9483C138.785 56.9483 139.883 55.8489 139.883 54.4915C139.883 53.1353 138.783 52.0369 137.429 52.0369ZM167.426 63.6423C166.072 63.6423 165.017 62.5539 165.017 61.2323C165.017 59.9107 166.085 58.81 167.439 58.81C168.793 58.81 169.849 59.898 169.849 61.2186C169.849 62.5402 168.78 63.6423 167.426 63.6423ZM167.439 59.0496C166.204 59.0496 165.27 60.0308 165.27 61.2323C165.27 62.4333 166.199 63.4013 167.426 63.4013C168.661 63.4013 169.595 62.4209 169.595 61.2186C169.595 60.0176 168.666 59.0496 167.439 59.0496ZM167.973 61.4664L168.656 62.4206H168.079L167.466 61.5452H166.939V62.4206H166.458V59.8912H167.585C168.174 59.8912 168.561 60.1919 168.561 60.6981C168.563 61.1128 168.323 61.3662 167.976 61.4664H167.973ZM167.566 60.3252H166.939V61.1252H167.566C167.878 61.1252 168.066 60.9721 168.066 60.7248C168.066 60.4645 167.878 60.3252 167.566 60.3252Z" fill="black"/>
</svg>
