<svg width="183" height="183" viewBox="0 0 183 183" fill="none" xmlns="http://www.w3.org/2000/svg">
<path fill-rule="evenodd" clip-rule="evenodd" d="M132.499 40.4713L126.34 43.6386L127.396 36.7761L122.469 32.0252L129.331 30.9694L132.499 24.6348L135.49 30.9694L142.352 32.0252L137.425 36.7761L138.657 43.6386L132.499 40.4713ZM81.9945 138.482L85.1618 144.641L92.0243 145.697L87.0974 150.624L88.1531 157.486L81.9945 154.143L75.8358 157.486L77.0675 150.624L72.1406 145.697L79.0031 144.641L81.9945 138.482ZM38.5328 70.2081L46.5531 50.7996L59.1203 69.3283L61.6946 47.2874L80.4116 59.2985L74.524 39.6225C77.0472 37.6693 79.0338 35.7883 80.4556 34.2926C81.1243 33.587 81.0961 32.4732 80.3923 31.8045C79.6884 31.1376 78.5746 31.1658 77.9042 31.8679C73.9046 36.0804 65.2068 43.557 51.8935 46.3161C43.6779 48.0599 35.0311 47.7079 26.8929 45.2937C25.9621 45.021 24.982 45.5489 24.7057 46.4815C24.4295 47.4141 24.9626 48.3924 25.8935 48.6687C27.771 49.2247 29.6784 49.6435 31.5964 49.9937L38.5328 70.2081ZM157.637 135.177C158.594 134.966 159.525 135.58 159.727 136.529C159.933 137.479 159.328 138.415 158.378 138.617L157.767 138.749L157.76 138.751C156.012 139.129 154.24 139.511 152.212 139.684L141.996 156.606L137.326 139.385L122.288 151.503L125.997 130.724C124.444 129.393 122.939 127.922 121.489 126.265C120.85 125.535 120.924 124.423 121.656 123.782C122.385 123.142 123.495 123.214 124.139 123.949C125.441 125.436 126.786 126.758 128.172 127.954L132.696 131.26C134.702 132.473 136.803 133.446 139.02 134.169C148.184 137.225 152.472 136.295 157.016 135.31L157.019 135.309L157.637 135.177ZM140.766 112.264C140.766 116.436 144.16 119.83 148.332 119.83C152.504 119.83 155.898 116.436 155.898 112.264C155.898 108.092 152.504 104.697 148.332 104.697C144.16 104.697 140.766 108.092 140.766 112.264ZM148.332 108.216C150.565 108.216 152.379 110.031 152.379 112.264C152.379 114.497 150.565 116.311 148.332 116.311C146.099 116.311 144.285 114.495 144.285 112.264C144.285 110.032 146.099 108.216 148.332 108.216ZM31.3671 95.0379C31.844 94.1898 32.912 93.8871 33.7637 94.3675C35.8312 95.5323 38.2982 94.9569 39.5036 93.0302C40.6262 91.0312 40.0526 88.5643 38.1275 87.3607C37.304 86.8451 37.0542 85.7594 37.568 84.9359C38.0836 84.1124 39.1675 83.8626 39.9927 84.3764C43.5419 86.5953 44.6311 91.0875 42.5283 94.8267C41.0397 97.211 38.5833 98.4973 36.0125 98.4973C34.6787 98.4973 33.315 98.1524 32.0375 97.4327C31.1911 96.9576 30.8902 95.886 31.3671 95.0379ZM113.894 105.03L124.833 99.4099C126.301 98.6752 127.754 97.7675 129.234 96.8436L129.25 96.8338L145.29 86.079C147.865 84.2772 148.551 80.6013 146.779 77.8229C146.255 77.0716 145.558 76.5032 144.782 76.0862C146.418 74.1277 146.682 71.1786 145.195 68.8471C144.527 67.8934 143.599 67.2019 142.558 66.7972C143.452 64.9478 143.409 62.648 142.202 60.7529C141.551 59.8238 140.652 59.1499 139.642 58.7399C139.82 58.3299 139.961 57.9076 140.031 57.4782C140.311 55.8084 139.913 54.1051 139.035 53.0106C137.231 50.4398 133.557 49.75 130.807 51.5026L116.595 61.0291L112.294 50.3465C110.582 46.2871 106.296 43.9345 102.06 44.6946H101.875C101.77 44.6946 101.664 44.7034 101.56 44.7228C100.16 44.9779 98.9264 45.8753 98.1732 47.1845C97.3832 48.564 97.2301 50.1846 97.7632 51.6469L101.974 62.8715C103.077 66.0229 102.87 69.1885 101.372 72.032L97.1069 80.1632L94.7701 76.702C94.2247 75.8961 93.1302 75.6832 92.326 76.2287L72.0535 89.9132C71.6664 90.1737 71.3989 90.5784 71.3109 91.0359C71.223 91.4934 71.3197 91.9685 71.5802 92.3556L73.1445 94.6712L27.0513 122.906C26.6413 123.158 26.3528 123.564 26.2507 124.034C26.1487 124.506 26.2454 124.995 26.5129 125.392L45.6927 153.722C45.9619 154.122 46.3825 154.391 46.8558 154.472C46.9543 154.488 47.0511 154.496 47.1497 154.496C47.5262 154.496 47.8957 154.377 48.2019 154.148L91.5113 121.877L92.8469 123.856C93.1865 124.359 93.7408 124.63 94.3074 124.63C94.6452 124.63 94.9883 124.532 95.291 124.33L115.564 110.647C115.951 110.386 116.218 109.982 116.306 109.522C116.396 109.063 116.299 108.59 116.039 108.203L113.894 105.03ZM104.488 73.6685C106.422 69.9961 106.709 65.7484 105.284 61.6732L101.066 50.4275C100.897 49.9647 100.959 49.4069 101.23 48.9371C101.439 48.5711 101.742 48.3142 102.074 48.2139H102.227C102.342 48.2139 102.46 48.2033 102.572 48.1787C105.233 47.6473 107.964 49.1306 109.042 51.6856L114.144 64.3548C114.341 64.8475 114.752 65.2241 115.259 65.3789C115.764 65.5355 116.318 65.4546 116.757 65.159L132.736 54.4482C133.849 53.7443 135.444 54.0153 136.221 55.1186C136.543 55.5215 136.677 56.2184 136.563 56.8993C136.471 57.4448 136.074 58.0536 135.537 58.3792L135.076 58.6977C134.691 58.8455 134.314 59.0285 133.955 59.259L127.093 64.0099C126.294 64.5624 126.095 65.6604 126.647 66.4593C127.198 67.2564 128.296 67.457 129.097 66.9045L129.968 66.301C130.216 66.2605 130.459 66.1778 130.68 66.0247L136.605 61.9177C137.61 61.6468 138.739 61.9406 139.278 62.7078C139.985 63.8181 139.714 65.4176 138.706 66.1232L131.843 70.8742C131.835 70.8797 131.829 70.8872 131.823 70.8949C131.818 70.9018 131.812 70.9088 131.805 70.9147L130.084 72.1059C129.285 72.6584 129.086 73.7564 129.639 74.5553C130.191 75.3524 131.286 75.5513 132.088 75.0005L138.894 70.2882C140.006 69.5809 141.604 69.8536 142.271 70.8038C142.978 71.9141 142.706 73.5119 141.697 74.2175L138.972 76.1055C138.916 76.1352 138.859 76.1618 138.802 76.1884C138.71 76.2311 138.619 76.2737 138.532 76.329L131.671 81.08C130.872 81.6325 130.673 82.7305 131.226 83.5293C131.778 84.3265 132.873 84.527 133.675 83.9745L136.445 82.0565C136.582 82.0055 136.718 81.951 136.843 81.863L140.751 79.1567C141.84 78.6376 143.239 78.898 143.856 79.7778C144.564 80.8882 144.293 82.4859 143.307 83.1774L127.318 93.897L127.314 93.8994L127.314 93.8994C125.911 94.7748 124.587 95.6009 123.248 96.2725L111.916 102.095L99.3487 83.4783L104.488 73.6685ZM47.5773 150.224L30.4615 124.944L75.117 97.5922L89.5388 118.957L47.5773 150.224ZM94.7789 120.427L93.6897 118.813C93.6387 118.641 93.5824 118.468 93.4768 118.313L77.1124 94.2085C77.0969 94.1851 77.0765 94.1683 77.056 94.1513C77.0394 94.1376 77.0228 94.1237 77.0086 94.1064L75.4812 91.8453L92.8363 80.1298L112.132 108.715L94.7789 120.427ZM99.5906 110.151H96.9512C95.8954 110.151 95.0156 109.271 95.0156 108.216V105.576C95.0156 104.52 95.8954 103.641 96.9512 103.641H99.5906C100.646 103.641 101.526 104.52 101.526 105.576V108.216C101.526 109.271 100.646 110.151 99.5906 110.151Z" fill="url(#paint0_linear_119_3098)"/>
<defs>
<linearGradient id="paint0_linear_119_3098" x1="92.2002" y1="24.6348" x2="92.2002" y2="192.001" gradientUnits="userSpaceOnUse">
<stop stop-color="#D5FF40"/>
<stop offset="1" stop-color="#D5FF40" stop-opacity="0"/>
</linearGradient>
</defs>
</svg>
