<svg width="32" height="32" viewBox="0 0 32 32" fill="none" xmlns="http://www.w3.org/2000/svg">
<path d="M23.9411 10.9334C23.4127 11.161 22.8573 11.3194 22.2884 11.4049C22.5544 11.3593 22.9457 10.8801 23.1015 10.6862C23.3381 10.3937 23.5185 10.0597 23.6334 9.7013C23.6334 9.67468 23.66 9.63665 23.6334 9.61764C23.62 9.61032 23.6049 9.60648 23.5897 9.60648C23.5744 9.60648 23.5594 9.61032 23.546 9.61764C22.9283 9.95244 22.2709 10.208 21.5894 10.3782C21.5656 10.3854 21.5403 10.3861 21.5162 10.3801C21.4921 10.374 21.4701 10.3615 21.4526 10.344C21.3995 10.2807 21.3424 10.221 21.2816 10.1652C21.0036 9.91594 20.6882 9.71191 20.347 9.5606C19.8863 9.37145 19.3888 9.28953 18.8919 9.32103C18.4097 9.35151 17.939 9.48095 17.5089 9.7013C17.0854 9.93361 16.7132 10.2492 16.4147 10.6292C16.1007 11.0202 15.874 11.474 15.7498 11.9601C15.6475 12.4224 15.6358 12.9003 15.7156 13.3671C15.7156 13.4469 15.7156 13.4583 15.6473 13.4469C12.9384 13.0477 10.7158 12.0856 8.89971 10.0207C8.81992 9.92946 8.77813 9.92946 8.71354 10.0207C7.92329 11.2224 8.30702 13.1237 9.29483 14.063C9.42781 14.1885 9.56458 14.3101 9.70896 14.4242C9.25605 14.392 8.8142 14.2692 8.4096 14.063C8.33361 14.0135 8.29182 14.0401 8.28802 14.1314C8.27725 14.2579 8.27725 14.3852 8.28802 14.5117C8.3673 15.1181 8.60605 15.6925 8.97987 16.1762C9.35369 16.6599 9.84917 17.0356 10.4156 17.2648C10.5537 17.324 10.6976 17.3686 10.8449 17.3979C10.4257 17.4805 9.99564 17.4934 9.57218 17.4359C9.481 17.4169 9.44681 17.4664 9.481 17.5538C10.0395 19.0749 11.2515 19.5388 12.1405 19.7974C12.2621 19.8164 12.3837 19.8164 12.5204 19.8468C12.5204 19.8468 12.5204 19.8468 12.4976 19.8696C12.2355 20.3488 11.1755 20.672 10.6892 20.8393C9.80154 21.1584 8.85515 21.2804 7.91569 21.1968C7.76752 21.174 7.73332 21.1778 7.69533 21.1968C7.65734 21.2158 7.69533 21.2576 7.73712 21.2956C7.92709 21.4211 8.11705 21.5314 8.31462 21.6379C8.90276 21.959 9.52455 22.214 10.1687 22.3984C13.5045 23.3187 17.2582 22.6418 19.7619 20.151C21.7299 18.1965 22.4214 15.5004 22.4214 12.8005C22.4214 12.6978 22.5468 12.637 22.619 12.5837C23.1169 12.1954 23.5558 11.7369 23.9221 11.2224C23.9856 11.1457 24.0181 11.048 24.0133 10.9486C24.0133 10.8915 24.0133 10.9029 23.9411 10.9334Z" fill="white"/>
</svg>
