<svg width="71" height="57" viewBox="0 0 71 57" fill="none" xmlns="http://www.w3.org/2000/svg">
<path d="M23.5516 19.5911C23.5516 19.4463 23.5516 17.3398 23.5516 17.3398H22.2874C22.2874 17.3398 22.2874 19.4136 22.2874 19.4791C22.2874 19.862 21.9289 20.1189 21.3251 20.1189C20.693 20.1189 20.3487 19.8713 20.3487 19.4743C20.3487 19.4089 20.3487 17.3398 20.3487 17.3398H19.0703C19.0703 17.3398 19.0703 19.3062 19.0703 19.4743C19.0703 20.5859 19.9901 21.0577 21.2732 21.0577C22.6459 21.0577 23.5516 20.5812 23.5516 19.5911Z" fill="#E2B234"/>
<path d="M27.8095 21.0063V20.0301H25.5548V17.3398H24.2764V21.0063H27.8095Z" fill="#E2B234"/>
<path d="M31.6074 18.26V17.3398H27.1875V18.26H28.7488V21.0063H30.0413V18.26H31.6074Z" fill="#E2B234"/>
<path d="M33.307 21.0063V17.3398H32.0098V21.0063H33.307Z" fill="#E2B234"/>
<path d="M39.2599 21.0063V17.3398H37.6608L36.6514 19.5398L35.6891 17.3398H34.0381V21.0063H35.241V19.026L36.1089 21.0063H37.1844L38.0618 19.026V21.0063H39.2599Z" fill="#E2B234"/>
<path d="M41.2603 20.329H43.2604L43.5859 21.0063H44.9491L43.0812 17.3398H41.5575L39.5811 21.0063H40.916L41.2603 20.329ZM42.8594 19.507H41.6755L42.1424 18.6242L42.2839 18.288L42.4161 18.6196L42.8594 19.507Z" fill="#E2B234"/>
<path d="M48.9608 18.26V17.3398H44.541V18.26H46.1023V21.0063H47.3949V18.26H48.9608Z" fill="#E2B234"/>
<path d="M53.2596 21.0063V20.0955H50.6048V19.6191H53.1512V18.727H50.6048V18.2553H53.227V17.3398H49.3594V21.0063H53.2596Z" fill="#E2B234"/>
<path d="M28.7111 22.9551H27.4893C27.4893 22.9551 26.6921 25.2623 26.6921 25.3184C26.6921 25.2623 25.9468 22.9551 25.9468 22.9551H24.6213C24.6213 22.9551 23.8807 25.2623 23.8807 25.3184C23.8807 25.2623 23.0788 22.9551 23.0788 22.9551H21.7061L23.093 26.6215H24.4751C24.4751 26.6215 25.2204 24.431 25.2251 24.3703C25.2298 24.431 25.9704 26.6215 25.9704 26.6215H27.3572L28.7111 22.9551Z" fill="#E2B234"/>
<path d="M30.3802 26.6215V22.9551H29.083V26.6215H30.3802Z" fill="#E2B234"/>
<path d="M35.4276 26.6215V22.9551H34.22V24.9494L32.4416 22.9551H31.1113V26.6215H32.3284V24.5804L34.1634 26.6215H35.4276Z" fill="#E2B234"/>
<path d="M40.4802 26.6215V22.9551H39.2726V24.9494L37.4943 22.9551H36.1641V26.6215H37.381V24.5804L39.216 26.6215H40.4802Z" fill="#E2B234"/>
<path d="M45.1218 26.6215V25.7107H42.4661V25.2343H45.0133V24.3423H42.4661V23.8705H45.0888V22.9551H41.2207V26.6215H45.1218Z" fill="#E2B234"/>
<path d="M50.1058 24.0713C50.1058 23.7398 50.0252 23.5015 49.8554 23.3287C49.6337 23.0952 49.2519 22.9551 48.6666 22.9551H45.7188V26.6215H46.9782V25.3278H48.1245L49.0446 26.6215H50.4502L49.3325 25.1269C49.5819 25.0895 49.7853 24.9401 49.9168 24.7626C50.0348 24.5991 50.1058 24.3562 50.1058 24.0713ZM48.8796 24.1881C48.8796 24.2489 48.87 24.3236 48.8364 24.3796C48.7894 24.473 48.6666 24.5104 48.4641 24.5104H46.9829V23.8425H48.4402C48.6388 23.8425 48.7712 23.8752 48.8364 23.9967C48.87 24.0433 48.8796 24.1181 48.8796 24.1881Z" fill="#E2B234"/>
<path d="M24.0802 30.2291C24.0802 30.1692 24.0802 28.4375 24.0802 28.4375H23.6386C23.6386 28.4375 23.6386 30.162 23.6386 30.2009C23.6386 30.617 23.2432 30.8533 22.6733 30.8533C22.0001 30.8533 21.6688 30.5994 21.6688 30.1974C21.6688 30.1585 21.6688 28.4375 21.6688 28.4375H21.2236C21.2236 28.4375 21.2236 30.1162 21.2236 30.1832C21.2236 30.9168 21.8007 31.2412 22.6555 31.2412C23.5388 31.2412 24.0802 30.8956 24.0802 30.2291Z" fill="#E2B234"/>
<path d="M27.252 31.206V30.8004H25.3251V28.4375H24.8799V31.206H27.252Z" fill="#E2B234"/>
<path d="M29.7822 28.8395V28.4375H26.8115V28.8395H28.0724V31.206H28.5213V28.8395H29.7822Z" fill="#E2B234"/>
<path d="M32.9478 29.2204C32.9478 29.0229 32.905 28.8783 32.8303 28.7619C32.6984 28.5679 32.4455 28.4375 32.0253 28.4375H30.2158V31.206H30.6539V30.0386H31.929L32.7091 31.206H33.222L32.3779 29.9645C32.5915 29.9399 32.759 29.8199 32.848 29.6648C32.9122 29.559 32.9478 29.4038 32.9478 29.2204ZM32.5061 29.2556C32.5061 29.3333 32.4883 29.4285 32.4563 29.492C32.3993 29.5942 32.2674 29.6471 32.0538 29.6507H30.6575C30.6575 29.6436 30.6575 28.8325 30.6575 28.8325H31.9718C32.2389 28.8325 32.3814 28.896 32.4563 29.0159C32.4883 29.0723 32.5061 29.1675 32.5061 29.2556Z" fill="#E2B234"/>
<path d="M34.2166 30.5218H35.9585L36.3146 31.206H36.7919L35.3742 28.4375H34.8507L33.3867 31.206H33.8533L34.2166 30.5218ZM35.7732 30.1303H34.409L34.9753 29.0688L35.1 28.8113L35.2247 29.0688L35.7732 30.1303Z" fill="#E2B234"/>
<path d="M41.3075 30.9415C41.418 30.8145 41.4678 30.6347 41.4678 30.4407C41.4678 30.2573 41.4144 30.0739 41.304 29.961C41.1935 29.8553 41.0155 29.7671 40.8195 29.7495C40.9335 29.7318 41.0226 29.6613 41.0831 29.5872C41.1793 29.4778 41.2362 29.3015 41.2362 29.1252C41.2362 28.9382 41.1793 28.769 41.0582 28.6526C40.9264 28.5221 40.702 28.4375 40.3885 28.4375H38.5078V31.206H40.5275C40.905 31.206 41.1686 31.1108 41.3075 30.9415ZM40.7767 29.2134C40.7767 29.3368 40.7376 29.4461 40.67 29.5096C40.6022 29.5837 40.4882 29.6154 40.3671 29.6154H38.9424V28.8184H40.2852C40.4491 28.8184 40.5737 28.8501 40.6592 28.9277C40.734 28.9982 40.7767 29.1005 40.7767 29.2134ZM40.9192 30.6734C40.8302 30.7722 40.6771 30.8216 40.4526 30.8216H38.9424V29.9999H40.4634C40.67 29.9999 40.8124 30.0421 40.8979 30.1233C40.9762 30.1974 41.0084 30.2926 41.0084 30.4019C41.0084 30.5148 40.9834 30.61 40.9192 30.6734Z" fill="#E2B234"/>
<path d="M44.6991 31.206V30.8004H42.5264V30.0104H44.6136V29.6084H42.5264V28.8395H44.6742V28.4375H42.0918V31.206H44.6991Z" fill="#E2B234"/>
<path d="M48.1801 30.3876C48.1801 29.9361 47.8779 29.7034 47.1333 29.6187C47.0083 29.6012 46.7376 29.5729 46.5915 29.5553C45.9005 29.4741 45.6904 29.3825 45.6904 29.1462C45.6904 28.917 45.9219 28.7864 46.62 28.7864C47.1612 28.7864 47.4394 28.8923 47.5785 29.0827C47.6179 29.1356 47.639 29.1991 47.6495 29.2484H48.1264C48.1129 29.1673 48.0803 29.0544 48.0304 28.9628C47.8385 28.6348 47.4432 28.3985 46.62 28.3985C45.637 28.3949 45.2309 28.7477 45.2309 29.185C45.2309 29.6223 45.5479 29.8445 46.3708 29.9397C46.5132 29.9573 46.766 29.9855 46.8908 29.9997C47.5286 30.0772 47.7282 30.1725 47.7282 30.437C47.7282 30.6804 47.4998 30.8567 46.7696 30.8567C46.1713 30.8567 45.8506 30.7509 45.7224 30.5463C45.6833 30.4899 45.6584 30.4017 45.6548 30.3418H45.1846C45.1953 30.4687 45.2309 30.6063 45.295 30.7156C45.4803 31.0507 45.9148 31.2447 46.7554 31.2447C47.7599 31.2447 48.1801 30.9237 48.1801 30.3876Z" fill="#E2B234"/>
<path d="M51.3738 28.8395V28.4375H48.4033V28.8395H49.664V31.206H50.1131V28.8395H51.3738Z" fill="#E2B234"/>
<path d="M19.9658 33.6123C19.9658 33.3302 19.9088 33.1397 19.8126 32.9951C19.6773 32.787 19.4136 32.6777 18.9542 32.6777H17.1875V35.4462H17.6291V34.5433C17.6291 34.5433 18.8759 34.5433 18.9364 34.5433C19.3674 34.5398 19.663 34.4411 19.8198 34.2154C19.9195 34.0778 19.9658 33.8803 19.9658 33.6123ZM19.517 33.6123C19.517 33.7533 19.5027 33.8592 19.4564 33.9297C19.3745 34.0602 19.2071 34.1413 18.8616 34.1413C18.8295 34.1413 17.6291 34.1413 17.6291 34.1413V33.0727H18.8759C19.2 33.0727 19.3674 33.1468 19.4564 33.2913C19.4991 33.3548 19.517 33.4713 19.517 33.6123Z" fill="#E2B234"/>
<path d="M23.1913 35.4462V35.0407H21.0185V34.2507H23.1058V33.8486H21.0185V33.0798H23.1664V32.6777H20.584V35.4462H23.1913Z" fill="#E2B234"/>
<path d="M26.5874 33.4606C26.5874 33.2631 26.5447 33.1185 26.4699 33.0022C26.3381 32.8082 26.0853 32.6777 25.6649 32.6777H23.8555V35.4462H24.2936V34.2789H25.5688L26.3488 35.4462H26.8617L26.0175 34.2048C26.2313 34.1802 26.3987 34.0602 26.4877 33.905C26.5518 33.7992 26.5874 33.6441 26.5874 33.4606ZM26.1458 33.4959C26.1458 33.5735 26.1279 33.6688 26.0959 33.7322C26.0389 33.8345 25.9071 33.8874 25.6934 33.8909H24.2971C24.2971 33.8839 24.2971 33.0727 24.2971 33.0727H25.6115C25.8786 33.0727 26.0211 33.1362 26.0959 33.2561C26.1279 33.3125 26.1458 33.4077 26.1458 33.4959Z" fill="#E2B234"/>
<path d="M29.8925 33.0798V32.6777H27.4062V35.4462H27.8479V34.2683H29.7999V33.8556H27.8479V33.0798H29.8925Z" fill="#E2B234"/>
<path d="M31.9178 32.627C31.3229 32.627 30.9133 32.7715 30.6212 33.0749C30.3754 33.3111 30.2686 33.6392 30.2686 34.0518C30.2686 34.5032 30.4075 34.8418 30.6639 35.071C30.9383 35.3426 31.3585 35.4836 31.9178 35.4836C32.4948 35.4836 32.9435 35.3426 33.2107 35.0569C33.4423 34.8241 33.5633 34.4927 33.5633 34.0482C33.5633 33.618 33.46 33.29 33.2143 33.0572C32.9329 32.768 32.5125 32.627 31.9178 32.627ZM31.9178 35.0887C31.5259 35.0887 31.2481 35.004 31.0379 34.8348C30.8243 34.6619 30.7209 34.3974 30.7209 34.0588C30.7209 33.7414 30.81 33.4769 30.981 33.3182C31.1769 33.1348 31.476 33.0255 31.9142 33.0255C32.3665 33.0255 32.6479 33.1313 32.858 33.3147C33.0362 33.4699 33.1145 33.7449 33.1145 34.0553C33.1145 34.3692 33.0327 34.6372 32.8509 34.7994C32.6408 34.9934 32.3452 35.0887 31.9178 35.0887Z" fill="#E2B234"/>
<path d="M36.9038 33.4606C36.9038 33.2631 36.861 33.1185 36.7863 33.0022C36.6545 32.8082 36.4016 32.6777 35.9813 32.6777H34.1719V35.4462H34.61V34.2789H35.8851L36.6652 35.4462H37.1781L36.3339 34.2048C36.5476 34.1802 36.715 34.0602 36.8041 33.905C36.8682 33.7992 36.9038 33.6441 36.9038 33.4606ZM36.4621 33.4959C36.4621 33.5735 36.4444 33.6688 36.4123 33.7322C36.3553 33.8345 36.2235 33.8874 36.0098 33.8909H34.6135C34.6135 33.8839 34.6135 33.0727 34.6135 33.0727H35.9279C36.195 33.0727 36.3375 33.1362 36.4123 33.2561C36.4444 33.3125 36.4621 33.4077 36.4621 33.4959Z" fill="#E2B234"/>
<path d="M41.1631 35.4462V32.6777H40.5861L39.4356 34.956L38.3064 32.6777H37.7188V35.4462H38.1426V33.316L39.1969 35.4462H39.6599L40.7392 33.316V35.4462H41.1631Z" fill="#E2B234"/>
<path d="M42.4149 34.762H44.1567L44.5128 35.4462H44.9902L43.5725 32.6777H43.0489L41.585 35.4462H42.0515L42.4149 34.762ZM43.9714 34.3705H42.6073L43.1735 33.309L43.2983 33.0516L43.4229 33.309L43.9714 34.3705Z" fill="#E2B234"/>
<path d="M48.198 35.4462V32.6777H47.774V34.829L45.9222 32.6777H45.4199V35.4462H45.8509V33.2808L47.7173 35.4462H48.198Z" fill="#E2B234"/>
<path d="M52.0428 34.4115H51.5794C51.565 34.5384 51.5151 34.6655 51.4259 34.7607C51.234 34.9829 50.9279 35.078 50.4578 35.078C50.0625 35.078 49.6384 34.9687 49.435 34.683C49.3285 34.5491 49.2604 34.3516 49.2604 34.0553C49.2604 33.7908 49.3074 33.5933 49.41 33.4592C49.5808 33.1877 49.9406 33.0467 50.4472 33.0467C50.9385 33.0467 51.2484 33.1806 51.4124 33.3676C51.5045 33.4663 51.5583 33.5827 51.5755 33.7202H52.039C52.0246 33.5651 51.9747 33.3816 51.8682 33.2265C51.6398 32.8914 51.2196 32.627 50.4501 32.627C49.7171 32.627 49.2786 32.8597 49.0358 33.2088C48.8795 33.4098 48.8008 33.692 48.8008 34.0518C48.8008 34.4538 48.8977 34.7501 49.0646 34.9582C49.3074 35.2862 49.7737 35.4836 50.4789 35.4836C51.2023 35.4836 51.6331 35.2685 51.8471 34.9264C51.968 34.7607 52.0284 34.5631 52.0428 34.4115Z" fill="#E2B234"/>
<path d="M55.226 35.4462V35.0407H53.0528V34.2507H55.1406V33.8486H53.0528V33.0798H55.201V32.6777H52.6182V35.4462H55.226Z" fill="#E2B234"/>
<path d="M22.654 38.1953L23.1867 39.8187H24.9106L23.516 40.822L24.0487 42.4452L22.654 41.442L21.2593 42.4452L21.7921 40.822L20.3975 39.8187H22.1213L22.654 38.1953Z" fill="#E2B234"/>
<path d="M28.8016 38.1953L29.3452 39.8186H31.1042L29.6812 40.8219L30.2247 42.4452L28.8016 41.4419L27.3786 42.4452L27.9221 40.8219L26.499 39.8186H28.2581L28.8016 38.1953Z" fill="#E2B234"/>
<path d="M34.9032 38.1953L35.4468 39.8186H37.2058L35.7827 40.8219L36.3264 42.4452L34.9032 41.4419L33.4801 42.4452L34.0237 40.8219L32.6006 39.8186H34.3597L34.9032 38.1953Z" fill="#E2B234"/>
<path d="M41.0048 38.1953L41.5483 39.8186H43.3074L41.8843 40.8219L42.4278 42.4452L41.0048 41.4419L39.5817 42.4452L40.1252 40.8219L38.7021 39.8186H40.4612L41.0048 38.1953Z" fill="#E2B234"/>
<path d="M47.158 38.1953L47.6905 39.8186H49.4147L48.0196 40.8219L48.5521 42.4452L47.158 41.4419L45.7632 42.4452L46.296 40.8219L44.9014 39.8186H46.6252L47.158 38.1953Z" fill="#E2B234"/>
<path d="M25.6426 10.8086L26.0454 12.036H27.3488L26.2944 12.7946L26.6972 14.0219L25.6426 13.2634L24.5882 14.0219L24.991 12.7946L23.9365 12.036H25.2399L25.6426 10.8086Z" fill="#E2B234"/>
<path d="M30.2928 10.8066L30.7038 12.034H32.0337L30.9578 12.7926L31.3687 14.0199L30.2928 13.2613L29.2168 14.0199L29.6278 12.7926L28.5518 12.034H29.8818L30.2928 10.8066Z" fill="#E2B234"/>
<path d="M34.9051 10.8066L35.316 12.034H36.646L35.5701 12.7926L35.981 14.0199L34.9051 13.2613L33.8291 14.0199L34.2401 12.7926L33.1641 12.034H34.4941L34.9051 10.8066Z" fill="#E2B234"/>
<path d="M39.5203 10.8066L39.9313 12.034H41.2613L40.1853 12.7926L40.5963 14.0199L39.5203 13.2613L38.4443 14.0199L38.8553 12.7926L37.7793 12.034H39.1093L39.5203 10.8066Z" fill="#E2B234"/>
<path d="M44.17 10.8066L44.5728 12.034H45.8762L44.8217 12.7926L45.2245 14.0199L44.17 13.2613L43.1155 14.0199L43.5183 12.7926L42.4639 12.034H43.7672L44.17 10.8066Z" fill="#E2B234"/>
<path fill-rule="evenodd" clip-rule="evenodd" d="M7.07738 32.8986C5.29988 21.8872 10.4875 10.9928 20.8728 6.31445L20.9686 6.52307C10.6878 11.1543 5.5431 21.9421 7.30592 32.8624C9.25621 44.9438 19.0997 52.1895 31.1539 52.5388L31.147 52.7679C18.9989 52.4159 9.04772 45.1047 7.07738 32.8986Z" fill="#E2B234"/>
<path d="M18.6207 9.12384C16.7015 9.16716 14.4553 10.2388 13.1299 11.7952C14.1928 12.7725 15.9029 12.4112 17.1336 12.2113C18.8901 11.9261 20.758 11.3736 22.4154 10.5915C21.7339 9.15509 19.8981 9.09505 18.6207 9.12384Z" fill="#E2B234"/>
<path d="M17.1132 6.78185C15.9764 8.53517 14.6217 10.2778 13.1474 11.8123C11.9139 10.6658 12.6584 8.75795 13.1619 7.57149C14.0738 5.42164 16.2604 3.56772 18.5463 2.61914C19.1737 4.03246 17.8109 5.70569 17.1132 6.78185Z" fill="#E2B234"/>
<path d="M13.0686 14.0427C11.2715 14.6752 9.72727 16.4557 8.95193 18.2432C10.2441 18.8381 11.7132 17.979 12.7879 17.407C14.2635 16.6215 15.769 15.5378 16.9535 14.2836C15.8833 13.1654 14.2581 13.6241 13.0686 14.0427Z" fill="#E2B234"/>
<path d="M10.8889 12.2899C10.4955 14.2896 9.83597 16.3624 8.96977 18.2515C7.45785 17.5455 7.51542 15.5233 7.58018 14.2364C7.69071 12.0399 8.93178 9.53518 10.6597 7.94336C11.7175 9.06626 11.1395 11.016 10.8889 12.2899Z" fill="#E2B234"/>
<path d="M9.60748 20.3901C8.11005 21.5598 7.20241 23.7274 6.99219 25.663C8.40873 25.824 9.54099 24.5476 10.3835 23.6719C11.5305 22.4796 12.6163 20.9841 13.3059 19.4195C11.9556 18.6901 10.5829 19.6282 9.60748 20.3901Z" fill="#E2B234"/>
<path d="M7.01565 19.4019C7.28267 21.4213 7.28324 23.606 7.01613 25.6649C5.36874 25.4645 4.82233 23.506 4.49957 22.2774C3.94231 20.1566 4.31592 17.4172 5.40146 15.3555C6.75804 16.099 6.84506 18.1111 7.01565 19.4019Z" fill="#E2B234"/>
<path d="M8.43099 27.3191C7.24606 29.0377 6.82936 31.7311 7.36225 33.8959C8.92809 33.5288 9.70429 31.7735 10.3276 30.5339C11.1559 28.8863 11.856 26.9642 12.1066 25.0783C10.4082 24.7283 9.21151 26.1869 8.43099 27.3191Z" fill="#E2B234"/>
<path d="M5.323 27.1446C6.2462 29.2609 6.96665 31.5903 7.38824 33.89C5.59242 34.272 4.29993 32.4049 3.54906 31.1668C2.21224 28.963 1.8228 25.9079 2.31251 23.2715C3.95616 23.5978 4.76047 25.8555 5.323 27.1446Z" fill="#E2B234"/>
<path d="M9.26433 34.794C8.62812 36.8789 9.07033 39.7132 10.3585 41.6733C11.7741 40.7607 11.97 38.7522 12.1706 37.3121C12.4352 35.4117 12.5597 33.3065 12.2311 31.3359C10.4205 31.5648 9.68928 33.4012 9.26433 34.794Z" fill="#E2B234"/>
<path d="M6.11677 35.6883C7.70525 37.4931 9.17054 39.5508 10.379 41.6616C8.74003 42.6746 6.81679 41.2906 5.65038 40.3111C3.58111 38.5737 2.23749 35.6206 1.91895 32.8365C3.64098 32.6074 5.15856 34.5996 6.11677 35.6883Z" fill="#E2B234"/>
<path d="M12.6019 41.8913C12.7384 44.3181 14.3341 46.8646 16.4587 48.314C17.4848 46.9231 16.8416 44.792 16.4916 43.3043C16.0204 41.3015 15.3683 39.2158 14.3991 37.3652C12.7092 38.2495 12.512 40.2931 12.6019 41.8913Z" fill="#E2B234"/>
<path d="M9.74496 43.9429C12.0468 45.2094 14.342 46.7038 16.476 48.294C15.198 49.9603 12.6436 49.2959 11.0601 48.7603C8.2696 47.8165 5.78182 45.3284 4.48242 42.5642C6.12991 41.7239 8.38522 43.1948 9.74496 43.9429Z" fill="#E2B234"/>
<path d="M19.1584 47.8191C20.54 50.3155 23.6882 51.9441 26.653 52.3362C26.9721 50.5213 24.9888 48.7244 23.908 47.5488C22.3694 45.8752 20.766 44.1384 18.9684 42.6914C17.6216 44.2397 18.3336 46.3287 19.1584 47.8191Z" fill="#E2B234"/>
<path d="M17.1838 50.9843C20.3242 51.3076 23.5179 51.773 26.6564 52.3096C26.3568 54.5995 22.6868 54.9691 21.0207 55.1042C17.6045 55.3814 13.8043 54.0218 11.1582 51.7329C12.4725 50.2017 15.511 50.8121 17.1838 50.9843Z" fill="#E2B234"/>
<path d="M23.2338 4.3932C21.1253 4.98875 18.6574 6.11859 17.4382 8.20422C19.6512 7.96539 21.8262 7.18572 23.9532 6.59169C26.3358 5.92621 28.8445 5.42851 31.1512 4.50995C28.625 3.50922 25.647 3.71148 23.2338 4.3932Z" fill="#E2B234"/>
<path fill-rule="evenodd" clip-rule="evenodd" d="M64.0196 32.8624C65.7821 21.9421 60.6375 11.1545 50.3569 6.52307L50.4529 6.31445C60.8381 10.9929 66.0259 21.8872 64.248 32.8986C62.2782 45.1047 52.3267 52.4159 40.1786 52.7679L40.1719 52.5388C52.2259 52.1895 62.069 44.9438 64.0196 32.8624Z" fill="#E2B234"/>
<path d="M52.7087 9.12384C54.6276 9.16716 56.8737 10.2388 58.1997 11.7952C57.1366 12.7725 55.4259 12.4112 54.1959 12.2113C52.4391 11.9261 50.571 11.3736 48.9141 10.5915C49.5953 9.15509 51.4307 9.09505 52.7087 9.12384Z" fill="#E2B234"/>
<path d="M54.2163 6.78185C55.3533 8.53517 56.708 10.2778 58.1818 11.8123C59.4156 10.6658 58.6711 8.75795 58.1674 7.57149C57.2559 5.42164 55.0693 3.56772 52.7829 2.61914C52.1554 4.03246 53.5188 5.70569 54.2163 6.78185Z" fill="#E2B234"/>
<path d="M58.2647 14.0426C60.0618 14.6751 61.6056 16.4556 62.3808 18.2431C61.0884 18.838 59.6195 17.9789 58.5449 17.4069C57.0692 16.6215 55.5639 15.5377 54.3799 14.2835C55.4497 13.1654 57.075 13.624 58.2647 14.0426Z" fill="#E2B234"/>
<path d="M60.44 12.2899C60.8334 14.2896 61.4925 16.3624 62.3589 18.2515C63.871 17.5455 63.8135 15.5233 63.7482 14.2364C63.6379 12.0399 62.3973 9.53518 60.6693 7.94336C59.611 9.06626 60.1896 11.016 60.44 12.2899Z" fill="#E2B234"/>
<path d="M61.7173 20.3901C63.215 21.5598 64.1227 23.7274 64.3328 25.663C62.9166 25.824 61.7845 24.5476 60.942 23.6719C59.7945 22.4796 58.7084 20.9841 58.0195 19.4195C59.3695 18.6901 60.7425 19.6282 61.7173 20.3901Z" fill="#E2B234"/>
<path d="M64.3181 19.4019C64.0504 21.4211 64.0504 23.606 64.3171 25.6649C65.9645 25.4645 66.5114 23.506 66.8338 22.2774C67.3912 20.1566 67.017 17.4172 65.9319 15.3555C64.5752 16.099 64.4879 18.1111 64.3181 19.4019Z" fill="#E2B234"/>
<path d="M62.8974 27.3191C64.0823 29.0377 64.4987 31.7311 63.9662 33.8959C62.4004 33.5288 61.6242 31.7736 61.0005 30.5339C60.1725 28.8863 59.4721 26.9642 59.2217 25.0783C60.9199 24.7283 62.1173 26.1869 62.8974 27.3191Z" fill="#E2B234"/>
<path d="M66.0032 27.1446C65.0802 29.2609 64.3597 31.5903 63.9385 33.89C65.7336 34.272 67.026 32.4049 67.7773 31.1668C69.1138 28.963 69.5033 25.9079 69.014 23.2715C67.3705 23.5978 66.5655 25.8555 66.0032 27.1446Z" fill="#E2B234"/>
<path d="M62.0661 34.794C62.7022 36.8789 62.2608 39.7132 60.9723 41.6733C59.5571 40.7607 59.3604 38.7522 59.1599 37.3121C58.896 35.4117 58.7713 33.3065 59.0994 31.3359C60.9099 31.5648 61.641 33.4012 62.0661 34.794Z" fill="#E2B234"/>
<path d="M65.2092 35.6883C63.6213 37.4932 62.1562 39.5508 60.9473 41.6616C62.586 42.6746 64.5097 41.2906 65.6764 40.3111C67.745 38.5737 69.0892 35.6206 69.4078 32.8365C67.6855 32.6074 66.1677 34.5996 65.2092 35.6883Z" fill="#E2B234"/>
<path d="M58.7264 41.8913C58.5902 44.3181 56.9946 46.8646 54.8704 48.314C53.8438 46.9231 54.4876 44.792 54.8368 43.3043C55.3079 41.3015 55.9603 39.2158 56.9294 37.3652C58.6199 38.2495 58.8166 40.2931 58.7264 41.8913Z" fill="#E2B234"/>
<path d="M61.5841 43.9429C59.2824 45.2094 56.9874 46.7038 54.8535 48.294C56.1315 49.9603 58.6856 49.2959 60.2687 48.7603C63.0598 47.8165 65.5476 45.3284 66.8468 42.5642C65.1994 41.7239 62.9437 43.1948 61.5841 43.9429Z" fill="#E2B234"/>
<path d="M52.1716 47.8191C50.79 50.3155 47.642 51.9441 44.6769 52.3362C44.3578 50.5213 46.341 48.7244 47.4223 47.5488C48.9603 45.8752 50.5636 44.1384 52.3616 42.6914C53.7087 44.2397 52.9958 46.3287 52.1716 47.8191Z" fill="#E2B234"/>
<path d="M54.1434 50.9843C51.0031 51.3076 47.8101 51.773 44.6709 52.3096C44.9706 54.5995 48.6409 54.9691 50.3066 55.1042C53.7232 55.3814 57.5236 54.0218 60.1689 51.7329C58.8554 50.2017 55.8167 50.8121 54.1434 50.9843Z" fill="#E2B234"/>
<path d="M48.0943 4.39326C50.2022 4.98881 52.6709 6.11865 53.8894 8.20428C51.6769 7.96545 49.5018 7.18578 47.3747 6.59175C44.9922 5.92627 42.4835 5.42857 40.1768 4.51001C42.7031 3.50928 45.681 3.71154 48.0943 4.39326Z" fill="#E2B234"/>
<path d="M37.0347 3.31272L35.9529 0.949219L34.8914 3.26874L32.4229 1.7533L34.0091 5.05388H37.954L39.483 1.7533L37.0347 3.31272Z" fill="#E2B234"/>
<path d="M37.9288 5.56842H33.9777V6.14574H37.9288V5.56842Z" fill="#E2B234"/>
<path d="M36.2369 50.2266L36.8736 52.1667H38.9338L37.2671 53.3656L37.9037 55.3057L36.2369 54.1067L34.5701 55.3057L35.2068 53.3656L33.54 52.1667H35.6003L36.2369 50.2266Z" fill="#E2B234"/>
</svg>
