<svg width="193" height="128" viewBox="0 0 193 128" fill="none" xmlns="http://www.w3.org/2000/svg">
<path opacity="0.5" d="M22.2656 53.4903H31.0981L36.2411 66.5801L41.451 53.4903H50.0508L37.1013 84.4781H28.447L31.9917 76.2669L22.2656 53.4903ZM59.0097 52.9693C52.3734 52.9693 48.1781 58.8901 48.1781 64.7863C48.1781 71.4213 52.7777 76.6817 58.8837 76.6817C63.4386 76.6817 65.156 73.9209 65.156 73.9209V76.0715H72.8596V53.4905H65.156V55.5433C65.156 55.5433 63.24 52.9693 59.0096 52.9693L59.0097 52.9693ZM60.6482 60.2259C63.7102 60.2259 65.2904 62.6362 65.2904 64.8112C65.2904 67.1531 63.5975 69.4514 60.6483 69.4514C58.2039 69.4514 55.995 67.4642 55.995 64.9108C55.995 62.3213 57.7717 60.2259 60.6483 60.2259H60.6482ZM75.5128 76.0714V43.5195H83.5703V55.6215C83.5703 55.6215 85.4842 52.972 89.4924 52.972C94.3955 52.972 97.2681 56.6063 97.2681 61.7994V76.0714H89.2695V63.7544C89.2695 61.997 88.428 60.2992 86.5218 60.2992C84.5815 60.2992 83.5703 62.0227 83.5703 63.7545V76.0713L75.5128 76.0714ZM111.006 52.9719C103.406 52.9719 98.8808 58.7209 98.8808 64.8803C98.8808 71.8898 104.36 76.6817 111.035 76.6817C117.504 76.6817 123.165 72.1073 123.165 64.9978C123.165 57.2189 117.238 52.9719 111.006 52.9719ZM111.078 60.2924C113.763 60.2924 115.62 62.5167 115.62 64.8887C115.62 66.9118 113.89 69.4071 111.078 69.4071C108.503 69.4071 106.57 67.3516 106.57 64.8665C106.57 62.4726 108.177 60.2924 111.078 60.2924ZM136.589 52.9719C128.989 52.9719 124.463 58.7209 124.463 64.8803C124.463 71.8898 129.943 76.6817 136.617 76.6817C143.087 76.6817 148.748 72.1073 148.748 64.9978C148.748 57.2189 142.821 52.9719 136.589 52.9719ZM136.661 60.2924C139.346 60.2924 141.203 62.5167 141.203 64.8887C141.203 66.9118 139.472 69.4071 136.661 69.4071C134.085 69.4071 132.152 67.3516 132.152 64.8665C132.152 62.4726 133.759 60.2924 136.661 60.2924Z" fill="black"/>
<path opacity="0.5" d="M155.108 76.5518C158.063 76.5518 160.459 74.1687 160.459 71.229C160.459 68.2893 158.063 65.9062 155.108 65.9062C152.153 65.9062 149.758 68.2893 149.758 71.229C149.758 74.1687 152.153 76.5518 155.108 76.5518Z" fill="black"/>
<path opacity="0.5" d="M162.21 63.95H152.578L161.127 43.5195H170.723L162.21 63.95Z" fill="black"/>
</svg>
