<svg width="459" height="604" viewBox="0 0 459 604" fill="none" xmlns="http://www.w3.org/2000/svg">
<g clip-path="url(#clip0_119_2547)">
<rect x="497.518" y="610.247" width="584.065" height="357.226" rx="17.8613" transform="rotate(-148.41 497.518 610.247)" fill="#D5FF40"/>
<path d="M93.4326 314.838C96.6625 303.996 100.146 294.597 103.883 286.641C107.506 278.65 111.798 271.542 116.759 265.317C121.72 259.091 127.203 254.45 133.208 251.393C139.132 248.189 146.006 246.385 153.83 245.982C161.539 245.545 170.129 246.738 179.601 249.56C188.959 252.348 196.721 255.903 202.889 260.225C209.09 264.433 213.958 269.363 217.493 275.013C220.948 280.515 223.139 287.132 224.066 294.863C224.913 302.446 224.689 310.704 223.395 319.637C222.1 328.57 219.753 338.742 216.353 350.154C207.921 378.455 196.649 397.524 182.537 407.359C168.344 417.047 150.407 418.661 128.724 412.201C108.639 406.217 95.7586 395.235 90.0825 379.256C84.2922 363.242 85.4089 341.77 93.4326 314.838ZM184.958 340.428C188.562 328.331 188.896 318.243 185.961 310.162C183.026 302.081 176.537 296.545 166.495 293.553C156.795 290.663 148.397 291.951 141.302 297.416C134.093 302.847 128.737 311.44 125.235 323.194C123.399 329.357 122.469 334.981 122.445 340.068C122.306 345.121 123.09 349.579 124.797 353.442C126.538 357.191 129.013 360.351 132.223 362.923C135.433 365.494 139.377 367.477 144.056 368.871C153.071 371.557 161.253 370.578 168.6 365.933C175.834 361.254 181.286 352.753 184.958 340.428ZM124.439 217.644L150.754 129.316C151.434 127.034 152.137 124.882 152.863 122.862C153.589 120.842 154.838 118.108 156.611 114.66C158.304 111.064 160.162 107.953 162.188 105.326C164.133 102.551 166.756 99.7912 170.059 97.0476C173.247 94.27 176.722 92.199 180.483 90.8346C184.164 89.322 188.565 88.521 193.686 88.4314C198.84 88.2277 204.385 89.0098 210.319 90.7777C229.263 96.4214 240.593 107.811 244.31 124.946L287.087 110.853L273.198 156.849L238.833 168.976L228.073 205.094L256.488 213.56L244.606 253.444L124.439 217.644ZM206.292 149.962C209.25 140.034 206.963 133.948 199.431 131.704C192.584 129.664 187.613 133.836 184.519 144.221L171.413 188.214L192.981 194.64L206.292 149.962ZM291.129 97.2859L170.962 61.4854L182.845 21.6009L303.012 57.4014L291.129 97.2859Z" fill="black"/>
<path d="M285.435 433.331L314.605 335.418L384.96 356.378L375.423 388.388L362.927 384.665C365.848 391.127 367.321 398.275 367.348 406.11C367.294 413.798 365.244 424.431 361.198 438.012C357.56 450.222 353.377 460.717 348.649 469.497C343.922 478.277 338.968 485.312 333.789 490.603C328.529 495.745 322.794 499.565 316.583 502.064C310.291 504.414 303.981 505.578 297.651 505.556C291.321 505.533 284.504 504.434 277.2 502.259C268.87 499.777 261.706 496.089 255.708 491.196C249.597 486.269 244.876 480.639 241.545 474.303C238.248 467.854 235.948 460.77 234.644 453.051C233.375 445.218 233.171 437.144 234.033 428.827C234.816 420.363 236.533 411.68 239.185 402.779C242.822 390.568 246.692 380.29 250.793 371.945C254.929 363.486 259.404 356.805 264.219 351.903C269.068 346.887 274.034 343.148 279.116 340.686C284.118 338.076 289.954 336.212 296.624 335.093L298.003 376.132C287.938 379.47 279.71 391.867 273.318 413.321C270.87 421.538 269.515 428.589 269.253 434.474C268.99 440.36 269.803 445.137 271.692 448.806C273.467 452.441 275.782 455.305 278.637 457.398C281.493 459.492 285.146 461.201 289.596 462.527C293.704 463.751 297.395 464.291 300.668 464.148C303.827 463.971 307.07 462.887 310.397 460.896C313.757 458.791 316.955 455.147 319.99 449.963C322.912 444.745 325.613 437.971 328.095 429.64C329.829 423.82 331.08 418.788 331.847 414.544C332.501 410.266 332.631 406.701 332.237 403.851C331.844 401 331.401 398.942 330.908 397.677C330.45 396.298 329.619 394.497 328.417 392.276L313.679 441.746L285.435 433.331ZM390.151 338.954L269.984 303.153L281.866 263.269L402.033 299.069L390.151 338.954ZM453.163 127.447L436.946 181.882L346.994 219.195L419.403 240.767L407.52 280.652L287.353 244.851L303.927 189.218L392.375 152.575L321.165 131.36L332.996 91.6467L453.163 127.447Z" fill="black"/>
<path d="M513.759 504.352L497.542 558.786L407.59 596.099L479.998 617.671L468.116 657.556L347.949 621.755L364.523 566.123L452.971 529.479L381.761 508.264L393.592 468.551L513.759 504.352ZM432.322 339.801L568.211 321.579L554.442 367.797L531.54 370.852L513.844 430.25L531.34 445.341L517.672 491.216L413.861 401.768L432.322 339.801ZM483.499 405.741L492.729 374.758L456.592 380.951L483.499 405.741ZM543.899 257.428L569.857 170.299L609.741 182.181L571.901 309.195L451.734 273.395L463.616 233.51L543.899 257.428Z" fill="black"/>
<rect x="221.611" y="264.439" width="73.2314" height="53.584" rx="5.3584" transform="rotate(-148.41 221.611 264.439)" fill="white" stroke="#95A1AB" stroke-width="0.893066"/>
<rect x="213.37" y="239.713" width="34.9514" height="20.094" rx="10.047" transform="rotate(-148.41 213.37 239.713)" stroke="#95A1AB" stroke-width="0.893066"/>
<line x1="187.574" y1="220.441" x2="169.904" y2="209.575" stroke="#95A1AB" stroke-width="0.893066" stroke-linecap="round"/>
<line x1="177.389" y1="197.403" x2="195.059" y2="208.27" stroke="#95A1AB" stroke-width="0.893066" stroke-linecap="round"/>
<line x1="231.523" y1="247.469" x2="212.877" y2="236.002" stroke="#95A1AB" stroke-width="0.893066" stroke-linecap="round"/>
<line x1="220.362" y1="223.83" x2="239.008" y2="235.297" stroke="#95A1AB" stroke-width="0.893066" stroke-linecap="round"/>
<line x1="203.902" y1="209.776" x2="212.205" y2="196.273" stroke="#95A1AB" stroke-width="0.893066" stroke-linecap="round"/>
<line x1="224.308" y1="203.716" x2="216.004" y2="217.219" stroke="#95A1AB" stroke-width="0.893066" stroke-linecap="round"/>
<line x1="184.604" y1="241.156" x2="192.869" y2="227.717" stroke="#95A1AB" stroke-width="0.893066" stroke-linecap="round"/>
<line x1="204.971" y1="235.159" x2="196.707" y2="248.599" stroke="#95A1AB" stroke-width="0.893066" stroke-linecap="round"/>
<path d="M146.581 192.092C146.721 189.701 148.096 184.436 152.476 182.506M138.091 191.619C138.393 187.882 140.842 179.356 148.223 175.143M130.232 191.74C130.714 186.738 134.243 175.092 144.509 168.524M122.4 190.846C122.78 184.818 126.868 170.598 140.177 161.938" stroke="white" stroke-width="3.57227" stroke-linecap="round" stroke-linejoin="round"/>
<path fill-rule="evenodd" clip-rule="evenodd" d="M78.3407 261.188C78.6539 260.133 78.9705 259.069 79.2902 257.996C79.533 257.18 79.7747 256.37 80.015 255.566C78.1013 254.716 77.3852 252.859 78.2517 249.951C79.0307 247.336 80.6671 245.712 82.8774 246.03C83.4583 244.105 84.0255 242.232 84.5764 240.419C78.8936 239.006 76.1073 242.472 74.1966 248.885C72.1967 255.598 73.523 259.587 78.3407 261.188ZM85.6618 240.736C91.1806 242.58 91.9244 246.492 89.8634 253.41C87.8017 260.33 84.5481 262.698 79.5185 261.519C79.8318 260.471 80.1476 259.413 80.4654 258.346C80.7074 257.534 80.9475 256.726 81.1858 255.925C83.1942 256.275 84.9711 255.155 85.8668 252.148C86.6918 249.379 86.2271 247.26 84.0171 246.349C84.5829 244.425 85.132 242.551 85.6618 240.736ZM86.2984 238.553C86.8395 236.694 87.358 234.906 87.851 233.197C89.5025 233.426 91.326 232.946 92.3167 229.621C93.3283 226.226 91.9629 224.926 90.4045 224.259C90.9751 222.236 91.4761 220.438 91.8974 218.898C93.9427 219.641 95.1695 220.309 96.1028 221.22C98.1331 223.179 97.7363 226.744 96.5074 230.87C95.2784 234.995 93.6203 238.327 90.8487 238.856C89.6178 239.098 88.2832 239.003 86.2984 238.553ZM91.3202 218.694C90.3361 218.354 89.1784 217.993 87.8 217.582L84.1114 216.483L82.5117 221.852L89.3652 223.894C89.4564 223.921 89.5485 223.949 89.6413 223.979C90.2688 221.98 90.832 220.207 91.3202 218.694ZM86.8485 232.981C86.7895 232.964 86.731 232.947 86.6732 232.93L79.8197 230.888L78.22 236.258L81.9087 237.357C83.1793 237.735 84.27 238.046 85.2237 238.292C85.7855 236.448 86.3282 234.674 86.8485 232.981ZM77.2381 264.908C76.1679 268.526 75.145 272.006 74.1845 275.294L65.7932 277.969L67.5814 271.967L74.0557 269.618L69.9288 264.088L71.7171 258.085L77.2381 264.908ZM72.8429 279.902C72.4458 279.702 72.0015 279.525 71.5049 279.377C66.0701 277.758 64.3391 282.85 63.9034 284.313L60.5545 295.553L67.7859 297.708C68.1868 296.239 68.6634 294.524 69.2068 292.594L66.5441 291.801L68.2152 286.191C68.4103 285.536 68.8441 284.24 70.1319 284.624C70.8406 284.835 71.0924 285.304 71.138 285.807C71.672 283.947 72.2418 281.973 72.8429 279.902ZM68.3607 297.879L75.8767 300.118L77.3918 295.032L73.7686 293.953L75.1407 289.348L79.5158 287.823L81.2869 281.958L75.8389 283.734C75.594 282.577 75.005 281.394 73.7887 280.484C71.5598 287.772 69.6767 293.807 68.3607 297.879ZM75.497 274.876L78.817 273.817L83.3132 275.157L84.8283 270.071L80.3321 268.732L78.1613 266.049C77.2426 269.108 76.3512 272.061 75.497 274.876Z" fill="black"/>
</g>
<defs>
<clipPath id="clip0_119_2547">
<rect x="497.518" y="610.247" width="584.065" height="357.226" rx="17.8613" transform="rotate(-148.41 497.518 610.247)" fill="white"/>
</clipPath>
</defs>
</svg>
