<svg width="1000" height="641" viewBox="0 0 1000 641" fill="none" xmlns="http://www.w3.org/2000/svg">
<g filter="url(#filter0_d_119_3454)">
<g clip-path="url(#clip0_119_3454)">
<rect x="706.686" y="683.594" width="650.558" height="397.895" rx="19.8947" transform="rotate(-148.41 706.686 683.594)" fill="#D5FF40"/>
<circle cx="833.211" cy="377.203" r="25.8632" transform="rotate(-58.41 833.211 377.203)" fill="black"/>
<path d="M256.14 354.418C259.737 342.342 263.618 331.873 267.78 323.011C271.816 314.11 276.596 306.193 282.122 299.259C287.648 292.325 293.755 287.155 300.443 283.751C307.042 280.181 314.699 278.172 323.413 277.723C332 277.237 341.568 278.565 352.118 281.709C362.542 284.814 371.188 288.774 378.057 293.588C384.964 298.275 390.386 303.766 394.324 310.059C398.172 316.188 400.613 323.558 401.645 332.169C402.589 340.615 402.339 349.813 400.898 359.763C399.456 369.713 396.841 381.043 393.054 393.754C383.663 425.278 371.107 446.517 355.388 457.472C339.58 468.263 319.6 470.06 295.449 462.865C273.078 456.2 258.731 443.968 252.408 426.17C245.959 408.333 247.203 384.416 256.14 354.418ZM358.085 382.921C362.099 369.448 362.472 358.21 359.202 349.21C355.933 340.209 348.706 334.042 337.52 330.71C326.716 327.491 317.362 328.925 309.459 335.013C301.429 341.062 295.464 350.633 291.563 363.726C289.518 370.59 288.482 376.854 288.455 382.52C288.3 388.149 289.174 393.114 291.075 397.417C293.014 401.593 295.771 405.113 299.346 407.977C302.921 410.841 307.315 413.05 312.526 414.603C322.568 417.594 331.681 416.503 339.865 411.33C347.922 406.119 353.995 396.649 358.085 382.921ZM290.676 246.159L319.987 147.775C320.744 145.233 321.527 142.837 322.336 140.587C323.145 138.337 324.536 135.292 326.511 131.451C328.396 127.446 330.467 123.98 332.722 121.054C334.889 117.963 337.811 114.889 341.489 111.833C345.041 108.74 348.911 106.433 353.1 104.913C357.2 103.228 362.102 102.336 367.806 102.236C373.548 102.009 379.724 102.881 386.333 104.85C407.434 111.136 420.054 123.822 424.193 142.908L471.841 127.211L456.37 178.443L418.094 191.95L406.108 232.181L437.759 241.61L424.523 286.035L290.676 246.159ZM381.848 170.772C385.142 159.714 382.595 152.935 374.206 150.435C366.579 148.163 361.043 152.811 357.596 164.378L342.998 213.379L367.022 220.536L381.848 170.772ZM476.343 112.099L342.496 72.2227L355.731 27.7976L489.578 67.6738L476.343 112.099Z" fill="black"/>
<path d="M469.998 486.4L502.49 377.339L580.854 400.685L570.231 436.34L556.313 432.193C559.566 439.39 561.207 447.352 561.237 456.079C561.177 464.642 558.894 476.486 554.387 491.612C550.335 505.213 545.676 516.903 540.41 526.683C535.144 536.462 529.626 544.298 523.857 550.191C517.999 555.919 511.611 560.174 504.692 562.957C497.685 565.574 490.656 566.871 483.605 566.846C476.555 566.821 468.962 565.597 460.827 563.174C451.548 560.409 443.568 556.302 436.888 550.852C430.081 545.364 424.822 539.092 421.112 532.036C417.44 524.853 414.878 516.962 413.426 508.364C412.012 499.64 411.785 490.646 412.745 481.383C413.617 471.955 415.529 462.284 418.483 452.369C422.535 438.768 426.845 427.32 431.414 418.025C436.02 408.603 441.005 401.161 446.368 395.701C451.769 390.114 457.3 385.949 462.961 383.207C468.532 380.3 475.033 378.223 482.462 376.977L483.997 422.689C472.787 426.407 463.622 440.214 456.503 464.111C453.776 473.263 452.267 481.117 451.974 487.673C451.682 494.228 452.588 499.55 454.691 503.636C456.668 507.685 459.247 510.875 462.427 513.206C465.608 515.538 469.677 517.442 474.634 518.919C479.21 520.282 483.321 520.884 486.966 520.725C490.485 520.527 494.097 519.32 497.802 517.103C501.545 514.758 505.107 510.699 508.488 504.925C511.742 499.113 514.751 491.567 517.516 482.288C519.447 475.806 520.84 470.201 521.695 465.473C522.423 460.708 522.567 456.738 522.13 453.562C521.692 450.387 521.198 448.095 520.649 446.686C520.138 445.15 519.213 443.145 517.875 440.67L501.458 495.772L469.998 486.4ZM586.636 381.277L452.788 341.401L466.024 296.976L599.871 336.852L586.636 381.277ZM656.822 145.692L638.758 206.324L538.566 247.885L619.218 271.913L605.983 316.338L472.135 276.462L490.597 214.495L589.113 173.681L509.796 150.05L522.975 105.816L656.822 145.692Z" fill="black"/>
<path d="M724.313 565.504L706.249 626.136L606.057 667.697L686.709 691.725L673.473 736.15L539.626 696.274L558.087 634.307L656.604 593.493L577.287 569.862L590.465 525.628L724.313 565.504ZM633.605 382.221L784.964 361.924L769.627 413.403L744.118 416.806L724.407 482.967L743.895 499.775L728.672 550.873L613.042 451.242L633.605 382.221ZM690.607 455.667L700.889 421.157L660.637 428.055L690.607 455.667ZM757.884 290.47L786.797 193.421L831.222 206.656L789.073 348.13L655.226 308.254L668.461 263.829L757.884 290.47Z" fill="black"/>
<rect x="399.374" y="298.418" width="81.5684" height="59.6842" rx="5.96842" transform="rotate(-148.41 399.374 298.418)" fill="white" stroke="#95A1AB" stroke-width="0.994737"/>
<rect x="390.195" y="270.878" width="38.9304" height="22.3816" rx="11.1908" transform="rotate(-148.41 390.195 270.878)" stroke="#95A1AB" stroke-width="0.994737"/>
<line x1="361.461" y1="249.412" x2="341.78" y2="237.309" stroke="#95A1AB" stroke-width="0.994737" stroke-linecap="round"/>
<line x1="350.117" y1="223.752" x2="369.798" y2="235.855" stroke="#95A1AB" stroke-width="0.994737" stroke-linecap="round"/>
<line x1="410.414" y1="279.517" x2="389.645" y2="266.744" stroke="#95A1AB" stroke-width="0.994737" stroke-linecap="round"/>
<line x1="397.982" y1="253.187" x2="418.751" y2="265.959" stroke="#95A1AB" stroke-width="0.994737" stroke-linecap="round"/>
<line x1="379.648" y1="237.533" x2="388.897" y2="222.493" stroke="#95A1AB" stroke-width="0.994737" stroke-linecap="round"/>
<line x1="402.378" y1="230.783" x2="393.128" y2="245.823" stroke="#95A1AB" stroke-width="0.994737" stroke-linecap="round"/>
<line x1="358.154" y1="272.485" x2="367.359" y2="257.516" stroke="#95A1AB" stroke-width="0.994737" stroke-linecap="round"/>
<line x1="380.84" y1="265.806" x2="371.634" y2="280.775" stroke="#95A1AB" stroke-width="0.994737" stroke-linecap="round"/>
<path d="M315.802 217.833C315.957 215.17 317.489 209.306 322.368 207.156M306.345 217.306C306.681 213.144 309.409 203.647 317.63 198.954M297.591 217.441C298.128 211.87 302.059 198.898 313.494 191.582M288.867 216.445C289.291 209.731 293.844 193.892 308.668 184.246" stroke="white" stroke-width="3.97895" stroke-linecap="round" stroke-linejoin="round"/>
<path d="M774.064 398.672L796.485 429.558L791.507 437.652L763.772 429.009C762.067 428.472 761.327 428.461 760.012 429.206C757.866 430.422 755.047 432.877 752.812 435.188L752.05 434.469L760.063 421.44C761.084 419.779 763.125 418.976 765.298 419.793L784.669 427.262L769.117 406.716L774.064 398.672ZM813.806 379.404C805.895 374.494 798.794 385.06 795.297 382.807C794.233 382.121 793.709 380.404 794.778 378.011C795.306 376.824 797.054 373.733 800.765 371.289L795.219 366.026C793.408 367.451 791.297 369.419 789.483 372.369C784.829 379.937 785.638 387.776 791.459 391.417C795.755 394.126 800.537 391.76 803.758 389.743C807.066 387.664 808.628 387.244 809.937 388.066C811.94 389.326 811.379 392.233 810.058 394.459C807.752 398.345 805.261 399.891 803.326 401.154L809.056 406.591C810.989 405.314 813.747 402.459 815.889 399.057C820.835 391.013 820.038 383.27 813.806 379.404ZM835.908 365.452L840.263 358.37L806.411 346.072L802.391 352.608C801.487 354.078 801.594 355.852 802.592 357.222L823.371 385.837L828.316 377.797L824.809 373.44L830.85 363.616L835.908 365.452ZM820.006 367.448L811.202 356.479L823.911 361.098L820.006 367.448ZM780.792 387.731L806.948 412.543L802.24 420.2L776.085 395.386L780.792 387.731Z" fill="white"/>
<path fill-rule="evenodd" clip-rule="evenodd" d="M236.94 294.477C237.303 293.257 237.669 292.025 238.039 290.783C238.32 289.839 238.6 288.9 238.879 287.968C236.668 286.983 235.842 284.834 236.844 281.47C237.745 278.446 239.637 276.566 242.192 276.93C242.865 274.701 243.522 272.532 244.159 270.433C237.585 268.802 234.361 272.814 232.149 280.236C229.835 288.005 231.368 292.622 236.94 294.477ZM245.416 270.8C251.812 272.933 252.675 277.463 250.288 285.475C247.9 293.49 244.131 296.231 238.304 294.862C238.666 293.648 239.032 292.423 239.4 291.189C239.68 290.248 239.958 289.314 240.234 288.385C242.562 288.795 244.622 287.499 245.661 284.014C246.617 280.805 246.077 278.35 243.512 277.297C244.167 275.07 244.803 272.9 245.416 270.8ZM246.153 268.273C246.779 266.121 247.38 264.05 247.95 262.073C249.864 262.34 251.98 261.788 253.128 257.933C254.301 253.997 252.714 252.494 250.907 251.723C251.568 249.381 252.148 247.298 252.636 245.516C255.008 246.377 256.43 247.151 257.511 248.207C259.862 250.475 259.403 254.603 257.98 259.379C256.557 264.155 254.637 268.013 251.429 268.625C250.002 268.906 248.455 268.795 246.153 268.273ZM251.967 245.279C250.829 244.886 249.491 244.469 247.899 243.995L243.628 242.723L241.776 248.939L249.711 251.303C249.814 251.334 249.918 251.365 250.023 251.399C250.75 249.085 251.402 247.032 251.967 245.279ZM246.79 261.821C246.724 261.803 246.659 261.784 246.594 261.764L238.659 259.401L236.807 265.617L241.078 266.889C242.546 267.327 243.806 267.686 244.909 267.97C245.559 265.835 246.188 263.782 246.79 261.821ZM235.665 298.78C234.425 302.973 233.24 307.005 232.127 310.814L222.42 313.909L224.49 306.96L231.986 304.241L227.208 297.837L229.279 290.888L235.665 298.78ZM230.575 316.143C230.117 315.912 229.605 315.709 229.033 315.539C222.741 313.664 220.737 319.56 220.232 321.253L216.355 334.267L224.72 336.759C225.184 335.059 225.736 333.073 226.365 330.839L223.289 329.922L225.224 323.428C225.45 322.67 225.952 321.169 227.443 321.613C228.254 321.855 228.548 322.389 228.606 322.963C229.223 320.814 229.881 318.535 230.575 316.143ZM225.386 336.957L234.094 339.552L235.849 333.664L231.654 332.414L233.242 327.082L238.308 325.317L240.358 318.527L234.051 320.583C233.767 319.242 233.083 317.869 231.671 316.816C229.09 325.255 226.909 332.242 225.386 336.957ZM233.646 310.33L237.499 309.102L242.704 310.653L244.458 304.765L239.253 303.214L236.734 300.101C235.669 303.646 234.636 307.068 233.646 310.33Z" fill="black"/>
</g>
</g>
<defs>
<filter id="filter0_d_119_3454" x="-7.47076" y="-152.126" width="1082.59" height="999.72" filterUnits="userSpaceOnUse" color-interpolation-filters="sRGB">
<feFlood flood-opacity="0" result="BackgroundImageFix"/>
<feColorMatrix in="SourceAlpha" type="matrix" values="0 0 0 0 0 0 0 0 0 0 0 0 0 0 0 0 0 0 127 0" result="hardAlpha"/>
<feOffset dy="4"/>
<feGaussianBlur stdDeviation="80"/>
<feComposite in2="hardAlpha" operator="out"/>
<feColorMatrix type="matrix" values="0 0 0 0 0 0 0 0 0 0 0 0 0 0 0 0 0 0 0.75 0"/>
<feBlend mode="normal" in2="BackgroundImageFix" result="effect1_dropShadow_119_3454"/>
<feBlend mode="normal" in="SourceGraphic" in2="effect1_dropShadow_119_3454" result="shape"/>
</filter>
<clipPath id="clip0_119_3454">
<rect x="706.686" y="683.594" width="650.558" height="397.895" rx="19.8947" transform="rotate(-148.41 706.686 683.594)" fill="white"/>
</clipPath>
</defs>
</svg>
